<svg width="73" height="60" viewBox="0 0 73 60" fill="none" xmlns="http://www.w3.org/2000/svg">
<path d="M65.1786 13.0435H52.925L51.3607 5.21739C50.7089 2.21739 48.1018 0 44.9732 0H28.0268C24.8982 0 22.2911 2.21739 21.6393 5.21739L20.075 13.0435H7.82143C3.51964 13.0435 0 16.5652 0 20.8696V26.087C0 27.5217 1.17321 28.6957 2.60714 28.6957C4.04107 28.6957 5.21429 27.5217 5.21429 26.087V20.8696C5.21429 19.4348 6.3875 18.2609 7.82143 18.2609H22.1607C23.4643 18.2609 24.5071 17.3478 24.7679 16.1739L26.7232 6.26087C26.8536 5.6087 27.375 5.21739 28.0268 5.21739H45.1028C45.7546 5.21739 46.276 5.6087 46.4064 6.26087L48.3618 16.1739C48.6225 17.3478 49.6653 18.2609 50.9689 18.2609H65.3082C66.7421 18.2609 67.9153 19.4348 67.9153 20.8696V32.6087H51.8821C50.5786 25.1739 44.1911 19.5652 36.5 19.5652C28.8089 19.5652 22.2911 25.1739 21.1179 32.6087H2.60714C1.17321 32.6087 0 33.7826 0 35.2174V52.1739C0 56.4783 3.51964 60 7.82143 60H65.1786C69.4804 60 73 56.4783 73 52.1739V20.8696C73 16.5652 69.4804 13.0435 65.1786 13.0435ZM36.5 24.7826C42.2357 24.7826 46.9286 29.4783 46.9286 35.2174C46.9286 40.9565 42.2357 45.6522 36.5 45.6522C30.7643 45.6522 26.0714 40.9565 26.0714 35.2174C26.0714 29.4783 30.7643 24.7826 36.5 24.7826ZM65.1786 54.7826H7.82143C6.3875 54.7826 5.21429 53.6087 5.21429 52.1739V37.8261H21.1179C22.4214 45.2609 28.8089 50.8696 36.5 50.8696C44.1911 50.8696 50.7089 45.2609 51.8821 37.8261H67.7857V52.1739C67.7857 53.6087 66.6125 54.7826 65.1786 54.7826ZM33.8929 35.2174C33.8929 33.7826 35.0661 32.6087 36.5 32.6087C37.9339 32.6087 39.1071 33.7826 39.1071 35.2174C39.1071 36.6522 37.9339 37.8261 36.5 37.8261C35.0661 37.8261 33.8929 36.6522 33.8929 35.2174Z" fill="white"/>
</svg>
