<svg width="73" height="52" viewBox="0 0 73 52" fill="none" xmlns="http://www.w3.org/2000/svg">
<path d="M65.1772 0H7.82127C3.51957 0 0 3.50995 0 7.79989V20.7997C0 22.2297 1.17319 23.3997 2.60709 23.3997C4.04099 23.3997 5.21418 22.2297 5.21418 20.7997V7.79989C5.21418 7.53989 5.21418 7.1499 5.34453 6.8899L35.1965 23.1404C35.5875 23.4004 35.9786 23.4004 36.5 23.4004C37.0214 23.4004 37.4125 23.2704 37.8035 23.1404L67.6555 7.02064C67.7858 7.15064 67.7858 7.54064 67.7858 7.80063V44.2001C67.7858 45.6301 66.6126 46.8001 65.1787 46.8001H7.82276C6.38886 46.8001 5.21567 45.6301 5.21567 44.2001V29.9003C5.21567 28.4703 4.04248 27.3004 2.60858 27.3004C1.17468 27.3004 0.00149008 28.4703 0.00149008 29.9003V44.2001C0.00149008 48.49 3.52106 52 7.82276 52H65.1787C69.4804 52 73 48.49 73 44.2001V7.80063C73 3.51069 69.4804 0.000742438 65.1787 0.000742438L65.1772 0ZM36.4993 17.8105L13.0354 5.20067H59.9631L36.4993 17.8105ZM50.8382 42.9009C49.4043 42.9009 48.2312 41.7309 48.2312 40.3009C48.2312 38.8709 49.4043 37.7009 50.8382 37.7009H61.2666C62.7005 37.7009 63.8737 38.8709 63.8737 40.3009C63.8737 41.7309 62.7005 42.9009 61.2666 42.9009H50.8382Z" fill="white"/>
</svg>
