<svg width="32" height="25" viewBox="0 0 32 25" fill="none" xmlns="http://www.w3.org/2000/svg">
<path d="M28.125 0H6.25C4.52656 0 3.125 1.40156 3.125 3.125V10.9375H6.25V6.25L16.25 13.75C16.5206 13.9526 16.8495 14.0621 17.1875 14.0621C17.5255 14.0621 17.8544 13.9526 18.125 13.75L28.125 6.25V20.3125H15.625V23.4375H28.125C29.8484 23.4375 31.25 22.0359 31.25 20.3125V3.125C31.25 1.40156 29.8484 0 28.125 0ZM17.1875 10.5469L7.29062 3.125H27.0844L17.1875 10.5469Z" fill="#B41B17"/>
<path d="M0 12.5H10.9375V15.625H0V12.5ZM3.125 17.1875H12.5V20.3125H3.125V17.1875ZM7.8125 21.875H14.0625V25H7.8125V21.875Z" fill="#B41B17"/>
</svg>
