<svg width="29" height="29" viewBox="0 0 29 29" fill="none" xmlns="http://www.w3.org/2000/svg">
<path d="M12.6927 7.30123L8.46401 2.42001C7.97651 1.85751 7.08276 1.86001 6.51652 2.42751L3.03903 5.91124C2.00404 6.94748 1.70779 8.48622 2.30654 9.71997C5.88354 17.1261 11.8565 23.1075 19.2577 26.6949C20.4902 27.2936 22.0277 26.9974 23.0627 25.9611L26.5727 22.4449C27.1414 21.8761 27.1427 20.9774 26.5752 20.4899L21.6752 16.2837C21.1627 15.8437 20.3664 15.9012 19.8527 16.4162L18.1477 18.1237C18.0604 18.2151 17.9455 18.2755 17.8206 18.2953C17.6958 18.3152 17.5678 18.2935 17.4565 18.2337C14.6695 16.6288 12.3577 14.314 10.7565 11.525C10.6965 11.4134 10.6748 11.2852 10.6947 11.1602C10.7146 11.0351 10.7749 10.9199 10.8665 10.8325L12.5665 9.13122C13.0815 8.61372 13.1377 7.81373 12.6927 7.29998V7.30123Z" stroke="#B41B17" stroke-width="3" stroke-linecap="round" stroke-linejoin="round"/>
</svg>
