<svg xmlns="http://www.w3.org/2000/svg" viewBox="0 0 1505.52 457.84"><defs><style>.cls-1{fill:#fff;}.cls-2{fill:#ffd109;}.cls-3{fill:#06ef79;}.cls-4{fill:#f93646;}.cls-5{fill:#05d5fb;}</style></defs><g id="Camada_2" data-name="Camada 2"><g id="Layer_1" data-name="Layer 1"><path d="M58.19,0H1447.33a58.2,58.2,0,0,1,58.2,58.2V399.65a58.19,58.19,0,0,1-58.19,58.19H58.19A58.19,58.19,0,0,1,0,399.65V58.19A58.19,58.19,0,0,1,58.19,0Z"/><path class="cls-1" d="M493.4,276.56h21v47.63a66.83,66.83,0,0,1-21.5,11.27,82.81,82.81,0,0,1-25.27,3.92,68,68,0,0,1-32.94-7.94,59,59,0,0,1-23.05-21.93,63.83,63.83,0,0,1,0-63.16,59,59,0,0,1,23.13-21.94,69,69,0,0,1,33.2-7.93,72.54,72.54,0,0,1,27.32,5,53.66,53.66,0,0,1,20.65,14.51l-14,13.65A44.89,44.89,0,0,0,469,235.94a46.5,46.5,0,0,0-22.45,5.29,38.51,38.51,0,0,0-15.36,14.85,42.72,42.72,0,0,0-5.55,21.85,42,42,0,0,0,5.55,21.51,39.67,39.67,0,0,0,15.36,15,45,45,0,0,0,22.28,5.46q14,0,24.58-6.14Z"/><path class="cls-1" d="M557.58,332.9a43.61,43.61,0,0,1-17.33-16.65,49.77,49.77,0,0,1,0-48.22,43.8,43.8,0,0,1,17.33-16.56,55.35,55.35,0,0,1,50,0A43.8,43.8,0,0,1,624.92,268a49.77,49.77,0,0,1,0,48.22,43.61,43.61,0,0,1-17.33,16.65,55.35,55.35,0,0,1-50,0ZM602,312.75q7.68-7.85,7.68-20.65T602,271.44q-7.68-7.85-19.46-7.85t-19.37,7.85q-7.61,7.86-7.6,20.66t7.6,20.65q7.59,7.86,19.37,7.85T602,312.75Z"/><path class="cls-1" d="M667.68,332.9a43.61,43.61,0,0,1-17.33-16.65,49.77,49.77,0,0,1,0-48.22,43.8,43.8,0,0,1,17.33-16.56,55.35,55.35,0,0,1,50,0A43.8,43.8,0,0,1,735,268a49.77,49.77,0,0,1,0,48.22,43.61,43.61,0,0,1-17.33,16.65,55.35,55.35,0,0,1-50,0Zm44.38-20.15q7.68-7.85,7.68-20.65t-7.68-20.66q-7.68-7.85-19.46-7.85t-19.37,7.85q-7.61,7.86-7.6,20.66t7.6,20.65q7.59,7.86,19.37,7.85T712.06,312.75Z"/><path class="cls-1" d="M852.2,246.52v77.33Q852.2,372,803,372a91.19,91.19,0,0,1-24.92-3.33A52.91,52.91,0,0,1,758.66,359l9.56-16a45.61,45.61,0,0,0,15.11,7.93,59.23,59.23,0,0,0,18.52,3q15,0,22-6.83t7-20.82v-4.78a35.18,35.18,0,0,1-13.32,9.05,47.07,47.07,0,0,1-17.24,3.07A49.43,49.43,0,0,1,776.84,328a41.65,41.65,0,0,1-16.56-15.62,46.68,46.68,0,0,1,0-46A41.24,41.24,0,0,1,776.84,251a50.09,50.09,0,0,1,23.47-5.46,48.16,48.16,0,0,1,18,3.24,33.21,33.21,0,0,1,13.57,9.9V246.52Zm-28.76,61.71q7.77-7.26,7.77-18.86,0-11.44-7.77-18.61t-19.89-7.17q-12.28,0-20,7.17t-7.77,18.61q0,11.61,7.77,18.86t20,7.25Q815.67,315.48,823.44,308.23Z"/><path class="cls-1" d="M880.2,211h21.33V337.67H880.2Z"/><path class="cls-1" d="M1014.88,298.93H943.35a24.82,24.82,0,0,0,9.82,16q7.94,5.88,19.71,5.89,15,0,24.76-9.91L1009.07,324a38.46,38.46,0,0,1-15.53,11.09,56.48,56.48,0,0,1-21.17,3.76q-15,0-26.46-6a43,43,0,0,1-17.66-16.65A46.92,46.92,0,0,1,922,292.1a47.63,47.63,0,0,1,6.06-24,43,43,0,0,1,16.81-16.64,49.09,49.09,0,0,1,24.24-6,47.77,47.77,0,0,1,23.81,5.89,41.69,41.69,0,0,1,16.39,16.55q5.88,10.68,5.89,24.67C1015.22,294.09,1015.1,296.19,1014.88,298.93Zm-63.08-30.3a25.51,25.51,0,0,0-8.62,16.13H994.9a25.19,25.19,0,0,0-8.36-16.05q-7-6.13-17.41-6.14A25.74,25.74,0,0,0,951.8,268.63Z"/><path class="cls-1" d="M1161.08,223.31A39.3,39.3,0,0,1,1178.75,238q6.13,9.56,6.14,22.7,0,13-6.14,22.62a39.14,39.14,0,0,1-17.67,14.76q-11.52,5.13-27.06,5.12h-27v34.48h-22.19V218.18H1134Q1149.56,218.18,1161.08,223.31Zm-6.06,55q7.5-6.15,7.51-17.58T1155,243.11q-7.51-6.15-22-6.15h-26v47.46h26Q1147.51,284.42,1155,278.27Z"/><path class="cls-1" d="M1206.74,211h21.34V337.67h-21.34Z"/><path class="cls-1" d="M1321.7,255.14q10.68,9.64,10.67,29.11v53.42h-20.14V326.58a24.8,24.8,0,0,1-11.18,9.13q-7.26,3.17-17.5,3.16a42.89,42.89,0,0,1-17.92-3.5,27.58,27.58,0,0,1-11.86-9.73,24.68,24.68,0,0,1-4.19-14.08q0-12.3,9.14-19.72t28.76-7.42H1311v-1.37q0-9.56-5.72-14.68t-17-5.12a49.08,49.08,0,0,0-15.1,2.39,37,37,0,0,0-12.55,6.66l-8.37-15.54a51.73,51.73,0,0,1,17.25-8.36,76.44,76.44,0,0,1,21.33-2.9Q1311,245.5,1321.7,255.14Zm-19.46,64.53a20,20,0,0,0,8.8-10.5V298.58h-22q-18.45,0-18.44,12.12a10.88,10.88,0,0,0,4.61,9.22q4.61,3.42,12.8,3.42A27.59,27.59,0,0,0,1302.24,319.67Z"/><path class="cls-1" d="M1443.33,246.52,1400.65,345q-6,14.87-14.51,20.92T1365.49,372a42.7,42.7,0,0,1-13.49-2.22,29.87,29.87,0,0,1-10.92-6.15l8.53-15.7a23.37,23.37,0,0,0,7.26,4.61,22.32,22.32,0,0,0,8.45,1.7,14.57,14.57,0,0,0,9.3-2.9q3.68-2.91,6.74-9.73l1.54-3.58-39.77-91.5h22.19L1394,314l28.84-67.43Z"/><path class="cls-2" d="M362.26,223.08,304.9,190l-47.17,45.6,43.11,41.68,61.42-35.46a10.81,10.81,0,0,0,0-18.72Z"/><polygon class="cls-3" points="295.17 184.35 232.04 147.92 93.71 77.03 249.95 228.06 295.17 184.35"/><polygon class="cls-4" points="96.01 391.91 232.28 316.84 291.1 282.88 249.95 243.1 96.01 391.91"/><polygon class="cls-5" points="84.48 83.14 84.33 388.16 242.18 235.58 84.48 83.14"/><path class="cls-1" d="M441.46,151.85A29.54,29.54,0,0,1,428,148.7a35.67,35.67,0,0,1-10.89-8.47,39.9,39.9,0,0,1-7.23-12,37.87,37.87,0,0,1-2.58-13.79A38.81,38.81,0,0,1,417,88.55a33.34,33.34,0,0,1,10.84-8.1,31.33,31.33,0,0,1,13.58-3q10.64,0,17.55,4.44a28.58,28.58,0,0,1,10.43,11.57l-7.12,4.95a21.55,21.55,0,0,0-8.78-9.5,25,25,0,0,0-12.29-3.09,21.54,21.54,0,0,0-10.12,2.37,24.36,24.36,0,0,0-7.8,6.46,29.58,29.58,0,0,0-4.95,9.24,33.92,33.92,0,0,0-1.71,10.74,32.13,32.13,0,0,0,1.91,11.1A28.63,28.63,0,0,0,424,135a25.94,25.94,0,0,0,8.15,6.24,22.45,22.45,0,0,0,10,2.28,24,24,0,0,0,12-3.21,36.33,36.33,0,0,0,10.74-9.81v9.61Q455,151.86,441.46,151.85Zm22.3-30H448v-7h23.65v36.55h-7.85Z"/><path class="cls-1" d="M535.52,143.07v8.26H485.75V78H534.6v8.26H495.05V110h34.38v7.74H495.05v25.3Z"/><path class="cls-1" d="M601.09,86.28H575.8v65.05h-9.3V86.28H541.2V78h59.89Z"/><path class="cls-1" d="M634.65,151.33V78H644v73.31Z"/><path class="cls-1" d="M670.79,95.16v56.17H661.5V78h7.85l44.81,57.31V78.12h9.29v73.21H715Z"/><path class="cls-1" d="M796.87,151.85a31.32,31.32,0,0,1-14-3.1,34.28,34.28,0,0,1-10.9-8.41,39.51,39.51,0,0,1-9.55-25.66,37.57,37.57,0,0,1,2.64-14,38.7,38.7,0,0,1,7.33-11.88,35.3,35.3,0,0,1,11-8.26,31.16,31.16,0,0,1,13.74-3,30.6,30.6,0,0,1,14,3.2A34.8,34.8,0,0,1,822,89.27a40.34,40.34,0,0,1,7,12,38.59,38.59,0,0,1-7.38,39.4,34.88,34.88,0,0,1-11,8.21A31.64,31.64,0,0,1,796.87,151.85Zm-25.09-37.17a32.63,32.63,0,0,0,1.81,10.79,29.69,29.69,0,0,0,5.11,9.24,24.7,24.7,0,0,0,7.95,6.4,23.6,23.6,0,0,0,20.86-.1,24.93,24.93,0,0,0,7.9-6.61,30.17,30.17,0,0,0,5-9.29,33,33,0,0,0,1.71-10.43,32.38,32.38,0,0,0-1.81-10.74,30.3,30.3,0,0,0-5.16-9.24,24.58,24.58,0,0,0-8-6.41,23.74,23.74,0,0,0-20.7.11,24.26,24.26,0,0,0-7.9,6.55,31.25,31.25,0,0,0-5,9.25A32,32,0,0,0,771.78,114.68Z"/><path class="cls-1" d="M853.66,95.16v56.17h-9.29V78h7.85L897,135.33V78.12h9.29v73.21h-8.46Z"/></g></g></svg>