<svg width="27" height="33" viewBox="0 0 27 33" fill="none" xmlns="http://www.w3.org/2000/svg">
<path d="M18.24 13.6C18.24 14.8306 17.7511 16.0108 16.8809 16.8809C16.0108 17.7511 14.8306 18.24 13.6 18.24C12.3694 18.24 11.1892 17.7511 10.319 16.8809C9.44882 16.0108 8.95996 14.8306 8.95996 13.6C8.95996 12.3694 9.44882 11.1892 10.319 10.319C11.1892 9.44882 12.3694 8.95996 13.6 8.95996C14.8306 8.95996 16.0108 9.44882 16.8809 10.319C17.7511 11.1892 18.24 12.3694 18.24 13.6V13.6Z" stroke="#B41B17" stroke-width="3" stroke-linecap="round" stroke-linejoin="round"/>
<path d="M25.2 13.6C25.2 24.6463 13.6 31 13.6 31C13.6 31 2 24.6463 2 13.6C2 10.5235 3.22214 7.57298 5.39756 5.39756C7.57298 3.22214 10.5235 2 13.6 2C16.6765 2 19.627 3.22214 21.8024 5.39756C23.9779 7.57298 25.2 10.5235 25.2 13.6V13.6Z" stroke="#B41B17" stroke-width="3" stroke-linecap="round" stroke-linejoin="round"/>
</svg>
