<svg xmlns="http://www.w3.org/2000/svg" viewBox="0 0 1505.52 457.84"><defs><style>.cls-1{fill:#fff;}</style></defs><g id="Camada_2" data-name="Camada 2"><g id="Layer_1" data-name="Layer 1"><rect width="1505.52" height="457.84" rx="58.19"/><path class="cls-1" d="M136.84,187.07c-24.43,42.38-8.9,106.7,18.1,145.7,13.49,19.49,27.13,37,45.83,37l1.06,0c8.79-.35,15.14-3.05,21.27-5.66,6.89-2.94,14-6,25.2-6,10.63,0,17.41,2.94,24,5.78s13.13,5.7,23,5.51c21.05-.39,34-19.28,45.39-35.94a158.74,158.74,0,0,0,19.89-40.74l.08-.25a2.37,2.37,0,0,0-1.26-2.91l-.17-.07c-3.71-1.52-36.24-16-36.58-55.28-.32-31.95,24.4-48.87,29.36-51.94l.23-.15a2.35,2.35,0,0,0,.67-3.32c-17.06-25-43.21-28.73-53.74-29.18a45,45,0,0,0-4.68-.23c-12.37,0-24.22,4.67-33.74,8.42-6.57,2.59-12.24,4.83-16.15,4.83-4.4,0-10.11-2.27-16.71-4.89-8.85-3.5-18.86-7.48-29.46-7.48h-.75C173,150.63,149.68,164.74,136.84,187.07Z"/><path class="cls-1" d="M299.14,80.88c-14.93.61-32.84,9.8-43.54,22.34-9.1,10.53-18,28.11-15.65,45.82a2.38,2.38,0,0,0,2.17,2.05q1.51.12,3.06.12c14.6,0,30.35-8.08,41.1-21.08C297.6,116.4,303.33,98.77,301.6,83A2.39,2.39,0,0,0,299.14,80.88Z"/><path class="cls-1" d="M470.93,104.45h28.31a41.4,41.4,0,0,1,19.78,4.6,33.51,33.51,0,0,1,13.44,12.72,37.86,37.86,0,0,1,0,36.9A33.51,33.51,0,0,1,519,171.39a41.4,41.4,0,0,1-19.78,4.6H470.93Zm27.9,66.84a37.38,37.38,0,0,0,17.48-3.93,28.18,28.18,0,0,0,11.65-11,33.93,33.93,0,0,0,0-32.3,28.18,28.18,0,0,0-11.65-11,37.38,37.38,0,0,0-17.48-3.93H476.14v62.14Z"/><path class="cls-1" d="M560.92,172.93a25,25,0,0,1-9.55-9.66,29.72,29.72,0,0,1,0-27.91,25,25,0,0,1,9.55-9.65,28.51,28.51,0,0,1,27.3,0,25,25,0,0,1,9.55,9.65,29.72,29.72,0,0,1,0,27.91,25.11,25.11,0,0,1-9.55,9.66,28.58,28.58,0,0,1-27.3,0Zm24.64-4a20.54,20.54,0,0,0,7.66-8,25.58,25.58,0,0,0,0-23.31,20.61,20.61,0,0,0-7.66-8,22.55,22.55,0,0,0-22,0,20.61,20.61,0,0,0-7.66,8,25.58,25.58,0,0,0,0,23.31,20.54,20.54,0,0,0,7.66,8,22.55,22.55,0,0,0,22,0Z"/><path class="cls-1" d="M691.8,122.64,671.57,176h-4.81l-18-46.3L630.68,176H626l-20.24-53.35h4.91l17.78,47.63,18.2-47.63H651l18.09,47.53,18-47.53Z"/><path class="cls-1" d="M745.57,128.06q5.82,5.82,5.82,16.76V176h-5.11V145.23q0-9-4.55-13.7T729,126.83q-9.4,0-14.82,5.62t-5.42,15.13V176h-5.11V122.64h4.91v11.55a20.28,20.28,0,0,1,8.22-8.79,25.39,25.39,0,0,1,12.93-3.17Q739.74,122.23,745.57,128.06Z"/><path class="cls-1" d="M772.45,100.15h5.11V176h-5.11Z"/><path class="cls-1" d="M806.33,172.93a25.07,25.07,0,0,1-9.56-9.66,29.8,29.8,0,0,1,0-27.91,25,25,0,0,1,9.56-9.65,28.49,28.49,0,0,1,27.29,0,25,25,0,0,1,9.56,9.65,29.8,29.8,0,0,1,0,27.91,25.14,25.14,0,0,1-9.56,9.66,28.56,28.56,0,0,1-27.29,0Zm24.63-4a20.57,20.57,0,0,0,7.67-8,25.58,25.58,0,0,0,0-23.31,20.63,20.63,0,0,0-7.67-8,22.53,22.53,0,0,0-22,0,20.56,20.56,0,0,0-7.67,8,25.58,25.58,0,0,0,0,23.31,20.5,20.5,0,0,0,7.67,8,22.53,22.53,0,0,0,22,0Z"/><path class="cls-1" d="M895.51,127.29q5.31,5.05,5.31,14.87V176h-4.9v-9.5a17.86,17.86,0,0,1-7.47,7.31,24.83,24.83,0,0,1-11.75,2.6q-8.9,0-14.05-4.19a14.48,14.48,0,0,1-.41-21.82q4.75-4.14,15.18-4.14h18.29V142q0-7.47-4-11.35t-11.8-3.88a28.33,28.33,0,0,0-10.17,1.84,25.45,25.45,0,0,0-8.23,4.9l-2.55-3.68a28.37,28.37,0,0,1,9.6-5.57,34.92,34.92,0,0,1,11.76-2Q890.2,122.23,895.51,127.29Zm-6.8,41.85a18.61,18.61,0,0,0,7-8.89v-10H877.52q-7.87,0-11.4,2.86A9.58,9.58,0,0,0,862.6,161a9.86,9.86,0,0,0,3.88,8.23q3.88,3,10.94,3A20,20,0,0,0,888.71,169.14Z"/><path class="cls-1" d="M969.4,100.15V176h-5V163.42A22.86,22.86,0,0,1,955.5,173a25,25,0,0,1-13,3.37A26.6,26.6,0,0,1,929,172.93a25,25,0,0,1-9.46-9.61,28.27,28.27,0,0,1-3.42-14,28.58,28.58,0,0,1,3.42-14.06,24.56,24.56,0,0,1,9.46-9.61,26.87,26.87,0,0,1,13.49-3.42,24.61,24.61,0,0,1,12.83,3.37,24,24,0,0,1,8.94,9.41V100.15Zm-15.58,68.79a20.54,20.54,0,0,0,7.66-8,25.58,25.58,0,0,0,0-23.31,20.61,20.61,0,0,0-7.66-8,22.55,22.55,0,0,0-22,0,20.63,20.63,0,0,0-7.67,8,25.58,25.58,0,0,0,0,23.31,20.57,20.57,0,0,0,7.67,8,22.55,22.55,0,0,0,22,0Z"/><path class="cls-1" d="M1024.44,172.93a25.14,25.14,0,0,1-9.56-9.66,29.8,29.8,0,0,1,0-27.91,25,25,0,0,1,9.56-9.65,28.49,28.49,0,0,1,27.29,0,25,25,0,0,1,9.56,9.65,29.8,29.8,0,0,1,0,27.91,25.14,25.14,0,0,1-9.56,9.66,28.56,28.56,0,0,1-27.29,0Zm24.63-4a20.57,20.57,0,0,0,7.67-8,25.58,25.58,0,0,0,0-23.31,20.63,20.63,0,0,0-7.67-8,22.53,22.53,0,0,0-22,0,20.63,20.63,0,0,0-7.67,8,25.58,25.58,0,0,0,0,23.31,20.57,20.57,0,0,0,7.67,8,22.53,22.53,0,0,0,22,0Z"/><path class="cls-1" d="M1122.51,128.06q5.84,5.82,5.83,16.76V176h-5.11V145.23q0-9-4.55-13.7t-12.73-4.7q-9.4,0-14.82,5.62t-5.41,15.13V176h-5.12V122.64h4.91v11.55a20.25,20.25,0,0,1,8.23-8.79,25.34,25.34,0,0,1,12.93-3.17Q1116.69,122.23,1122.51,128.06Z"/><path class="cls-1" d="M1202.13,172.62a12.79,12.79,0,0,1-4.85,2.81,19.13,19.13,0,0,1-6.09,1q-6.95,0-10.73-3.83t-3.78-10.68V127h-9.81v-4.39h9.81V111h5.11v11.65h17V127h-17v34.35q0,5.2,2.5,7.92c1.67,1.8,4.14,2.71,7.41,2.71a11.85,11.85,0,0,0,8.28-3Z"/><path class="cls-1" d="M1258.24,128.06q5.84,5.82,5.83,16.76V176H1259V145.23q0-9-4.55-13.7t-12.72-4.7c-6.28,0-11.21,1.87-14.83,5.62s-5.41,8.79-5.41,15.13V176h-5.11V100.15h5.11v33.63a19.57,19.57,0,0,1,8.17-8.53,25.89,25.89,0,0,1,12.78-3Q1252.42,122.23,1258.24,128.06Z"/><path class="cls-1" d="M1330.3,150.54h-45.89a22.26,22.26,0,0,0,3.16,11.09,20.3,20.3,0,0,0,8,7.51,24,24,0,0,0,11.4,2.66,24.39,24.39,0,0,0,9.65-1.89,18.75,18.75,0,0,0,7.41-5.57l3,3.37a22.64,22.64,0,0,1-8.74,6.44,30.44,30.44,0,0,1-25.6-1.22,25.27,25.27,0,0,1-9.77-9.61,27.6,27.6,0,0,1-3.52-14,29.11,29.11,0,0,1,3.32-14,24.38,24.38,0,0,1,9.15-9.65,26.43,26.43,0,0,1,26.11-.06,24.43,24.43,0,0,1,9.1,9.56,28.76,28.76,0,0,1,3.32,13.9Zm-35.47-21.31a19,19,0,0,0-7.2,7.05,22.94,22.94,0,0,0-3.12,10.28h40.88a21.3,21.3,0,0,0-3.06-10.22,19.83,19.83,0,0,0-17.38-9.61A20.44,20.44,0,0,0,1294.83,129.23Z"/><path class="cls-1" d="M546.6,334.16H485.47l-12.05,28.3H450l55-122.27h22.36l55.19,122.27H558.83Zm-7.51-17.82L516,262.9l-22.88,53.44Z"/><path class="cls-1" d="M672.1,274.08A42.83,42.83,0,0,1,689,290.84q6.12,10.83,6.12,25A50.41,50.41,0,0,1,689,340.89a42.67,42.67,0,0,1-16.85,16.85,49.52,49.52,0,0,1-24.37,5.94q-18.86,0-29.87-12.58v45.24H596V269.18h20.79v12.23a33.7,33.7,0,0,1,13.36-10,45.17,45.17,0,0,1,17.55-3.32A49.52,49.52,0,0,1,672.1,274.08Zm-7,62.88q7.77-8,7.77-21.14t-7.77-21.13q-7.77-8-19.82-8a28.15,28.15,0,0,0-14.15,3.58,26,26,0,0,0-10,10.22,34,34,0,0,0,0,30.74,25.92,25.92,0,0,0,10,10.22A28.05,28.05,0,0,0,645.29,345Q657.34,345,665.11,337Z"/><path class="cls-1" d="M791.92,274.08a42.83,42.83,0,0,1,16.85,16.76q6.12,10.83,6.12,25a50.41,50.41,0,0,1-6.12,25.07,42.67,42.67,0,0,1-16.85,16.85,49.52,49.52,0,0,1-24.37,5.94q-18.85,0-29.87-12.58v45.24H715.85V269.18h20.79v12.23a33.7,33.7,0,0,1,13.36-10,45.17,45.17,0,0,1,17.55-3.32A49.52,49.52,0,0,1,791.92,274.08Zm-7,62.88q7.77-8,7.77-21.14t-7.77-21.13q-7.77-8-19.82-8A28.15,28.15,0,0,0,751,290.23a26,26,0,0,0-10,10.22,34,34,0,0,0,0,30.74,25.92,25.92,0,0,0,10,10.22A28.05,28.05,0,0,0,765.11,345Q777.16,345,784.93,337Z"/><path class="cls-1" d="M896.54,360.19q-13.18-4-20.87-10.66l7.86-17.64A61.77,61.77,0,0,0,902,341.58a66.89,66.89,0,0,0,21.93,3.76q13.62,0,20.34-4.37T951,329.44a11.14,11.14,0,0,0-3.76-8.64,26.28,26.28,0,0,0-9.52-5.33q-5.76-1.92-15.72-4.36a185.59,185.59,0,0,1-22.62-6.64,37.16,37.16,0,0,1-14.84-10.4q-6.21-7.06-6.2-19.12a32.62,32.62,0,0,1,5.5-18.43q5.51-8.29,16.59-13.19t27.16-4.89a87.91,87.91,0,0,1,22,2.8,60.83,60.83,0,0,1,18.69,8l-7.16,17.64a71.33,71.33,0,0,0-16.77-7.16,62.7,62.7,0,0,0-16.94-2.44q-13.46,0-20,4.54t-6.55,12a10.91,10.91,0,0,0,3.75,8.56,27.24,27.24,0,0,0,9.52,5.24q5.77,1.92,15.72,4.37a164.28,164.28,0,0,1,22.36,6.55A38.33,38.33,0,0,1,967.11,309q6.2,7,6.2,18.86a32.18,32.18,0,0,1-5.51,18.34q-5.49,8.22-16.68,13.1t-27.24,4.89A93.53,93.53,0,0,1,896.54,360.19Z"/><path class="cls-1" d="M1049.81,357.39a25.71,25.71,0,0,1-9.34,4.72,42.08,42.08,0,0,1-11.62,1.57q-15.37,0-23.75-8t-8.39-23.41V287.35H981.34V269.88h15.37V248.57h21.83v21.31h25v17.47h-25v44.37q0,6.81,3.32,10.39t9.61,3.58a19.2,19.2,0,0,0,12.23-3.84Z"/><path class="cls-1" d="M1081.08,357.57a44.58,44.58,0,0,1-17.73-17,48.12,48.12,0,0,1-6.38-24.72,47.64,47.64,0,0,1,6.38-24.63,44.77,44.77,0,0,1,17.73-16.94,56.62,56.62,0,0,1,51.17,0A44.77,44.77,0,0,1,1150,291.19a47.64,47.64,0,0,1,6.38,24.63,48.12,48.12,0,0,1-6.38,24.72,44.58,44.58,0,0,1-17.73,17,56.62,56.62,0,0,1-51.17,0ZM1126.49,337q7.86-8,7.86-21.14t-7.86-21.13q-7.86-8-19.91-8t-19.83,8q-7.77,8-7.77,21.13t7.77,21.14q7.77,8,19.83,8T1126.49,337Z"/><path class="cls-1" d="M1231.29,268.14v20.78a27.68,27.68,0,0,0-5.07-.52q-12.75,0-19.91,7.42t-7.16,21.4v45.24h-21.83V269.18h20.78v13.63Q1207.54,268.14,1231.29,268.14Z"/><path class="cls-1" d="M1336.26,322.81h-73.18a25.38,25.38,0,0,0,10,16.33q8.13,6,20.18,6,15.36,0,25.32-10.13l11.71,13.45a39.5,39.5,0,0,1-15.9,11.36,57.9,57.9,0,0,1-21.66,3.84q-15.37,0-27.07-6.11a44.06,44.06,0,0,1-18.08-17,48.11,48.11,0,0,1-6.37-24.72,48.75,48.75,0,0,1,6.2-24.54,43.94,43.94,0,0,1,17.2-17,50.25,50.25,0,0,1,24.8-6.11,49,49,0,0,1,24.37,6,42.73,42.73,0,0,1,16.77,16.95q6,10.9,6,25.23C1336.61,317.86,1336.5,320,1336.26,322.81Zm-64.54-31a26.13,26.13,0,0,0-8.82,16.51h52.93a25.81,25.81,0,0,0-8.56-16.42q-7.17-6.28-17.82-6.29A26.38,26.38,0,0,0,1271.72,291.8Z"/></g></g></svg>