<svg width="352" height="220" viewBox="0 0 352 220" fill="none" xmlns="http://www.w3.org/2000/svg">
<path d="M349.923 137.32C349.923 137.32 347.059 135.623 344.011 142.422C340.959 149.221 339.871 153.11 339.871 153.11C339.871 153.11 339.044 154.545 338.045 153.684C337.046 152.823 335.611 150.309 334.013 150.854C332.356 151.418 331.896 153.323 332.351 156.064C332.806 158.805 333.593 164.852 333.657 165.401C333.726 165.941 333.454 166.747 332.682 166.272C331.906 165.797 327.359 161.21 325.311 163.496C323.263 165.787 325.796 173.22 326.053 174.036C326.315 174.853 326.172 175.214 325.786 175.441C325.405 175.664 324.02 173.982 322.674 172.73C321.329 171.478 319.548 170.266 318.474 171.681C317.406 173.101 317.321 178.777 323.159 187.698L326.137 191.657L331.084 191.137C341.597 189.376 345.713 185.467 346.03 183.715C346.346 181.963 344.244 181.478 342.413 181.34C340.578 181.201 338.401 181.325 338.307 180.889C338.213 180.454 338.381 180.103 339.158 179.741C339.935 179.38 347.113 176.198 347.405 173.14C347.697 170.082 341.246 169.85 340.37 169.607C339.495 169.36 339.905 168.613 340.345 168.301C340.796 167.979 345.768 164.451 348.093 162.927C350.418 161.403 351.506 159.77 350.794 158.172C350.111 156.628 347.291 157.276 345.98 157.128C344.669 156.979 345.164 155.401 345.164 155.401C345.164 155.401 347.281 151.962 350.205 145.109C353.129 138.255 349.859 137.295 349.859 137.295" fill="#EBEBEB"/>
<path d="M325.395 192.587C327.562 187.564 331.569 178.697 334.968 171.067C338.366 163.442 341.434 156.534 343.63 151.516C344.724 149.013 345.609 146.984 346.223 145.579C346.529 144.881 346.767 144.341 346.93 143.965C347.009 143.787 347.073 143.649 347.118 143.545C347.162 143.451 347.187 143.406 347.187 143.406C347.187 143.406 347.172 143.456 347.133 143.555C347.093 143.654 347.034 143.797 346.96 143.98C346.801 144.356 346.574 144.906 346.282 145.608C345.688 147.018 344.818 149.057 343.734 151.566C341.567 156.588 338.51 163.506 335.111 171.131C331.713 178.762 327.691 187.619 325.499 192.631" fill="#E0E0E0"/>
<path d="M335.883 154.451C335.883 154.451 335.942 154.565 336.027 154.782C336.111 154.995 336.219 155.312 336.353 155.703C336.615 156.484 336.952 157.568 337.303 158.775C337.644 159.963 337.951 161.042 338.183 161.863C338.292 162.234 338.381 162.546 338.456 162.798C338.52 163.021 338.555 163.14 338.545 163.145C338.535 163.145 338.485 163.031 338.401 162.818C338.317 162.6 338.208 162.289 338.08 161.898C337.822 161.116 337.501 160.027 337.154 158.82C336.808 157.632 336.492 156.559 336.249 155.737C336.14 155.366 336.046 155.054 335.972 154.802C335.908 154.579 335.878 154.456 335.888 154.456L335.883 154.451Z" fill="#E0E0E0"/>
<path d="M338.995 163.204C338.98 163.165 341.191 162.373 343.927 161.438C346.663 160.502 348.894 159.775 348.909 159.815C348.924 159.854 346.717 160.646 343.976 161.581C341.241 162.516 339.01 163.244 338.995 163.204Z" fill="#E0E0E0"/>
<path d="M333.251 174.679C333.251 174.679 333.38 174.654 333.617 174.644C333.884 174.634 334.216 174.615 334.612 174.6C335.448 174.56 336.605 174.501 337.882 174.387C339.158 174.278 340.306 174.14 341.137 174.031C341.528 173.981 341.859 173.937 342.121 173.902C342.354 173.872 342.483 173.862 342.488 173.872C342.488 173.882 342.364 173.912 342.131 173.961C341.899 174.006 341.567 174.07 341.152 174.135C340.321 174.268 339.173 174.427 337.892 174.54C336.615 174.654 335.453 174.699 334.612 174.709C334.191 174.709 333.85 174.709 333.617 174.709C333.385 174.704 333.251 174.694 333.251 174.684V174.679Z" fill="#E0E0E0"/>
<path d="M328.69 167.385C328.69 167.385 328.774 167.474 328.898 167.652C329.036 167.86 329.209 168.113 329.417 168.41C329.848 169.053 330.436 169.948 331.075 170.948C331.713 171.943 332.287 172.848 332.692 173.511C332.88 173.823 333.039 174.085 333.167 174.298C333.276 174.486 333.335 174.59 333.326 174.6C333.316 174.605 333.241 174.511 333.118 174.333C332.979 174.125 332.806 173.872 332.598 173.576C332.168 172.932 331.579 172.037 330.941 171.037C330.303 170.042 329.729 169.137 329.323 168.474C329.135 168.162 328.977 167.9 328.848 167.687C328.74 167.499 328.68 167.395 328.69 167.385Z" fill="#E0E0E0"/>
<path d="M322.328 176.876C322.328 176.876 322.432 176.995 322.59 177.223C322.763 177.475 322.986 177.802 323.258 178.193C323.817 179.014 324.574 180.157 325.41 181.429C326.241 182.696 326.988 183.849 327.522 184.69C327.775 185.091 327.983 185.427 328.146 185.689C328.289 185.927 328.368 186.06 328.359 186.065C328.349 186.07 328.255 185.947 328.096 185.719C327.923 185.467 327.701 185.14 327.428 184.749C326.869 183.928 326.113 182.785 325.276 181.513C324.445 180.246 323.698 179.093 323.164 178.252C322.912 177.851 322.699 177.515 322.541 177.253C322.397 177.015 322.318 176.881 322.328 176.876Z" fill="#E0E0E0"/>
<path d="M328.274 185.798C328.274 185.798 328.437 185.768 328.734 185.744C329.056 185.719 329.481 185.684 329.991 185.64C331.05 185.551 332.514 185.422 334.127 185.239C335.739 185.056 337.194 184.848 338.248 184.694C338.752 184.62 339.173 184.556 339.494 184.511C339.791 184.467 339.954 184.452 339.954 184.462C339.954 184.472 339.796 184.511 339.504 184.571C339.212 184.63 338.787 184.714 338.263 184.803C337.214 184.986 335.759 185.209 334.142 185.392C332.529 185.58 331.059 185.689 329.996 185.753C329.466 185.783 329.031 185.803 328.734 185.808C328.437 185.818 328.269 185.813 328.269 185.808L328.274 185.798Z" fill="#E0E0E0"/>
<path d="M61.6424 52.3038C61.6424 52.3038 58.5406 53.5112 62.0085 60.1072C65.4715 66.7032 67.8561 69.9641 67.8561 69.9641C67.8561 69.9641 68.4744 71.4981 67.1832 71.7504C65.8871 72.0077 63.0276 71.5822 62.4686 73.1805C61.8898 74.8332 63.1018 76.3721 65.5457 77.7081C67.9847 79.0392 73.2237 82.1566 73.6986 82.4436C74.1637 82.7207 74.6336 83.4333 73.7778 83.75C72.9219 84.0666 66.5104 84.8138 67.0447 87.8372C67.579 90.8606 74.9898 93.4584 75.7962 93.7553C76.6026 94.0572 76.7956 94.3936 76.7362 94.834C76.6768 95.2744 74.4951 95.3239 72.6795 95.6109C70.8639 95.8979 68.8109 96.5511 69.266 98.2681C69.7211 99.9852 74.134 103.558 84.7555 104.468L89.7027 104.567L92.3445 100.356C97.4499 90.9942 96.9107 85.3433 95.7333 84.0172C94.5509 82.6861 92.8738 84.0419 91.6321 85.3977C90.3903 86.7535 89.1436 88.5448 88.7479 88.3518C88.3472 88.1588 88.174 87.8075 88.3669 86.9713C88.5599 86.135 90.4893 78.5246 88.268 76.4067C86.0467 74.2889 81.8763 79.2272 81.1441 79.7617C80.4119 80.301 80.0755 79.5142 80.1003 78.9749C80.125 78.4256 80.4218 72.3343 80.6593 69.5633C80.8967 66.7923 80.2833 64.9317 78.5864 64.5012C76.9489 64.0856 75.722 66.7032 74.792 67.6434C73.8668 68.5835 72.9269 67.2178 72.9269 67.2178C72.9269 67.2178 71.5268 63.4275 67.9451 56.8958C64.3584 50.3641 61.5831 52.3434 61.5831 52.3434" fill="#EBEBEB"/>
<path d="M89.9749 105.72C87.3628 100.91 82.8609 92.2855 78.9576 84.9027C75.0543 77.5199 71.5171 70.8398 68.9297 66.0202C67.6336 63.6153 66.5848 61.6657 65.8576 60.3149C65.4964 59.6468 65.2194 59.1223 65.0215 58.7611C64.9275 58.5879 64.8582 58.4543 64.8088 58.3553C64.7593 58.2613 64.7395 58.2168 64.7395 58.2168C64.7395 58.2168 64.7692 58.2613 64.8236 58.3504C64.878 58.4444 64.9522 58.578 65.0512 58.7463C65.2491 59.1025 65.5409 59.6221 65.912 60.2852C66.659 61.6212 67.7226 63.5659 69.0287 65.9707C71.6408 70.7804 75.1978 77.4507 79.0961 84.8335C82.9994 92.2163 87.4865 100.851 90.0739 105.671" fill="#E0E0E0"/>
<path d="M66.446 73.9277C66.446 73.9277 66.5747 73.9525 66.7923 74.0218C67.01 74.091 67.3266 74.1949 67.7175 74.3335C68.4942 74.6056 69.5529 75.0114 70.7204 75.4815C71.8681 75.9466 72.9021 76.3722 73.6936 76.6938C74.0498 76.8373 74.3516 76.9561 74.5989 77.055C74.8117 77.1392 74.9304 77.1886 74.9255 77.1985C74.9205 77.2084 74.7968 77.1787 74.5792 77.1095C74.3615 77.0402 74.0449 76.9313 73.659 76.7928C72.8872 76.5107 71.8285 76.0901 70.666 75.62C69.5182 75.1598 68.4793 74.7491 67.6828 74.4325C67.3217 74.289 67.0199 74.1702 66.7775 74.0762C66.5648 73.9921 66.446 73.9376 66.451 73.9277H66.446Z" fill="#E0E0E0"/>
<path d="M75.2571 76.8819C75.2176 76.867 75.9596 74.6403 76.9095 71.9089C77.8643 69.1775 78.6657 66.9755 78.7102 66.9854C78.7498 67.0002 78.0077 69.2269 77.0579 71.9584C76.1031 74.6898 75.3017 76.8918 75.2571 76.8769V76.8819Z" fill="#E0E0E0"/>
<path d="M80.7385 88.4905C80.7385 88.4905 80.8028 88.3767 80.9364 88.1837C81.0898 87.966 81.2827 87.6939 81.5152 87.3722C82 86.6894 82.6679 85.7393 83.3655 84.6705C84.068 83.6017 84.6666 82.6071 85.092 81.8896C85.2948 81.5481 85.463 81.2661 85.6016 81.0335C85.7203 80.8306 85.7945 80.7218 85.8044 80.7267C85.8143 80.7317 85.7599 80.8504 85.656 81.0583C85.5521 81.2661 85.3938 81.5679 85.191 81.939C84.7853 82.6763 84.2015 83.6759 83.499 84.7497C82.8015 85.8234 82.1188 86.7636 81.6092 87.4316C81.352 87.7631 81.1442 88.0303 80.9908 88.2134C80.8424 88.3965 80.7534 88.4905 80.7435 88.4856L80.7385 88.4905Z" fill="#E0E0E0"/>
<path d="M72.1846 87.5747C72.1846 87.5747 72.3083 87.5648 72.521 87.5747C72.7683 87.5896 73.0751 87.6143 73.4362 87.6341C74.208 87.6935 75.2765 87.7825 76.454 87.8963C77.6314 88.0052 78.7 88.1141 79.4668 88.2031C79.8279 88.2477 80.1297 88.2823 80.3771 88.312C80.5898 88.3417 80.7085 88.3615 80.7085 88.3714C80.7085 88.3813 80.5848 88.3813 80.3721 88.3714C80.1248 88.3565 79.818 88.3318 79.4569 88.312C78.6851 88.2526 77.6165 88.1635 76.4391 88.0497C75.2617 87.9409 74.1981 87.832 73.4263 87.7429C73.0652 87.6984 72.7634 87.6638 72.516 87.6341C72.3033 87.6044 72.1846 87.5846 72.1846 87.5747Z" fill="#E0E0E0"/>
<path d="M75.7218 98.4363C75.7218 98.4363 75.8752 98.4264 76.1522 98.4413C76.4589 98.4611 76.8547 98.4858 77.3247 98.5155C78.3141 98.5848 79.6845 98.6936 81.1983 98.8223C82.7121 98.951 84.0775 99.0747 85.067 99.1736C85.5369 99.2231 85.9327 99.2627 86.2394 99.2973C86.5165 99.332 86.6698 99.3518 86.6649 99.3617C86.6649 99.3716 86.5115 99.3716 86.2345 99.3567C85.9278 99.3369 85.532 99.3122 85.062 99.2825C84.0726 99.2132 82.7022 99.1044 81.1884 98.9757C79.6795 98.847 78.3092 98.7233 77.3197 98.6244C76.8497 98.5749 76.454 98.5353 76.1472 98.5007C75.8702 98.466 75.7168 98.4462 75.7218 98.4363Z" fill="#E0E0E0"/>
<path d="M86.4129 99.2628C86.4129 99.2628 86.4921 99.1144 86.6553 98.867C86.8334 98.5948 87.0659 98.2435 87.3479 97.813C87.9317 96.9223 88.7381 95.6951 89.584 94.3096C90.4349 92.9241 91.1721 91.6524 91.6965 90.732C91.9488 90.2867 92.1615 89.9205 92.3198 89.6385C92.4682 89.3812 92.5573 89.2377 92.5622 89.2476C92.5721 89.2525 92.5029 89.4009 92.3693 89.6681C92.2357 89.9354 92.0378 90.3164 91.7855 90.7865C91.2809 91.7266 90.5586 93.0082 89.7077 94.3937C88.8568 95.7792 88.0405 97.0064 87.432 97.8773C87.1253 98.3127 86.8779 98.6641 86.6949 98.9016C86.5168 99.1391 86.4129 99.2678 86.408 99.2628H86.4129Z" fill="#E0E0E0"/>
<path d="M32.1426 89.0103C33.4437 88.0256 34.8536 87.2339 36.3328 86.6401L36.7781 82.1965L44.1097 81.291L45.6236 85.4921C47.2017 85.7098 48.765 86.1354 50.264 86.7737L53.7221 83.9482L59.5449 88.4957L57.6451 92.5335C58.6296 93.8348 59.4212 95.2451 60.0148 96.7246L64.4574 97.17L65.3627 104.503L61.1626 106.017C60.9449 107.596 60.5194 109.16 59.8813 110.659L62.7061 114.118L58.1597 119.942L54.1228 118.042C52.8217 119.026 51.4117 119.818 49.9325 120.412L49.4873 124.855L42.1556 125.761L40.6418 121.56C39.0636 121.342 37.5003 120.917 36.0014 120.278L32.5433 123.104L26.7205 118.556L28.6202 114.519C27.6357 113.217 26.8442 111.807 26.2456 110.327L21.803 109.882L20.8977 102.549L25.0978 101.035C25.3155 99.4561 25.741 97.8924 26.3792 96.3931L23.5543 92.9343L28.1008 87.1102L32.1376 89.0103H32.1426ZM37.0897 98.3823C34.3985 101.831 35.0119 106.814 38.4601 109.506C41.9083 112.198 46.89 111.584 49.5813 108.135C52.2725 104.686 51.6591 99.7035 48.2109 97.0116C44.7628 94.3198 39.781 94.9333 37.0897 98.3823Z" fill="#EBEBEB"/>
<path d="M243.455 5.64159C244.464 5.03296 245.543 4.56782 246.651 4.25113L247.309 1.08425L252.657 0.990234L253.429 4.12743C254.547 4.40453 255.64 4.83008 256.674 5.40408L259.375 3.6326L263.224 7.34874L261.547 10.1099C262.16 11.1193 262.62 12.198 262.937 13.3064L266.103 13.9646L266.197 19.3136L263.056 20.0855C262.779 21.2039 262.353 22.2974 261.779 23.3316L263.55 26.0333L259.835 29.8831L257.075 28.2056C256.065 28.8192 254.987 29.2794 253.879 29.5961L253.221 32.763L247.873 32.857L247.101 29.7149C245.983 29.4377 244.89 29.0122 243.856 28.4382L241.155 30.2097L237.306 26.4935L238.983 23.7324C238.374 22.723 237.909 21.6442 237.593 20.5358L234.427 19.8777L234.333 14.5287L237.474 13.7567C237.751 12.6384 238.176 11.5449 238.75 10.5107L236.979 7.80893L240.695 3.95919L243.455 5.63665V5.64159ZM246.305 12.7671C244.103 15.0482 244.167 18.6802 246.448 20.8773C248.729 23.0792 252.36 23.0149 254.556 20.7338C256.758 18.4526 256.694 14.8206 254.413 12.6186C252.132 10.4167 248.501 10.481 246.305 12.7621V12.7671Z" fill="#F5F5F5"/>
<path d="M309.495 53.155C310.133 52.769 310.811 52.477 311.508 52.2791L311.924 50.285L315.293 50.2256L315.778 52.2049C316.485 52.3781 317.173 52.6453 317.821 53.0115L319.523 51.8931L321.947 54.2337L320.893 55.9755C321.279 56.6138 321.571 57.2917 321.769 57.9943L323.763 58.41L323.822 61.7798L321.843 62.2647C321.67 62.9723 321.403 63.6601 321.037 64.3083L322.155 66.0105L319.815 68.4352L318.073 67.3812C317.435 67.7672 316.757 68.0591 316.055 68.257L315.639 70.2512L312.27 70.3106L311.786 68.3313C311.078 68.1581 310.39 67.8909 309.742 67.5247L308.041 68.643L305.616 66.3025L306.67 64.5607C306.284 63.9224 305.992 63.2444 305.795 62.5418L303.801 62.1261L303.741 58.7564L305.72 58.2714C305.893 57.5638 306.161 56.876 306.527 56.2278L305.409 54.5256L307.749 52.101L309.49 53.1599L309.495 53.155ZM311.291 57.648C309.906 59.0879 309.945 61.374 311.38 62.7645C312.815 64.15 315.105 64.1104 316.495 62.6754C317.88 61.2404 317.841 58.9494 316.406 57.5589C314.972 56.1734 312.681 56.213 311.291 57.648Z" fill="#F5F5F5"/>
<path d="M27.062 37.9142C28.3038 37.167 29.6197 36.598 30.9802 36.212L31.7866 32.3326L38.3415 32.2188L39.2864 36.0685C40.6618 36.405 41.9975 36.9295 43.264 37.6321L46.5786 35.4599L51.2981 40.0172L49.2451 43.4068C49.9921 44.6488 50.561 45.965 50.9469 47.3307L54.8255 48.1373L54.9392 54.6937L51.0904 55.6388C50.7539 57.0145 50.2295 58.3505 49.5271 59.6172L51.6989 62.9326L47.1425 67.6532L43.7537 65.5997C42.512 66.3469 41.196 66.9159 39.8306 67.3019L39.0243 71.1813L32.4693 71.2951L31.5244 67.4454C30.1491 67.1089 28.8133 66.5844 27.5469 65.8817L24.2323 68.054L19.5127 63.4967L21.5658 60.1071C20.8187 58.8651 20.2498 57.5489 19.8639 56.1831L15.9854 55.3766L15.8716 48.8201L19.7205 47.875C20.0569 46.4994 20.5813 45.1634 21.2838 43.8966L19.112 40.5813L23.6683 35.8607L27.0571 37.9142H27.062ZM30.5547 46.6479C27.8585 49.4436 27.9327 53.8971 30.7279 56.5938C33.523 59.2906 37.9755 59.2164 40.6717 56.4207C43.3679 53.6249 43.2936 49.1715 40.4985 46.4747C37.7034 43.7779 33.2509 43.8521 30.5547 46.6479Z" fill="#F5F5F5"/>
<path d="M311.934 83.1562C312.943 82.5476 314.022 82.0825 315.13 81.7658L315.788 78.5989L321.136 78.5049L321.907 81.6421C323.025 81.9192 324.119 82.3447 325.153 82.9187L327.854 81.1472L331.703 84.8634L330.026 87.6245C330.639 88.634 331.099 89.7127 331.416 90.8211L334.582 91.4792L334.676 96.8283L331.534 97.6002C331.257 98.7185 330.832 99.8121 330.258 100.846L332.029 103.548L328.314 107.398L325.553 105.72C324.544 106.329 323.466 106.794 322.357 107.111L321.7 110.278L316.352 110.372L315.58 107.23C314.462 106.952 313.369 106.527 312.335 105.953L309.633 107.724L305.785 104.008L307.462 101.247C306.853 100.238 306.388 99.1589 306.071 98.0505L302.905 97.3924L302.811 92.0433L305.953 91.2714C306.23 90.1531 306.655 89.0595 307.229 88.0253L305.458 85.3236L309.173 81.4738L311.934 83.1513V83.1562ZM314.783 90.2817C312.582 92.5629 312.646 96.1949 314.927 98.3969C317.208 100.599 320.839 100.535 323.035 98.2534C325.237 95.9722 325.172 92.3402 322.892 90.1432C320.611 87.9412 316.98 88.0055 314.783 90.2867V90.2817Z" fill="#EBEBEB"/>
<path d="M195.626 19.9272C197.184 18.987 198.842 18.2745 200.549 17.7846L201.563 12.9106L209.8 12.7671L210.987 17.6015C212.714 18.0271 214.396 18.6803 215.984 19.566L220.144 16.8395L226.071 22.5597L223.493 26.8152C224.433 28.3739 225.146 30.0315 225.636 31.7436L230.508 32.758L230.652 40.9969L225.819 42.1845C225.393 43.9114 224.74 45.5938 223.855 47.1822L226.58 51.3437L220.862 57.2717L216.607 54.6936C215.049 55.6338 213.391 56.3464 211.68 56.8362L210.665 61.7103L202.428 61.8538L201.241 57.0193C199.515 56.5938 197.833 55.9406 196.244 55.0549L192.084 57.7814L186.157 52.0612L188.735 47.8057C187.795 46.247 187.082 44.5893 186.593 42.8772L181.72 41.8628L181.576 33.624L186.41 32.4364C186.835 30.7095 187.488 29.0271 188.374 27.4387L185.648 23.2772L191.367 17.3492L195.621 19.9322L195.626 19.9272ZM200.014 30.9024C196.625 34.4157 196.724 40.0072 200.232 43.3968C203.744 46.7863 209.335 46.6874 212.723 43.1791C216.112 39.6658 216.013 34.0743 212.506 30.6847C208.993 27.2952 203.403 27.3941 200.014 30.9024Z" fill="#EBEBEB"/>
<path d="M351.274 192.661C351.274 192.73 272.713 192.79 175.828 192.79C78.9428 192.79 0.367188 192.73 0.367188 192.661C0.367188 192.592 78.9082 192.532 175.828 192.532C272.747 192.532 351.274 192.592 351.274 192.661Z" fill="#263238"/>
<path d="M270.595 40.334H98.3505C95.3822 40.334 92.9729 42.7438 92.9729 45.7127V167.4C92.9729 170.369 95.3822 172.779 98.3505 172.779H164.459C164.459 172.779 168.664 185.783 155.629 192.513H217.443C217.443 192.513 202.725 187.465 206.51 172.779H270.6C273.569 172.779 275.978 170.369 275.978 167.4V45.7127C275.978 42.7438 273.569 40.334 270.6 40.334H270.595Z" fill="#455A64"/>
<path d="M186.771 159.978C189.116 163.328 185.445 166.995 182.096 164.654C181.987 164.575 181.883 164.476 181.809 164.367C179.474 161.017 183.135 157.355 186.484 159.691C186.593 159.77 186.697 159.869 186.771 159.978Z" fill="#263238"/>
<path d="M100.735 42.5659H268.206C270.853 42.5659 273.005 44.7184 273.005 47.3657V150.517H95.9412V47.3657C95.9412 44.7184 98.0932 42.5659 100.74 42.5659H100.735Z" fill="white"/>
<path d="M100.468 42.5659H269.284C271.337 42.5659 273.005 44.2335 273.005 46.287V51.5371H95.9412V47.0985C95.9412 44.5996 97.9695 42.5709 100.468 42.5709V42.5659Z" fill="#EBEBEB"/>
<path d="M101.576 48.4791C102.262 48.4791 102.818 47.9231 102.818 47.2371C102.818 46.5512 102.262 45.9951 101.576 45.9951C100.89 45.9951 100.334 46.5512 100.334 47.2371C100.334 47.9231 100.89 48.4791 101.576 48.4791Z" fill="#E0E0E0"/>
<path d="M105.286 48.4791C105.972 48.4791 106.528 47.9231 106.528 47.2371C106.528 46.5512 105.972 45.9951 105.286 45.9951C104.601 45.9951 104.045 46.5512 104.045 47.2371C104.045 47.9231 104.601 48.4791 105.286 48.4791Z" fill="#E0E0E0"/>
<path d="M108.814 48.4791C109.5 48.4791 110.055 47.9231 110.055 47.2371C110.055 46.5512 109.5 45.9951 108.814 45.9951C108.128 45.9951 107.572 46.5512 107.572 47.2371C107.572 47.9231 108.128 48.4791 108.814 48.4791Z" fill="#E0E0E0"/>
<path d="M239.799 172.794C239.799 172.853 215.291 172.898 185.059 172.898C154.827 172.898 130.314 172.853 130.314 172.794C130.314 172.734 154.817 172.69 185.059 172.69C215.301 172.69 239.799 172.734 239.799 172.794Z" fill="#263238"/>
<path d="M272.604 66.0503H96.0007V105.483H272.604V66.0503Z" fill="#F5F5F5"/>
<path d="M125.822 55.6689H100.334V62.3392H125.822V55.6689Z" fill="#F5F5F5"/>
<path d="M268.409 55.6689H254.453V62.3392H268.409V55.6689Z" fill="#F5F5F5"/>
<path d="M250.263 55.6689H227.427V62.3392H250.263V55.6689Z" fill="#F5F5F5"/>
<path d="M222.677 55.6689H199.841V62.3392H222.677V55.6689Z" fill="#F5F5F5"/>
<path d="M260.246 116.592H104.599V123.579H260.246V116.592Z" fill="#F5F5F5"/>
<path d="M260.246 129.601H104.599V136.588H260.246V129.601Z" fill="#F5F5F5"/>
<path d="M165.884 89.7619L170.173 85.4717L177.658 92.2954L190.842 79.1182L194.825 83.4083L177.045 100.569L165.884 89.7619Z" fill="#FF725E"/>
<path d="M172.053 79.7023C171.999 79.7468 171.316 79.0293 170.529 78.0991C169.743 77.1688 169.149 76.3771 169.204 76.3325C169.258 76.288 169.941 77.0055 170.727 77.9358C171.514 78.866 172.108 79.6578 172.053 79.7023Z" fill="#263238"/>
<path d="M177.807 79.0737C177.737 79.0737 177.579 76.9311 177.46 74.2789C177.337 71.6266 177.297 69.4741 177.371 69.4741C177.441 69.4741 177.599 71.6167 177.718 74.269C177.841 76.9212 177.881 79.0688 177.807 79.0737Z" fill="#263238"/>
<path d="M186.697 76.1351C186.751 76.1796 186.133 77.0554 185.307 78.0946C184.485 79.1337 183.773 79.9403 183.714 79.8957C183.659 79.8512 184.278 78.9754 185.104 77.9362C185.925 76.8971 186.637 76.0905 186.697 76.1351Z" fill="#263238"/>
<path d="M305.092 76.9902H231.741C229.754 76.9902 228.144 78.6008 228.144 80.5876V189.004C228.144 190.991 229.754 192.601 231.741 192.601H305.092C307.078 192.601 308.689 190.991 308.689 189.004V80.5876C308.689 78.6008 307.078 76.9902 305.092 76.9902Z" fill="#E0E0E0"/>
<path d="M305.087 192.597C305.087 192.597 305.171 192.587 305.339 192.577C305.502 192.567 305.755 192.532 306.066 192.443C306.68 192.27 307.644 191.795 308.253 190.647C308.401 190.365 308.51 190.043 308.584 189.692C308.654 189.341 308.654 188.965 308.649 188.569C308.649 187.777 308.649 186.906 308.644 185.966C308.644 184.086 308.639 181.913 308.634 179.474C308.624 169.701 308.609 155.564 308.594 138.097C308.594 129.363 308.584 119.793 308.579 109.52C308.579 104.384 308.579 99.0747 308.575 93.6019C308.575 90.8655 308.575 88.0895 308.575 85.2789C308.575 83.8736 308.575 82.4584 308.575 81.0284C308.575 80.6672 308.589 80.3208 308.52 79.9793C308.456 79.6429 308.357 79.3064 308.194 78.9996C307.882 78.3811 307.367 77.8664 306.759 77.525C306.452 77.3617 306.121 77.243 305.774 77.1737C305.428 77.1044 305.082 77.1044 304.716 77.1094C303.989 77.1094 303.261 77.1094 302.529 77.1094C301.07 77.1094 299.6 77.1094 298.121 77.1094C295.163 77.1094 292.175 77.1094 289.152 77.1094C283.107 77.1094 276.937 77.1094 270.655 77.1094C258.089 77.1094 245.078 77.1094 231.755 77.1094C230.949 77.1094 230.152 77.3964 229.534 77.906C228.915 78.4206 228.49 79.148 228.342 79.9299C228.258 80.3208 228.287 80.7265 228.277 81.1422V82.3793C228.277 83.2056 228.277 84.027 228.277 84.8534C228.277 88.144 228.277 91.4148 228.277 94.6608C228.277 101.153 228.277 107.551 228.277 113.835C228.277 126.404 228.272 138.532 228.267 150.081C228.267 161.631 228.258 172.611 228.258 182.878C228.258 184.16 228.258 185.437 228.258 186.698C228.258 187.327 228.258 187.955 228.258 188.584C228.238 189.212 228.297 189.811 228.54 190.37C229.014 191.478 230.083 192.3 231.26 192.448C231.552 192.493 231.849 192.488 232.156 192.488H233.061C233.665 192.488 234.263 192.488 234.857 192.488C239.626 192.488 244.197 192.493 248.566 192.498C266.029 192.513 280.163 192.527 289.934 192.537C294.817 192.547 298.606 192.557 301.179 192.562C302.46 192.567 303.439 192.572 304.102 192.577C304.76 192.577 305.097 192.592 305.097 192.592C305.097 192.592 304.76 192.602 304.102 192.607C303.439 192.607 302.46 192.612 301.179 192.621C298.606 192.626 294.812 192.636 289.934 192.646C280.163 192.656 266.029 192.671 248.566 192.686C244.197 192.686 239.626 192.691 234.857 192.696C234.263 192.696 233.665 192.696 233.061 192.696H232.156C231.859 192.696 231.547 192.706 231.236 192.656C229.989 192.503 228.856 191.637 228.356 190.459C228.099 189.875 228.035 189.207 228.055 188.589C228.055 187.965 228.055 187.337 228.055 186.703C228.055 185.441 228.055 184.17 228.055 182.883C228.055 172.611 228.045 161.635 228.045 150.086C228.045 138.537 228.045 126.409 228.035 113.84C228.035 107.556 228.035 101.158 228.035 94.6658C228.035 91.4197 228.035 88.1489 228.035 84.8583C228.035 84.0369 228.035 83.2106 228.035 82.3842V81.1471C228.04 80.7414 228.01 80.3109 228.099 79.8853C228.258 79.0441 228.718 78.2574 229.381 77.7081C230.043 77.1588 230.904 76.8521 231.765 76.8521C245.088 76.8521 258.099 76.8521 270.665 76.8521C276.947 76.8521 283.116 76.8521 289.162 76.8521C292.185 76.8521 295.173 76.8521 298.131 76.8521C299.61 76.8521 301.08 76.8521 302.539 76.8521C303.271 76.8521 303.998 76.8521 304.726 76.8521C305.082 76.8521 305.463 76.852 305.834 76.9263C306.2 77.0054 306.556 77.1292 306.883 77.3023C307.536 77.6636 308.08 78.2128 308.411 78.8759C308.589 79.2025 308.693 79.5637 308.763 79.9249C308.837 80.2911 308.817 80.6622 308.822 81.0135C308.822 82.4386 308.822 83.8538 308.822 85.2641C308.822 88.0796 308.822 90.8556 308.822 93.587C308.822 99.0598 308.822 104.369 308.817 109.506C308.812 119.778 308.807 129.343 308.802 138.082C308.787 155.549 308.772 169.686 308.763 179.459C308.763 181.904 308.753 184.071 308.753 185.951C308.753 186.891 308.753 187.757 308.748 188.554C308.748 188.95 308.748 189.336 308.673 189.692C308.594 190.043 308.485 190.375 308.332 190.657C307.709 191.815 306.729 192.285 306.111 192.458C305.794 192.547 305.542 192.572 305.374 192.577C305.206 192.582 305.121 192.582 305.121 192.582L305.087 192.597Z" fill="#263238"/>
<path d="M305.087 192.597C305.087 192.597 305.171 192.592 305.339 192.582C305.423 192.582 305.527 192.567 305.646 192.542C305.77 192.527 305.908 192.493 306.067 192.448C306.378 192.354 306.764 192.201 307.16 191.919C307.551 191.637 307.961 191.221 308.258 190.652C308.407 190.37 308.515 190.043 308.595 189.697C308.664 189.346 308.664 188.97 308.659 188.569C308.659 187.777 308.659 186.906 308.659 185.966C308.659 184.086 308.659 181.913 308.654 179.474C308.649 169.701 308.639 155.564 308.629 138.097C308.629 129.363 308.624 119.793 308.619 109.52C308.619 104.384 308.619 99.0746 308.619 93.6018C308.619 90.8654 308.619 88.0894 308.619 85.2788C308.619 83.8735 308.619 82.4583 308.619 81.0283C308.619 80.672 308.634 80.3157 308.565 79.9743C308.501 79.6329 308.402 79.2914 308.233 78.9797C307.917 78.3513 307.397 77.8317 306.779 77.4853C306.467 77.322 306.131 77.1983 305.785 77.1291C305.433 77.0598 305.082 77.0598 304.716 77.0598C303.989 77.0598 303.262 77.0598 302.529 77.0598C301.07 77.0598 299.601 77.0598 298.121 77.0598C295.163 77.0598 292.175 77.0598 289.152 77.0598C283.107 77.0598 276.938 77.0598 270.655 77.0598C258.089 77.0598 245.078 77.0598 231.755 77.0598C230.939 77.0598 230.133 77.3468 229.504 77.8663C228.881 78.3859 228.446 79.1232 228.297 79.9199C228.213 80.3157 228.238 80.7264 228.233 81.1421V82.3792C228.233 83.2055 228.233 84.0269 228.233 84.8533C228.233 88.1439 228.233 91.4147 228.233 94.6607C228.233 101.153 228.233 107.551 228.233 113.835C228.233 126.404 228.233 138.532 228.233 150.081C228.233 161.63 228.228 172.611 228.228 182.878C228.228 184.16 228.228 185.436 228.228 186.698C228.228 187.327 228.228 187.955 228.228 188.584C228.228 188.895 228.218 189.207 228.268 189.509C228.302 189.811 228.401 190.103 228.515 190.385C228.995 191.503 230.073 192.334 231.266 192.483C231.558 192.527 231.859 192.522 232.166 192.522C232.468 192.522 232.77 192.522 233.071 192.522C233.675 192.522 234.274 192.522 234.867 192.522C239.636 192.522 244.207 192.522 248.576 192.527C266.039 192.537 280.173 192.547 289.944 192.552C294.827 192.557 298.616 192.562 301.189 192.567C302.475 192.567 303.454 192.572 304.112 192.577C304.77 192.577 305.107 192.587 305.107 192.587C305.107 192.587 304.77 192.592 304.112 192.597C303.454 192.597 302.47 192.597 301.189 192.606C298.616 192.606 294.827 192.616 289.944 192.621C280.173 192.626 266.039 192.636 248.576 192.646C244.207 192.646 239.636 192.646 234.867 192.651C234.274 192.651 233.67 192.651 233.071 192.651C232.77 192.651 232.468 192.651 232.166 192.651C231.864 192.651 231.558 192.656 231.251 192.611C230.019 192.458 228.896 191.602 228.401 190.439C228.287 190.147 228.184 189.845 228.144 189.529C228.095 189.217 228.099 188.895 228.099 188.584C228.099 187.96 228.099 187.332 228.099 186.698C228.099 185.436 228.099 184.165 228.099 182.878C228.099 172.606 228.099 161.63 228.09 150.081C228.09 138.532 228.09 126.404 228.09 113.835C228.09 107.551 228.09 101.153 228.09 94.6607C228.09 91.4147 228.09 88.1439 228.09 84.8533C228.09 84.0319 228.09 83.2055 228.09 82.3792V81.1421C228.095 80.7314 228.065 80.3108 228.154 79.8902C228.312 79.0589 228.767 78.2869 229.42 77.7426C230.073 77.1983 230.924 76.9014 231.775 76.8965C245.098 76.8965 258.109 76.8965 270.675 76.8965C276.958 76.8965 283.127 76.8965 289.172 76.8965C292.195 76.8965 295.183 76.8965 298.141 76.8965C299.62 76.8965 301.09 76.8965 302.549 76.8965C303.281 76.8965 304.009 76.8965 304.736 76.8965C305.097 76.8965 305.468 76.8965 305.834 76.9658C306.195 77.04 306.546 77.1686 306.873 77.3418C307.516 77.6981 308.055 78.2424 308.387 78.8956C308.56 79.2172 308.664 79.5735 308.733 79.9298C308.807 80.291 308.788 80.6572 308.792 81.0085C308.792 82.4336 308.792 83.8488 308.792 85.259C308.792 88.0746 308.792 90.8506 308.792 93.582C308.792 99.0548 308.792 104.364 308.792 109.501C308.792 119.773 308.788 129.338 308.783 138.077C308.773 155.544 308.763 169.686 308.758 179.454C308.758 181.898 308.753 184.066 308.753 185.946C308.753 186.886 308.753 187.752 308.753 188.549C308.753 188.945 308.753 189.326 308.684 189.682C308.604 190.033 308.496 190.36 308.342 190.647C308.041 191.221 307.625 191.632 307.229 191.919C306.828 192.206 306.438 192.354 306.126 192.448C305.968 192.493 305.824 192.527 305.701 192.537C305.577 192.557 305.473 192.572 305.389 192.572C305.221 192.577 305.137 192.582 305.137 192.582L305.087 192.597Z" fill="#263238"/>
<path d="M271.506 186.787C271.506 188.494 270.121 189.88 268.414 189.88C266.707 189.88 265.322 188.494 265.322 186.787C265.322 185.08 266.707 183.694 268.414 183.694C270.121 183.694 271.506 185.08 271.506 186.787Z" fill="white"/>
<path d="M278.476 82.5475H262.027C261.394 82.5475 260.879 82.0328 260.879 81.3995C260.879 80.7661 261.394 80.2515 262.027 80.2515H278.476C279.11 80.2515 279.624 80.7661 279.624 81.3995C279.624 82.0328 279.11 82.5475 278.476 82.5475Z" fill="#EBEBEB"/>
<path d="M304.874 85.2344H231.815C231.151 85.2344 230.613 85.7727 230.613 86.4368V180.582C230.613 181.246 231.151 181.785 231.815 181.785H304.874C305.538 181.785 306.076 181.246 306.076 180.582V86.4368C306.076 85.7727 305.538 85.2344 304.874 85.2344Z" fill="white"/>
<path d="M304.869 181.785C304.869 181.785 304.944 181.785 305.087 181.755C305.231 181.725 305.448 181.656 305.661 181.463C305.874 181.275 306.072 180.934 306.047 180.498C306.047 180.063 306.047 179.563 306.042 178.994C306.037 176.713 306.027 173.353 306.017 169.028C306.007 160.374 305.992 147.85 305.978 132.381C305.978 124.647 305.968 116.171 305.963 107.076C305.963 102.528 305.963 97.8227 305.958 92.9783C305.958 91.766 305.958 90.5487 305.958 89.3166C305.958 88.7031 305.958 88.0845 305.958 87.466V86.5357C305.973 86.2339 305.893 85.9617 305.71 85.739C305.532 85.5213 305.265 85.3778 304.983 85.3481C304.696 85.3382 304.365 85.3481 304.058 85.3432C303.43 85.3432 302.801 85.3432 302.173 85.3432C300.912 85.3432 299.64 85.3432 298.364 85.3432C277.912 85.3432 255.428 85.3481 231.83 85.3531C231.498 85.3531 231.172 85.5065 230.974 85.7687C230.875 85.8974 230.801 86.0508 230.771 86.2141C230.741 86.3675 230.751 86.5506 230.751 86.7386C230.751 87.4759 230.751 88.2082 230.751 88.9406C230.751 90.4052 230.751 91.8699 230.751 93.3297C230.751 96.2442 230.751 99.1389 230.751 102.014C230.751 107.764 230.751 113.429 230.751 118.996C230.751 130.13 230.746 140.868 230.741 151.096C230.741 161.324 230.731 171.047 230.731 180.142V180.567C230.731 180.696 230.756 180.825 230.801 180.948C230.89 181.191 231.068 181.399 231.29 181.522C231.523 181.656 231.765 181.676 232.057 181.666H232.898C234.016 181.666 235.124 181.666 236.218 181.666C238.414 181.666 240.566 181.666 242.674 181.666C246.894 181.666 250.945 181.671 254.814 181.676C270.279 181.691 282.795 181.705 291.448 181.715C295.772 181.725 299.126 181.735 301.406 181.74C302.544 181.745 303.41 181.75 303.999 181.755C304.582 181.755 304.879 181.77 304.879 181.77C304.879 181.77 304.582 181.78 303.999 181.785C303.41 181.785 302.544 181.79 301.406 181.8C299.126 181.804 295.767 181.814 291.448 181.824C282.795 181.834 270.279 181.849 254.814 181.864C250.945 181.864 246.894 181.869 242.674 181.874C240.561 181.874 238.409 181.874 236.218 181.874C235.119 181.874 234.011 181.874 232.898 181.874H232.057C231.79 181.889 231.449 181.864 231.186 181.705C230.919 181.557 230.707 181.31 230.603 181.018C230.548 180.874 230.524 180.721 230.519 180.562V180.137C230.519 171.037 230.509 161.319 230.509 151.091C230.509 140.863 230.509 130.125 230.499 118.991C230.499 113.425 230.499 107.759 230.499 102.009C230.499 99.134 230.499 96.2392 230.499 93.3247C230.499 91.865 230.499 90.4052 230.499 88.9356V86.7336C230.499 86.5555 230.484 86.3675 230.524 86.1596C230.563 85.9617 230.652 85.7687 230.776 85.6104C231.023 85.2838 231.429 85.0908 231.835 85.0908C255.432 85.0908 277.917 85.0958 298.369 85.1007C299.645 85.1007 300.917 85.1007 302.178 85.1007C302.811 85.1007 303.44 85.1007 304.063 85.1007C304.38 85.1007 304.676 85.0958 305.013 85.1057C305.354 85.1403 305.676 85.3135 305.893 85.5807C306.116 85.838 306.215 86.2042 306.195 86.5258V87.4561C306.195 88.0746 306.195 88.6932 306.195 89.3067C306.195 90.5339 306.195 91.7561 306.195 92.9684C306.195 97.8128 306.195 102.519 306.19 107.066C306.185 116.161 306.18 124.637 306.175 132.371C306.161 147.84 306.146 160.359 306.136 169.018C306.126 173.343 306.116 176.703 306.111 178.984C306.111 179.553 306.111 180.053 306.106 180.488C306.126 180.934 305.918 181.28 305.696 181.473C305.473 181.671 305.25 181.735 305.102 181.76C304.953 181.785 304.879 181.775 304.879 181.775L304.869 181.785Z" fill="#263238"/>
<path d="M305.765 98.9849H231.063V126.339H305.765V98.9849Z" fill="#F5F5F5"/>
<path d="M250.406 89.7271H232.725V94.3537H250.406V89.7271Z" fill="#F5F5F5"/>
<path d="M304.29 89.7271H288.45V94.3537H304.29V89.7271Z" fill="#F5F5F5"/>
<path d="M285.437 89.7271H269.596V94.3537H285.437V89.7271Z" fill="#F5F5F5"/>
<path d="M299.482 140.432H235.703V145.281H299.482V140.432Z" fill="#F5F5F5"/>
<path d="M299.482 131.258H235.703V136.107H299.482V131.258Z" fill="#F5F5F5"/>
<path d="M299.482 159.21H235.703V164.06H299.482V159.21Z" fill="#F5F5F5"/>
<path d="M299.482 150.036H235.703V154.885H299.482V150.036Z" fill="#F5F5F5"/>
<path d="M253.943 123.064L258.233 118.773L265.713 125.592L278.902 112.42L282.884 116.71L265.099 133.871L253.943 123.064Z" fill="#FF725E"/>
<path d="M329.377 192.735L298.176 192.716C294.421 192.716 291.383 189.677 291.383 185.936L291.398 107.917C291.398 104.171 294.446 101.138 298.2 101.138L329.402 101.158C333.157 101.158 336.195 104.196 336.195 107.937L336.18 185.956C336.18 189.702 333.132 192.735 329.377 192.735Z" fill="#263238"/>
<path d="M329.595 103.484L323.525 103.454C322.708 103.454 322.046 104.137 322.046 104.988V106.092C322.036 106.943 321.373 107.631 320.561 107.626L308.728 107.571C307.912 107.571 307.259 106.873 307.259 106.022V104.919C307.268 104.068 306.61 103.375 305.794 103.37L303.657 103.36L298.344 103.335C295.707 103.326 293.555 105.453 293.545 108.091L293.223 184.729C293.214 187.367 295.341 189.514 297.978 189.529L329.229 189.673C331.866 189.683 334.018 187.555 334.028 184.917L334.349 108.279C334.359 105.641 332.232 103.494 329.595 103.479V103.484Z" fill="white"/>
<path d="M334.122 117.126H293.456V132.015H334.122V117.126Z" fill="#F5F5F5"/>
<path d="M303.984 112.089H294.361V114.608H303.984V112.089Z" fill="#F5F5F5"/>
<path d="M333.315 112.089H324.692V114.608H333.315V112.089Z" fill="#F5F5F5"/>
<path d="M323.055 112.089H314.432V114.608H323.055V112.089Z" fill="#F5F5F5"/>
<path d="M330.703 139.685H295.984V142.322H330.703V139.685Z" fill="#F5F5F5"/>
<path d="M330.703 134.692H295.984V137.33H330.703V134.692Z" fill="#F5F5F5"/>
<path d="M330.703 149.908H295.984V152.546H330.703V149.908Z" fill="#F5F5F5"/>
<path d="M330.703 154.58H295.984V157.217H330.703V154.58Z" fill="#F5F5F5"/>
<path d="M330.703 159.913H295.984V162.55H330.703V159.913Z" fill="#F5F5F5"/>
<path d="M330.703 165.252H295.984V167.89H330.703V165.252Z" fill="#F5F5F5"/>
<path d="M330.703 170.587H295.984V173.224H330.703V170.587Z" fill="#F5F5F5"/>
<path d="M330.703 144.916H295.984V147.553H330.703V144.916Z" fill="#F5F5F5"/>
<path d="M302.777 149.626L306.136 146.266L312.612 152.021L325.321 139.789L328.437 143.149L312.132 158.498L302.777 149.626Z" fill="#FF725E"/>
<path d="M137.596 101.232H16.876C12.8951 101.232 9.66797 104.46 9.66797 108.442V183.408C9.66797 187.39 12.8951 190.618 16.876 190.618H137.596C141.577 190.618 144.804 187.39 144.804 183.408V108.442C144.804 104.46 141.577 101.232 137.596 101.232Z" fill="#263238"/>
<path d="M4.38428 184.843H150.795V185.189C150.795 189.311 147.446 192.661 143.325 192.661H11.8545C7.7335 192.661 4.38428 189.311 4.38428 185.189V184.843Z" fill="#263238"/>
<path d="M140.797 104.781H13.2942V180.266H140.797V104.781Z" fill="#263238"/>
<path d="M63.9136 184.002L65.7292 186.897H91.2961L92.983 184.002H63.9136Z" fill="#455A64"/>
<path d="M17.5389 107.338H136.815C137.71 107.338 138.432 108.066 138.432 108.956V178.405C138.432 179.301 137.705 180.023 136.815 180.023H17.5389C16.6434 180.023 15.9211 179.296 15.9211 178.405V108.956C15.9211 108.061 16.6484 107.338 17.5389 107.338Z" fill="#EBEBEB"/>
<path d="M138.304 180.133H15.7876L15.9212 112.772H138.304V180.133Z" fill="white"/>
<path d="M25.9688 110.144C25.9688 110.684 25.5285 111.124 24.9893 111.124C24.4501 111.124 24.0098 110.684 24.0098 110.144C24.0098 109.605 24.4501 109.165 24.9893 109.165C25.5285 109.165 25.9688 109.605 25.9688 110.144Z" fill="#263238"/>
<path d="M20.0372 110.144C20.0372 110.684 19.5969 111.124 19.0577 111.124C18.5184 111.124 18.0781 110.684 18.0781 110.144C18.0781 109.605 18.5184 109.165 19.0577 109.165C19.5969 109.165 20.0372 109.605 20.0372 110.144Z" fill="#263238"/>
<path d="M22.8866 110.144C22.8866 110.684 22.4463 111.124 21.907 111.124C21.3678 111.124 20.9275 110.684 20.9275 110.144C20.9275 109.605 21.3678 109.165 21.907 109.165C22.4463 109.165 22.8866 109.605 22.8866 110.144Z" fill="#263238"/>
<path d="M143.642 184.002C143.642 184.052 113.647 184.091 76.6574 184.091C39.6675 184.091 9.66797 184.052 9.66797 184.002C9.66797 183.953 39.6576 183.913 76.6574 183.913C113.657 183.913 143.642 183.953 143.642 184.002Z" fill="#455A64"/>
<path d="M138.432 123.628H15.9211V150.982H138.432V123.628Z" fill="#F5F5F5"/>
<path d="M36.6101 116.423H18.929V121.05H36.6101V116.423Z" fill="#F5F5F5"/>
<path d="M135.528 116.423H125.847V121.05H135.528V116.423Z" fill="#F5F5F5"/>
<path d="M122.933 116.423H107.092V121.05H122.933V116.423Z" fill="#F5F5F5"/>
<path d="M103.798 116.423H87.9568V121.05H103.798V116.423Z" fill="#F5F5F5"/>
<path d="M129.884 167.124H21.907V171.973H129.884V167.124Z" fill="#F5F5F5"/>
<path d="M129.884 157.954H21.907V162.803H129.884V157.954Z" fill="#F5F5F5"/>
<path d="M61.6477 141.828L65.9369 137.538L74.2135 144.896L90.455 129.259L94.4374 133.554L73.6 153.169L61.6477 141.828Z" fill="#FF725E"/>
<path d="M111.807 83.9729C130.853 83.9729 146.294 68.5293 146.294 49.4787C146.294 30.428 130.853 14.9844 111.807 14.9844C92.7605 14.9844 77.3203 30.428 77.3203 49.4787C77.3203 68.5293 92.7605 83.9729 111.807 83.9729Z" fill="#FF725E"/>
<path opacity="0.3" d="M111.807 83.9729C130.853 83.9729 146.294 68.5293 146.294 49.4787C146.294 30.428 130.853 14.9844 111.807 14.9844C92.7605 14.9844 77.3203 30.428 77.3203 49.4787C77.3203 68.5293 92.7605 83.9729 111.807 83.9729Z" fill="black"/>
<path d="M110.882 81.7659C129.928 81.7659 145.368 66.3223 145.368 47.2716C145.368 28.221 129.928 12.7773 110.882 12.7773C91.8354 12.7773 76.3953 28.221 76.3953 47.2716C76.3953 66.3223 91.8354 81.7659 110.882 81.7659Z" fill="#FF725E"/>
<path d="M121.332 71.9967C134.979 66.225 141.365 50.4805 135.594 36.8304C129.824 23.1802 114.083 16.7934 100.436 22.5651C86.7885 28.3368 80.4032 44.0813 86.1735 57.7314C91.9439 71.3816 107.685 77.7684 121.332 71.9967Z" fill="white"/>
<path d="M124.23 60.6225C131.603 53.2484 131.603 41.2926 124.23 33.9185C116.858 26.5444 104.905 26.5444 97.5321 33.9185C90.1597 41.2926 90.1597 53.2484 97.5321 60.6225C104.905 67.9966 116.858 67.9966 124.23 60.6225Z" fill="#FF725E"/>
<path d="M114.841 56.4106C119.888 54.2223 122.205 48.3567 120.017 43.3094C117.829 38.2622 111.965 35.9446 106.919 38.1329C101.872 40.3212 99.5553 46.1868 101.743 51.2341C103.931 56.2813 109.795 58.5989 114.841 56.4106Z" fill="white"/>
<path d="M137.562 19.3338L136.627 11.9708L144.117 3.95459L144.656 11.8965L137.562 19.3338Z" fill="#455A64"/>
<path d="M153.64 13.475L146.041 12.8564L138.423 20.1848L146.041 21.0013L153.64 13.475Z" fill="#455A64"/>
<path opacity="0.3" d="M110.882 47.8509L139.194 27.568C138.299 26.2271 136.864 24.4704 135.598 23.1245L111.342 46.5792L110.877 47.8509H110.882Z" fill="black"/>
<path d="M145.779 10.3629C144.597 11.5653 143.409 12.7628 142.227 13.9653C139.382 16.8501 136.538 19.73 133.693 22.6148C130.265 26.0885 126.841 29.5572 123.413 33.0309C120.435 36.0493 117.462 39.0628 114.483 42.0812C113.039 43.5459 111.525 44.971 110.135 46.4852C110.115 46.505 110.095 46.5297 110.071 46.5495C109.23 47.4006 110.541 48.7119 111.382 47.8608C112.564 46.6584 113.751 45.4609 114.934 44.2585C117.778 41.3736 120.623 38.4937 123.467 35.6089C126.896 32.1352 130.319 28.6665 133.748 25.1928C136.726 22.1744 139.699 19.1609 142.677 16.1425C144.122 14.6778 145.636 13.2527 147.026 11.7385C147.046 11.7187 147.065 11.694 147.09 11.6742C147.931 10.8231 146.62 9.51182 145.779 10.3629Z" fill="#263238"/>
<path d="M206.99 100.257C205.823 100.336 204.67 99.4259 204.477 98.268C204.284 97.1151 205.071 95.878 206.199 95.5663C205.511 94.7894 205.387 93.5672 205.907 92.6716C206.426 91.7759 207.549 91.2712 208.563 91.484C208.653 90.4646 209.311 89.5146 210.231 89.0692C211.151 88.6239 212.304 88.6981 213.154 89.2622C214.327 88.3468 216.147 88.4012 217.27 89.376C218.27 89.2424 219.329 89.8214 219.749 90.7368C220.17 91.6522 219.927 92.8349 219.175 93.5078" fill="#263238"/>
<path d="M206.629 100.573C207.297 95.3333 211.878 91.4885 217.152 91.7359L217.676 91.7606C223.311 92.3544 225.958 97.4759 225.206 103.092L223.509 121.876L223.064 126.304L210.255 124.79L210.498 119.995C210.498 119.995 205.105 118.897 205.293 113.459C205.382 110.831 206.011 105.443 206.634 100.569L206.629 100.573Z" fill="#99655C"/>
<path d="M210.453 119.986C210.453 119.986 213.911 120.357 217.666 118.234C217.666 118.234 215.811 122.064 210.414 121.322L210.453 119.986Z" fill="#744A45"/>
<path d="M207.821 105.582C207.787 105.992 208.108 106.358 208.534 106.398C208.959 106.443 209.33 106.146 209.365 105.735C209.399 105.324 209.078 104.958 208.652 104.918C208.227 104.874 207.851 105.171 207.821 105.582Z" fill="#263238"/>
<path d="M207.673 103.285C207.762 103.389 208.37 102.983 209.207 103.023C210.043 103.053 210.631 103.513 210.73 103.414C210.775 103.369 210.686 103.181 210.429 102.979C210.176 102.771 209.736 102.563 209.216 102.543C208.697 102.523 208.252 102.692 207.99 102.875C207.722 103.058 207.628 103.241 207.673 103.285Z" fill="#263238"/>
<path d="M215.425 105.963C215.391 106.374 215.712 106.74 216.138 106.779C216.563 106.824 216.934 106.527 216.969 106.116C217.003 105.706 216.682 105.339 216.256 105.3C215.831 105.255 215.455 105.552 215.425 105.963Z" fill="#263238"/>
<path d="M215.87 103.825C215.959 103.929 216.573 103.523 217.404 103.563C218.24 103.592 218.829 104.048 218.928 103.954C218.972 103.909 218.888 103.721 218.626 103.518C218.373 103.31 217.933 103.102 217.414 103.083C216.894 103.063 216.449 103.231 216.187 103.414C215.92 103.597 215.826 103.78 215.87 103.825Z" fill="#263238"/>
<path d="M212.551 109.877C212.556 109.827 212.041 109.713 211.205 109.57C210.993 109.54 210.795 109.486 210.765 109.337C210.721 109.179 210.819 108.956 210.938 108.714C211.161 108.209 211.398 107.675 211.646 107.12C212.63 104.849 213.352 102.979 213.258 102.939C213.164 102.9 212.294 104.711 211.314 106.982C211.077 107.541 210.849 108.075 210.636 108.585C210.542 108.823 210.394 109.09 210.488 109.416C210.537 109.58 210.691 109.703 210.824 109.743C210.958 109.792 211.077 109.797 211.186 109.812C212.032 109.896 212.556 109.926 212.561 109.877H212.551Z" fill="#263238"/>
<path d="M215.692 101.187C215.791 101.405 216.519 101.207 217.399 101.222C218.28 101.217 219.017 101.415 219.106 101.197C219.146 101.093 218.997 100.895 218.69 100.712C218.384 100.529 217.909 100.376 217.384 100.371C216.855 100.371 216.39 100.519 216.093 100.702C215.791 100.885 215.653 101.083 215.697 101.182L215.692 101.187Z" fill="#263238"/>
<path d="M207.792 99.8414C207.96 100.039 208.657 99.876 209.484 99.9057C210.315 99.9107 211.007 100.104 211.18 99.9156C211.255 99.8216 211.156 99.6286 210.854 99.4356C210.562 99.2426 210.062 99.0744 209.493 99.0595C208.924 99.0497 208.42 99.1981 208.123 99.3762C207.821 99.5593 207.717 99.7474 207.792 99.8463V99.8414Z" fill="#263238"/>
<path d="M207.267 98.1091C207.267 98.1091 208.86 94.774 210.537 94.0565C212.566 93.1905 213.323 95.4074 215.237 94.967C217.157 94.5266 219.091 93.6903 220.956 95.2441C222.999 96.9463 221.955 98.02 221.97 100.44C222.044 110.237 223.697 113.083 224.424 108.505C224.503 108.006 225.923 107.669 226.23 105.546C226.625 102.795 226.893 99.4451 226.363 97.4559C225.923 95.7785 225.033 94.5909 223.4 93.2549C220.827 91.142 217.167 90.9292 214.663 91.0628C212.165 91.1964 207.233 93.8338 207.262 98.1091H207.267Z" fill="#263238"/>
<path d="M224.082 108.342C224.157 107.506 224.909 106.878 225.74 106.996C226.749 107.14 227.847 107.768 227.684 109.856C227.392 113.563 223.731 112.509 223.731 112.4C223.731 112.326 223.944 109.891 224.082 108.342Z" fill="#99655C"/>
<path d="M224.651 111.069C224.651 111.069 224.711 111.119 224.82 111.178C224.924 111.237 225.102 111.282 225.3 111.227C225.7 111.114 226.081 110.52 226.15 109.852C226.185 109.515 226.141 109.189 226.042 108.912C225.948 108.63 225.789 108.427 225.596 108.377C225.403 108.318 225.255 108.422 225.201 108.526C225.141 108.625 225.161 108.699 225.141 108.704C225.131 108.714 225.067 108.635 225.107 108.486C225.126 108.412 225.176 108.328 225.27 108.263C225.364 108.199 225.497 108.169 225.636 108.199C225.918 108.244 226.155 108.526 226.264 108.827C226.388 109.134 226.447 109.5 226.408 109.877C226.324 110.624 225.888 111.292 225.339 111.406C225.072 111.455 224.859 111.356 224.755 111.262C224.647 111.163 224.637 111.079 224.647 111.069H224.651Z" fill="#744A45"/>
<path d="M224.35 101.143C223.85 101.45 223.326 101.766 222.742 101.796C222.158 101.826 221.51 101.459 221.436 100.881C221.406 100.618 221.48 100.321 221.322 100.114C221.129 99.8661 220.753 99.9206 220.441 99.9403C219.358 100.005 218.284 99.1882 218.062 98.1243C217.765 98.5251 217.127 98.4757 216.721 98.1887C216.315 97.9017 216.068 97.4464 215.761 97.0605C215.455 96.6695 215.009 96.3182 214.515 96.3628C214.238 96.3875 213.975 96.5409 213.698 96.5013C213.214 96.437 213.001 95.8531 212.951 95.3632C212.902 94.8733 212.867 94.3092 212.467 94.0272C212.096 93.7649 211.591 93.8837 211.141 93.9282C210.691 93.9727 210.112 93.8391 210.018 93.3988C209.968 93.1662 210.077 92.9287 210.216 92.7307C210.834 91.845 212.115 91.5036 213.095 91.9539C213.515 90.7415 214.708 89.841 215.989 89.7667C217.27 89.6925 218.557 90.4496 219.116 91.6025C219.932 90.9246 221.089 90.6822 222.109 90.9642C223.133 91.2463 223.993 92.0528 224.345 93.0573C225.26 92.8643 226.274 93.2602 226.808 94.0222C227.348 94.7892 227.377 95.8778 226.883 96.6695C227.531 97.0803 228.075 97.773 228.05 98.54C228.03 99.3119 227.244 100.039 226.512 99.8018C226.784 100.415 226.502 101.217 225.908 101.524C225.314 101.831 224.498 101.598 224.157 101.019" fill="#263238"/>
<path d="M212.774 93.0374C212.774 93.0374 212.774 93.0621 212.774 93.1066C212.774 93.1512 212.774 93.2204 212.788 93.3046C212.813 93.4778 212.873 93.7351 213.026 94.032C213.179 94.3239 213.427 94.6703 213.808 94.9474C214.184 95.2294 214.708 95.4571 215.307 95.4521L215.247 95.368C215.119 95.6797 215.128 96.0607 215.272 96.3972C215.405 96.7387 215.628 97.0405 215.866 97.3423C215.989 97.4858 216.088 97.6541 216.261 97.7877C216.43 97.9163 216.632 97.9955 216.84 98.0351C217.256 98.1093 217.736 98.0005 218.057 97.664L217.919 97.6194C217.978 98.3617 218.364 99.1188 219.012 99.6037C219.353 99.8758 219.784 100.054 220.214 100.059C220.644 100.074 221.05 99.9649 221.426 99.8511L221.327 99.8016C221.505 100.272 221.792 100.682 222.153 100.989C222.505 101.296 222.985 101.489 223.43 101.4C224.315 101.256 224.929 100.554 225.077 99.8709L224.993 99.9055C225.418 100.163 225.884 100.207 226.26 100.153C226.64 100.103 226.947 99.9501 227.17 99.7967C227.392 99.6383 227.526 99.475 227.605 99.3612C227.679 99.2425 227.714 99.1732 227.709 99.1732C227.689 99.1583 227.571 99.4503 227.135 99.7422C226.917 99.8808 226.621 100.019 226.25 100.059C225.888 100.103 225.448 100.049 225.052 99.8066L224.983 99.762L224.963 99.8412C224.815 100.475 224.226 101.133 223.405 101.256C222.999 101.331 222.579 101.157 222.247 100.87C221.911 100.578 221.639 100.188 221.471 99.7422L221.446 99.673L221.377 99.6928C221.006 99.8066 220.615 99.9055 220.214 99.8907C219.818 99.8808 219.432 99.7224 219.106 99.4651C218.497 99.0099 218.136 98.3023 218.072 97.5947L218.057 97.4166L217.933 97.5452C217.661 97.8372 217.236 97.9411 216.86 97.8718C216.672 97.8421 216.494 97.7679 216.345 97.659C216.202 97.5502 216.093 97.3869 215.974 97.2434C215.737 96.9514 215.524 96.6545 215.396 96.3378C215.257 96.0261 215.247 95.6896 215.356 95.4076L215.391 95.3185H215.297C214.728 95.3333 214.223 95.1255 213.857 94.8583C213.481 94.5961 213.239 94.2695 213.075 93.9874C212.764 93.4085 212.793 93.0176 212.764 93.0225L212.774 93.0374Z" fill="#455A64"/>
<path d="M211.601 112.613C211.586 112.647 211.794 112.776 212.17 112.86C212.546 112.944 213.09 112.954 213.659 112.791C214.228 112.623 214.678 112.311 214.95 112.039C215.222 111.766 215.321 111.544 215.291 111.524C215.222 111.46 214.628 112.187 213.57 112.489C212.521 112.816 211.626 112.524 211.601 112.618V112.613Z" fill="#263238"/>
<path d="M199.357 173.417L232.255 173.868C232.255 173.868 241.457 170.018 243.985 169.914C246.513 169.81 251.529 170.132 253.85 173.868C256.249 177.727 256.585 184.541 249.189 189.494C241.991 194.314 209.073 198.772 204.556 198.361L196.24 187.193C196.24 187.193 196.151 178.039 196.24 177.604C196.329 177.168 197.719 173.244 197.719 173.244L199.357 173.417Z" fill="#263238"/>
<path d="M217.621 188.212L237.262 195.511L228.312 220C226.027 219 225.962 204.616 225.962 204.616L213.184 200.459L217.621 188.217V188.212Z" fill="#FF725E"/>
<g opacity="0.6">
<path d="M227.664 196.654C227.966 196.228 228.619 196.094 229.059 196.381C229.5 196.668 229.638 197.327 229.341 197.762C229.044 198.192 228.268 198.376 227.862 198.044C227.456 197.713 227.338 196.926 227.724 196.574" fill="white"/>
</g>
<path d="M237.262 195.511L235.278 194.773L227.422 218.575C227.422 218.575 227.496 219.836 228.312 219.995L237.262 195.506V195.511Z" fill="#263238"/>
<path d="M225.69 204.967C225.809 205.007 226.086 204.428 226.685 203.982C227.273 203.517 227.902 203.403 227.892 203.28C227.907 203.161 227.13 203.077 226.413 203.631C225.69 204.18 225.572 204.952 225.69 204.967Z" fill="#263238"/>
<path d="M225.814 207.921C225.918 207.991 226.314 207.545 226.967 207.327C227.615 207.085 228.198 207.184 228.238 207.065C228.297 206.961 227.63 206.62 226.818 206.912C226.007 207.194 225.7 207.882 225.814 207.926V207.921Z" fill="#263238"/>
<path d="M228.352 210.504C228.416 210.406 227.882 210.02 227.115 210.089C226.348 210.153 225.883 210.618 225.963 210.707C226.037 210.811 226.522 210.574 227.15 210.529C227.778 210.47 228.298 210.618 228.352 210.504Z" fill="#263238"/>
<path d="M222.885 203.695C223.014 203.685 223.049 203.077 223.341 202.419C223.623 201.755 224.038 201.31 223.959 201.211C223.9 201.112 223.266 201.464 222.935 202.245C222.594 203.022 222.772 203.725 222.885 203.7V203.695Z" fill="#263238"/>
<path d="M220.189 202.047C220.239 202.067 220.486 201.622 220.629 200.82C220.704 200.419 220.738 199.934 220.704 199.395C220.684 199.123 220.649 198.841 220.59 198.554C220.56 198.415 220.535 198.252 220.436 198.079C220.362 197.901 220.07 197.708 219.823 197.792C219.59 197.846 219.427 198.039 219.358 198.217C219.284 198.395 219.269 198.554 219.254 198.702C219.219 198.999 219.219 199.286 219.234 199.558C219.274 200.103 219.407 200.583 219.561 200.959C219.877 201.721 220.253 202.077 220.293 202.042C220.352 202.003 220.08 201.587 219.858 200.85C219.749 200.484 219.66 200.033 219.64 199.529C219.635 199.276 219.64 199.014 219.68 198.747C219.704 198.465 219.783 198.242 219.927 198.217C219.981 198.207 219.996 198.217 220.056 198.297C220.105 198.376 220.135 198.509 220.164 198.648C220.229 198.915 220.268 199.177 220.298 199.43C220.352 199.934 220.347 200.395 220.318 200.781C220.258 201.552 220.12 202.028 220.184 202.047H220.189Z" fill="#263238"/>
<path d="M220.422 201.958C220.456 201.924 220.115 201.528 219.358 201.201C218.982 201.043 218.502 200.909 217.953 200.88C217.681 200.865 217.389 200.88 217.092 200.919C216.795 200.974 216.41 201.033 216.187 201.473C216.088 201.711 216.207 201.983 216.34 202.112C216.479 202.255 216.612 202.32 216.746 202.404C217.013 202.552 217.3 202.651 217.572 202.706C218.121 202.819 218.631 202.765 219.032 202.646C219.843 202.399 220.164 201.953 220.13 201.929C220.085 201.864 219.699 202.201 218.957 202.344C218.591 202.414 218.136 202.428 217.661 202.31C217.424 202.25 217.186 202.161 216.959 202.028C216.711 201.894 216.538 201.721 216.603 201.632C216.647 201.508 216.919 201.374 217.162 201.35C217.429 201.305 217.686 201.285 217.938 201.29C218.438 201.3 218.883 201.384 219.249 201.498C219.981 201.726 220.382 202.018 220.422 201.958Z" fill="#263238"/>
<path d="M206.782 187.703L189.18 195.867L199.223 217.823C201.261 216.734 200.272 203.448 200.272 203.448L211.764 198.678L206.777 187.698L206.782 187.703Z" fill="#FF725E"/>
<g opacity="0.6">
<path d="M198.12 196.229C197.808 195.858 197.2 195.783 196.814 196.075C196.428 196.372 196.349 196.991 196.651 197.372C196.952 197.748 197.684 197.862 198.036 197.525C198.382 197.189 198.441 196.451 198.056 196.159" fill="white"/>
</g>
<path d="M189.18 195.872L190.956 195.046L199.94 216.447C199.94 216.447 199.96 217.62 199.223 217.823L189.18 195.867V195.872Z" fill="#263238"/>
<path d="M200.549 203.755C200.44 203.8 200.148 203.285 199.56 202.919C198.986 202.533 198.397 202.474 198.392 202.355C198.367 202.246 199.08 202.112 199.782 202.572C200.49 203.028 200.658 203.73 200.549 203.755Z" fill="#263238"/>
<path d="M200.653 206.496C200.559 206.571 200.168 206.189 199.545 206.031C198.931 205.858 198.397 205.987 198.352 205.878C198.288 205.784 198.882 205.423 199.649 205.63C200.415 205.833 200.752 206.442 200.648 206.491L200.653 206.496Z" fill="#263238"/>
<path d="M198.496 209.064C198.427 208.975 198.896 208.584 199.609 208.589C200.321 208.589 200.786 208.99 200.717 209.074C200.658 209.173 200.193 208.995 199.609 208.995C199.025 208.985 198.56 209.163 198.501 209.059L198.496 209.064Z" fill="#263238"/>
<path d="M203.052 202.379C202.934 202.379 202.854 201.82 202.538 201.231C202.231 200.637 201.811 200.261 201.88 200.162C201.929 200.063 202.538 200.345 202.904 201.038C203.275 201.731 203.161 202.389 203.057 202.379H203.052Z" fill="#263238"/>
<path d="M205.417 200.662C205.372 200.682 205.115 200.291 204.917 199.559C204.823 199.198 204.749 198.747 204.744 198.247C204.744 197.995 204.754 197.733 204.788 197.461C204.808 197.332 204.818 197.179 204.897 197.01C204.957 196.842 205.209 196.644 205.446 196.699C205.664 196.733 205.832 196.902 205.906 197.055C205.986 197.213 206.015 197.362 206.04 197.495C206.094 197.767 206.114 198.035 206.119 198.287C206.119 198.792 206.035 199.247 205.916 199.603C205.679 200.331 205.357 200.687 205.318 200.657C205.258 200.623 205.481 200.222 205.634 199.529C205.709 199.183 205.758 198.762 205.738 198.297C205.728 198.064 205.699 197.822 205.644 197.574C205.6 197.312 205.511 197.114 205.377 197.104C205.328 197.104 205.313 197.104 205.263 197.184C205.224 197.263 205.204 197.386 205.184 197.515C205.145 197.767 205.125 198.015 205.12 198.247C205.105 198.718 205.145 199.143 205.199 199.494C205.313 200.202 205.471 200.633 205.412 200.657L205.417 200.662Z" fill="#263238"/>
<path d="M205.199 200.593C205.165 200.563 205.452 200.172 206.129 199.816C206.466 199.638 206.901 199.484 207.401 199.415C207.653 199.381 207.92 199.371 208.197 199.39C208.474 199.42 208.835 199.445 209.073 199.836C209.182 200.049 209.093 200.306 208.979 200.435C208.865 200.573 208.741 200.647 208.628 200.731C208.39 200.89 208.138 200.999 207.886 201.073C207.386 201.216 206.911 201.206 206.535 201.122C205.768 200.954 205.437 200.563 205.471 200.538C205.511 200.479 205.887 200.756 206.585 200.835C206.926 200.875 207.351 200.855 207.777 200.712C207.99 200.642 208.202 200.538 208.405 200.4C208.623 200.256 208.771 200.083 208.707 200.009C208.657 199.9 208.4 199.796 208.173 199.791C207.925 199.767 207.683 199.771 207.45 199.791C206.99 199.836 206.585 199.95 206.258 200.078C205.6 200.341 205.249 200.642 205.209 200.588L205.199 200.593Z" fill="#263238"/>
<path d="M197.719 173.244C197.719 173.244 183.511 167.939 178.282 168.622C175.358 169.008 170.787 171.235 170.436 174.986C170.089 178.736 170.999 183.749 176.055 186.189C181.111 188.628 201.286 197.683 206.08 199.079C210.874 200.474 222.826 203.74 222.826 203.74L227.367 190.8C227.367 190.8 202.597 182.22 201.291 181.265C199.985 180.305 196.67 178.999 196.67 178.999L197.714 173.244H197.719Z" fill="#263238"/>
<path d="M247.107 175C247.107 175 247.072 174.995 247.008 174.975C246.933 174.956 246.839 174.926 246.721 174.886C246.468 174.812 246.097 174.703 245.618 174.589C245.133 174.476 244.539 174.347 243.837 174.278C243.134 174.208 242.328 174.204 241.447 174.278C240.566 174.357 239.602 174.515 238.602 174.817C238.108 174.97 237.598 175.154 237.103 175.401C236.604 175.643 236.084 175.896 235.555 176.158C233.428 177.172 231.058 178.217 228.53 179.211C223.469 181.24 218.611 182.205 215.143 182.992C213.407 183.378 212.002 183.694 211.032 183.922C210.557 184.036 210.181 184.125 209.919 184.184C209.795 184.214 209.701 184.234 209.627 184.248C209.563 184.263 209.528 184.268 209.528 184.268C209.528 184.268 209.558 184.253 209.627 184.234C209.701 184.214 209.795 184.189 209.914 184.154C210.166 184.085 210.537 183.981 211.022 183.863C211.987 183.615 213.387 183.284 215.123 182.883C218.581 182.066 223.43 181.091 228.476 179.068C230.999 178.068 233.373 177.034 235.496 176.029C236.025 175.772 236.54 175.525 237.044 175.282C237.549 175.035 238.063 174.847 238.568 174.698C239.577 174.397 240.547 174.243 241.437 174.169C242.328 174.1 243.139 174.11 243.846 174.189C244.554 174.268 245.148 174.401 245.632 174.525C246.117 174.649 246.483 174.768 246.731 174.852C246.849 174.896 246.938 174.926 247.013 174.951C247.077 174.975 247.107 174.99 247.107 174.99V175Z" fill="#455A64"/>
<path d="M246.359 173.13C246.359 173.13 245.929 173.076 245.232 173.001C244.534 172.927 243.569 172.868 242.506 172.922C241.442 172.977 240.487 173.135 239.8 173.279C239.117 173.422 238.696 173.546 238.691 173.521C238.691 173.511 238.79 173.471 238.973 173.407C239.161 173.343 239.433 173.259 239.775 173.175C240.458 173.001 241.422 172.823 242.496 172.769C243.569 172.714 244.549 172.789 245.241 172.893C245.588 172.942 245.87 172.996 246.063 173.041C246.256 173.086 246.359 173.115 246.359 173.125V173.13Z" fill="#455A64"/>
<path d="M191.743 176.999C191.743 176.999 191.332 176.717 190.655 176.292C189.977 175.871 188.992 175.351 187.845 174.941C186.692 174.535 185.604 174.322 184.807 174.223C184.011 174.124 183.516 174.114 183.516 174.09C183.516 174.08 183.64 174.075 183.867 174.07C184.095 174.07 184.421 174.08 184.822 174.114C185.623 174.184 186.732 174.382 187.899 174.792C189.062 175.203 190.046 175.747 190.719 176.193C191.055 176.415 191.318 176.608 191.491 176.757C191.664 176.9 191.758 176.984 191.753 176.989L191.743 176.999Z" fill="#455A64"/>
<path d="M198.872 196.302C198.872 196.302 198.912 196.317 198.981 196.347C199.055 196.377 199.164 196.426 199.302 196.48C199.589 196.594 200 196.792 200.559 197.005C201.667 197.445 203.3 198.044 205.397 198.737C209.592 200.108 215.628 201.854 222.846 203.675L222.762 203.72C224.107 199.984 225.592 195.862 227.155 191.527L227.199 191.621C225.458 190.904 223.623 190.152 221.762 189.39C209.775 184.456 199.001 180.018 191.669 176.999H191.659L191.649 176.989C190.422 175.693 189.299 174.55 188.241 173.629C187.182 172.709 186.212 171.996 185.381 171.477C184.555 170.947 183.877 170.616 183.422 170.383C183.194 170.274 183.016 170.195 182.898 170.136C182.779 170.082 182.719 170.047 182.719 170.047C182.719 170.047 182.784 170.072 182.903 170.121C183.026 170.176 183.204 170.255 183.437 170.354C183.897 170.576 184.585 170.903 185.416 171.427C186.252 171.942 187.231 172.65 188.295 173.565C189.359 174.485 190.496 175.624 191.723 176.915L191.704 176.905C199.04 179.914 209.82 184.332 221.817 189.246C223.682 190.013 225.512 190.765 227.254 191.483L227.323 191.512L227.298 191.582C225.73 195.916 224.241 200.038 222.895 203.769L222.876 203.829L222.816 203.814C215.598 201.983 209.568 200.216 205.377 198.821C203.285 198.118 201.652 197.505 200.549 197.054C199.995 196.837 199.584 196.634 199.302 196.51C199.164 196.446 199.06 196.401 198.986 196.367C198.916 196.332 198.882 196.312 198.882 196.312L198.872 196.302Z" fill="#455A64"/>
<path d="M233.987 127.958C233.987 127.958 238.078 130.313 238.904 133.084C239.409 134.766 243.223 156.276 243.827 160.517C244.435 164.797 243.159 167.9 241.348 169.305C239.538 170.71 234.056 172.586 234.056 172.586L226.343 175.085L224.132 169.459L231.474 158.909L230.761 151.803L233.977 127.958H233.987Z" fill="#FF725E"/>
<path d="M225.948 124.241L222.876 122.484C222.876 122.484 220.075 125.76 216.261 125.359C212.442 124.959 210.181 122.034 210.181 122.034L198.798 124.355C198.036 124.508 196.641 124.993 195.31 126.893C193.826 129.016 186.781 138.438 186.781 138.438H181.849C180.488 138.438 179.242 139.19 178.608 140.392C177.767 141.995 176.753 144.143 176.852 145.029C177.02 146.533 176.728 150.655 178.742 151.946C179.38 152.357 181.666 153.579 183.442 153.495C186.059 153.371 189.101 152.011 190.853 150.784C192.337 149.744 195.785 146.162 197.111 144.762V144.781L197.962 174.654L227.813 173.803L233.997 127.957C233.997 127.957 226.259 124.241 225.958 124.241H225.948Z" fill="#FF725E"/>
<path d="M196.997 132.248C197.041 132.248 197.116 135.949 197.17 140.516C197.224 145.083 197.234 148.79 197.19 148.79C197.145 148.79 197.071 145.088 197.017 140.521C196.962 135.954 196.952 132.253 196.997 132.253V132.248Z" fill="#263238"/>
<path d="M237.598 156.395C237.598 156.395 237.346 156.435 236.896 156.524C236.445 156.608 235.797 156.786 235.045 157.113C234.293 157.439 233.448 157.939 232.587 158.597C231.726 159.255 230.85 160.077 229.994 160.997C229.139 161.918 228.362 162.833 227.63 163.64C226.897 164.451 226.21 165.159 225.596 165.713C224.983 166.267 224.454 166.678 224.068 166.935C223.88 167.069 223.721 167.158 223.622 167.222C223.519 167.286 223.464 167.316 223.459 167.311C223.459 167.311 223.509 167.267 223.603 167.197C223.697 167.123 223.85 167.029 224.033 166.886C224.404 166.613 224.924 166.193 225.522 165.629C226.126 165.07 226.799 164.357 227.526 163.541C228.253 162.729 229.025 161.814 229.886 160.888C230.746 159.968 231.632 159.142 232.503 158.484C233.378 157.825 234.239 157.326 235.006 157.009C235.773 156.692 236.426 156.524 236.886 156.46C237.113 156.415 237.296 156.415 237.415 156.4C237.539 156.39 237.598 156.39 237.598 156.395Z" fill="#263238"/>
<path d="M238.276 154.371C238.276 154.401 237.826 154.46 237.113 154.658C236.401 154.851 235.441 155.212 234.472 155.786C233.507 156.365 232.73 157.038 232.221 157.573C231.706 158.102 231.439 158.473 231.414 158.458C231.404 158.454 231.469 158.355 231.587 158.186C231.706 158.013 231.894 157.776 232.142 157.499C232.636 156.939 233.413 156.242 234.393 155.658C235.377 155.074 236.357 154.728 237.084 154.554C237.445 154.47 237.742 154.416 237.95 154.391C238.157 154.366 238.271 154.356 238.271 154.371H238.276Z" fill="#263238"/>
<g opacity="0.3">
<path d="M182.719 149.126C184.298 149.556 186.197 147.28 187.632 145.86C188.379 145.118 189.156 144.331 189.428 143.317C189.655 142.48 189.507 141.575 189.18 140.768C188.854 139.962 188.621 139.442 188.132 138.725C188.265 139.952 188.567 141.832 188.151 143.376C187.805 144.663 186.994 145.687 186.128 146.657C185.213 147.686 184.129 148.765 182.719 149.126Z" fill="black"/>
</g>
<path d="M189.477 147.825C189.448 147.815 189.631 147.305 189.779 146.449C189.858 146.024 189.908 145.504 189.922 144.93C189.927 144.356 189.898 143.728 189.799 143.069C189.69 142.416 189.527 141.803 189.344 141.263C189.151 140.724 188.943 140.249 188.74 139.863C188.334 139.091 188.003 138.665 188.028 138.646C188.038 138.641 188.122 138.745 188.27 138.938C188.344 139.037 188.433 139.155 188.527 139.304C188.621 139.452 188.735 139.616 188.834 139.809C189.052 140.19 189.274 140.665 189.477 141.214C189.67 141.763 189.843 142.382 189.947 143.045C190.046 143.708 190.076 144.351 190.061 144.93C190.036 145.509 189.972 146.033 189.883 146.464C189.848 146.682 189.789 146.87 189.744 147.043C189.705 147.211 189.655 147.355 189.616 147.468C189.537 147.701 189.487 147.825 189.477 147.825Z" fill="#263238"/>
<path d="M211.418 123.188C211.438 123.227 211.086 123.43 210.72 123.762C210.349 124.088 210.107 124.41 210.072 124.385C210.038 124.365 210.231 123.989 210.621 123.648C211.007 123.301 211.403 123.153 211.418 123.188Z" fill="#263238"/>
<path d="M214.525 124.993C214.559 125.028 214.258 125.35 214.015 125.825C213.768 126.3 213.684 126.73 213.634 126.725C213.595 126.725 213.619 126.26 213.877 125.755C214.134 125.251 214.5 124.964 214.525 124.993Z" fill="#263238"/>
<path d="M219.843 126.869C219.799 126.879 219.68 126.468 219.502 125.978C219.324 125.488 219.16 125.092 219.195 125.073C219.23 125.053 219.462 125.424 219.645 125.924C219.828 126.428 219.883 126.859 219.843 126.864V126.869Z" fill="#263238"/>
<path d="M223.266 125.251C223.222 125.261 223.103 124.741 222.767 124.192C222.435 123.638 222.029 123.291 222.059 123.257C222.079 123.222 222.549 123.529 222.9 124.113C223.251 124.692 223.306 125.251 223.266 125.251Z" fill="#263238"/>
<path d="M233.096 134.925C233.136 134.93 232.631 139.012 231.968 144.039C231.3 149.067 230.732 153.139 230.687 153.134C230.643 153.129 231.152 149.047 231.815 144.02C232.478 138.992 233.052 134.92 233.096 134.925Z" fill="#263238"/>
<path d="M188.364 141.53C188.364 141.53 188.369 141.679 188.354 141.951C188.354 142.089 188.329 142.253 188.295 142.441C188.28 142.54 188.26 142.639 188.245 142.748C188.221 142.856 188.191 142.965 188.161 143.084C188.052 143.559 187.84 144.103 187.573 144.687C187.286 145.261 186.929 145.88 186.474 146.469C186.014 147.053 185.519 147.567 185.015 147.973C184.5 148.364 184.011 148.681 183.551 148.854C183.437 148.898 183.333 148.948 183.229 148.987C183.125 149.017 183.026 149.042 182.927 149.071C182.833 149.096 182.749 149.121 182.665 149.141C182.586 149.161 182.507 149.161 182.442 149.17C182.17 149.2 182.022 149.215 182.022 149.205C182.012 149.165 182.63 149.151 183.506 148.755C183.946 148.572 184.426 148.25 184.926 147.859C185.416 147.453 185.9 146.949 186.351 146.375C186.796 145.796 187.152 145.187 187.444 144.623C187.711 144.049 187.934 143.519 188.052 143.054C188.32 142.129 188.329 141.525 188.364 141.53Z" fill="#263238"/>
<g opacity="0.3">
<path d="M232.132 175.678C233.398 175.064 233.685 173.421 233.814 172.021C234.19 167.919 234.571 163.812 234.946 159.71C235.125 157.78 235.209 155.578 233.848 154.197C232.606 152.936 230.633 152.861 228.861 152.866C217.938 152.896 208.291 153.218 197.368 153.247L197.922 172.358L232.122 175.668L232.132 175.678Z" fill="black"/>
</g>
<path d="M192.673 156.211L193.836 178.374C193.88 179.23 194.593 179.898 195.458 179.898L230.756 179.958C231.622 179.958 232.339 179.285 232.379 178.429L233.724 156.642C233.769 155.736 233.126 154.534 232.211 154.514H194.325C193.38 154.499 192.619 155.276 192.668 156.206L192.673 156.211Z" fill="#E0E0E0"/>
<path d="M192.673 156.212C192.673 156.212 192.673 156.182 192.673 156.128C192.673 156.073 192.673 155.989 192.688 155.88C192.718 155.668 192.812 155.331 193.108 155.014C193.257 154.861 193.45 154.708 193.697 154.614C193.945 154.51 194.241 154.485 194.548 154.495C195.171 154.495 195.889 154.495 196.695 154.49C199.926 154.485 204.601 154.475 210.374 154.465C216.147 154.46 223.024 154.455 230.657 154.445C231.132 154.445 231.617 154.445 232.097 154.445C232.339 154.435 232.611 154.495 232.824 154.633C233.042 154.767 233.22 154.955 233.363 155.163C233.645 155.579 233.809 156.078 233.809 156.593C233.779 157.088 233.749 157.583 233.72 158.082C233.596 160.077 233.472 162.115 233.344 164.189C233.086 168.335 232.824 172.63 232.552 177.029L232.503 177.851C232.478 178.128 232.483 178.39 232.433 178.682C232.329 179.251 231.904 179.736 231.37 179.934C231.108 180.038 230.806 180.053 230.539 180.043H229.727C229.188 180.043 228.649 180.043 228.114 180.043C225.967 180.043 223.855 180.033 221.777 180.033C217.622 180.023 213.614 180.018 209.795 180.008C205.976 179.998 202.35 179.988 198.956 179.983C198.105 179.983 197.274 179.983 196.453 179.978C196.25 179.978 196.042 179.978 195.839 179.978C195.636 179.978 195.434 179.988 195.226 179.959C194.81 179.904 194.429 179.686 194.167 179.375C193.9 179.063 193.771 178.647 193.771 178.261C193.752 177.875 193.732 177.494 193.712 177.118C193.672 176.361 193.638 175.624 193.598 174.906C193.306 169.142 193.069 164.476 192.906 161.244C192.826 159.631 192.767 158.384 192.728 157.528C192.708 157.108 192.693 156.781 192.683 156.563C192.673 156.346 192.673 156.232 192.673 156.232C192.673 156.232 192.683 156.341 192.698 156.558C192.713 156.781 192.732 157.103 192.757 157.523C192.807 158.374 192.876 159.626 192.965 161.234C193.138 164.461 193.395 169.127 193.707 174.892C193.747 175.614 193.786 176.351 193.826 177.103C193.846 177.48 193.865 177.861 193.885 178.247C193.885 178.628 194.004 178.999 194.256 179.291C194.499 179.583 194.855 179.78 195.241 179.83C195.429 179.855 195.636 179.845 195.839 179.845C196.042 179.845 196.245 179.845 196.453 179.845C197.274 179.845 198.105 179.845 198.956 179.845C202.35 179.845 205.981 179.855 209.795 179.855C213.614 179.86 217.622 179.865 221.777 179.87C223.855 179.87 225.967 179.874 228.114 179.879C228.649 179.879 229.188 179.879 229.727 179.879H230.539C230.816 179.889 231.068 179.879 231.315 179.78C231.8 179.602 232.191 179.162 232.285 178.642C232.329 178.39 232.329 178.103 232.349 177.836L232.399 177.014C232.671 172.615 232.938 168.325 233.195 164.174C233.324 162.1 233.452 160.062 233.576 158.068C233.606 157.568 233.636 157.073 233.665 156.583C233.665 156.108 233.512 155.628 233.25 155.237C232.987 154.846 232.572 154.549 232.097 154.584C231.612 154.584 231.132 154.584 230.657 154.584C223.024 154.579 216.147 154.574 210.374 154.569C204.601 154.559 199.931 154.549 196.695 154.544C195.889 154.544 195.171 154.544 194.548 154.539C194.236 154.53 193.954 154.549 193.712 154.648C193.47 154.737 193.277 154.886 193.128 155.034C192.836 155.341 192.737 155.668 192.703 155.88C192.668 156.093 192.688 156.207 192.678 156.207L192.673 156.212Z" fill="#263238"/>
<path d="M215.544 167.024C215.544 168.172 214.614 169.102 213.466 169.102C212.318 169.102 211.388 168.172 211.388 167.024C211.388 165.876 212.318 164.946 213.466 164.946C214.614 164.946 215.544 165.876 215.544 167.024Z" fill="white"/>
<path d="M215.544 167.024C215.544 167.024 215.534 166.841 215.45 166.524C215.366 166.217 215.158 165.762 214.688 165.416C214.455 165.247 214.168 165.104 213.837 165.045C213.506 164.99 213.135 165 212.783 165.139C212.432 165.267 212.091 165.51 211.853 165.841C211.606 166.168 211.467 166.593 211.462 167.024C211.462 167.459 211.606 167.88 211.853 168.206C212.091 168.538 212.427 168.78 212.783 168.909C213.135 169.048 213.511 169.058 213.842 169.003C214.173 168.949 214.465 168.8 214.693 168.632C215.158 168.286 215.371 167.83 215.455 167.524C215.539 167.207 215.534 167.024 215.549 167.024C215.554 167.024 215.559 167.068 215.559 167.157C215.559 167.246 215.549 167.375 215.514 167.538C215.445 167.86 215.242 168.34 214.762 168.721C214.525 168.904 214.218 169.063 213.867 169.132C213.515 169.196 213.12 169.186 212.739 169.048C212.358 168.914 211.997 168.657 211.734 168.3C211.467 167.949 211.319 167.494 211.314 167.029C211.314 166.564 211.467 166.108 211.734 165.757C211.992 165.401 212.358 165.143 212.739 165.01C213.12 164.866 213.515 164.861 213.867 164.926C214.218 164.99 214.525 165.148 214.762 165.336C215.242 165.713 215.445 166.197 215.514 166.519C215.549 166.682 215.564 166.811 215.559 166.9C215.559 166.989 215.559 167.034 215.549 167.034L215.544 167.024Z" fill="#263238"/>
<path d="M193.86 158.666C193.905 158.666 194.078 162.387 194.251 166.984C194.424 171.581 194.528 175.307 194.489 175.307C194.444 175.307 194.271 171.586 194.098 166.989C193.925 162.392 193.821 158.666 193.86 158.666Z" fill="#263238"/>
<path d="M183.249 129.749C183.041 129.575 183.946 126.092 183.946 126.092C183.946 126.092 181.552 122.183 181.488 120.921C181.423 119.659 182.432 117.076 182.432 117.076L189.304 115.31C189.304 115.31 191.511 119.407 191.951 120.857C192.391 122.306 191.194 127.225 191.194 127.225L190.031 129.749C190.031 129.749 186.524 132.52 183.249 129.749Z" fill="#99655C"/>
<path d="M181.502 121.673C181.502 121.673 181.206 121.159 180.78 120.149C180.345 119.12 179.81 118.106 180.78 117.527C181.349 117.185 181.814 117.363 181.814 117.363C181.814 117.363 181.666 116.497 182.185 116.171C182.705 115.844 183.204 116.082 183.204 116.082C183.204 116.082 183.041 114.855 183.788 114.335C184.723 113.682 185.693 114.281 185.693 114.281C185.693 114.281 185.104 108.917 185.049 108.635C184.861 107.591 185.247 106.67 186.286 106.927C186.667 107.021 186.875 107.422 187.325 109.169C187.77 110.916 188.488 113.895 188.488 113.895C188.488 113.895 189.695 115.993 190.264 117.131C190.833 118.269 191.961 120.857 192.055 121.545C192.297 123.316 191.258 125.666 191.258 125.666L183.956 126.092C183.956 126.092 181.789 122.188 181.512 121.678L181.502 121.673Z" fill="#99655C"/>
<path d="M181.958 117.596C181.958 117.596 182.19 117.888 182.522 118.382C182.695 118.645 182.888 118.942 183.1 119.263C183.209 119.432 183.323 119.605 183.412 119.813C183.501 120.015 183.555 120.263 183.496 120.51C183.447 120.748 183.273 120.985 183.036 121.05C182.799 121.124 182.566 121.05 182.383 120.97C182.195 120.886 182.037 120.772 181.893 120.669C181.75 120.565 181.616 120.466 181.497 120.372C181.26 120.189 181.077 120.03 180.953 119.916C180.83 119.803 180.765 119.733 180.775 119.728C180.79 119.709 181.077 119.941 181.567 120.288C181.814 120.451 182.096 120.683 182.442 120.842C182.616 120.916 182.813 120.97 182.991 120.906C183.175 120.852 183.303 120.678 183.348 120.476C183.397 120.273 183.353 120.06 183.273 119.872C183.194 119.684 183.081 119.511 182.977 119.342C182.774 119.016 182.591 118.714 182.428 118.447C182.121 117.932 181.938 117.611 181.953 117.601L181.958 117.596Z" fill="#744A45"/>
<path d="M187.949 118.234C187.909 118.234 187.874 117.709 188.023 117.086C188.171 116.462 188.443 116.012 188.478 116.032C188.517 116.052 188.315 116.517 188.171 117.125C188.023 117.729 187.993 118.239 187.944 118.239L187.949 118.234Z" fill="#744A45"/>
<path d="M190.843 119.802C190.19 119.139 189.309 118.724 188.399 118.526C187.489 118.328 186.544 118.333 185.619 118.417C184.876 118.486 184.026 118.674 183.689 119.342C183.343 120.025 183.758 120.911 184.421 121.302C185.084 121.693 185.896 121.712 186.657 121.643C187.419 121.574 188.191 121.43 188.953 121.549" fill="#99655C"/>
<path d="M188.953 121.549C188.953 121.549 188.745 121.529 188.379 121.534C188.008 121.534 187.479 121.603 186.816 121.683C186.484 121.717 186.118 121.752 185.717 121.727C185.322 121.702 184.891 121.633 184.486 121.42C184.08 121.212 183.734 120.831 183.57 120.356C183.486 120.119 183.466 119.857 183.521 119.594C183.58 119.337 183.724 119.095 183.922 118.921C184.327 118.56 184.852 118.446 185.327 118.377C185.806 118.318 186.272 118.293 186.712 118.293C187.597 118.293 188.399 118.422 189.032 118.644C189.67 118.867 190.135 119.159 190.427 119.396C190.576 119.515 190.679 119.614 190.749 119.683C190.818 119.758 190.848 119.797 190.843 119.797C190.833 119.807 190.689 119.659 190.393 119.441C190.096 119.223 189.631 118.946 189.002 118.743C188.374 118.535 187.592 118.422 186.717 118.432C186.281 118.436 185.816 118.466 185.351 118.521C184.891 118.59 184.392 118.709 184.03 119.03C183.847 119.189 183.729 119.401 183.674 119.624C183.63 119.852 183.645 120.089 183.719 120.302C183.862 120.737 184.184 121.094 184.555 121.287C184.931 121.49 185.341 121.569 185.727 121.593C186.113 121.618 186.474 121.593 186.806 121.564C187.464 121.499 188.008 121.445 188.384 121.465C188.572 121.47 188.715 121.49 188.814 121.504C188.913 121.524 188.963 121.534 188.963 121.539L188.953 121.549Z" fill="#744A45"/>
<path d="M182.012 117.68C182.779 118.847 183.457 120.129 184.105 121.366C184.293 121.727 184.491 122.108 184.837 122.321C185.114 122.494 185.802 122.183 186.108 122.079L184.001 117.279" fill="#99655C"/>
<path d="M184.001 117.279C184.001 117.279 184.075 117.403 184.189 117.635C184.307 117.897 184.466 118.234 184.654 118.64C185.045 119.496 185.579 120.693 186.177 122.049L186.212 122.123L186.133 122.153C185.905 122.232 185.663 122.336 185.396 122.405C185.292 122.43 185.183 122.45 185.074 122.455C185.02 122.455 184.96 122.455 184.901 122.435C184.842 122.42 184.782 122.386 184.743 122.356C184.565 122.232 184.431 122.069 184.317 121.901C184.1 121.559 183.946 121.218 183.778 120.901C183.447 120.263 183.145 119.689 182.878 119.214C182.616 118.739 182.393 118.358 182.24 118.095C182.086 117.833 182.002 117.69 182.007 117.68C182.017 117.675 182.116 117.808 182.289 118.061C182.457 118.313 182.695 118.684 182.972 119.159C183.249 119.629 183.56 120.198 183.902 120.832C184.075 121.144 184.238 121.495 184.441 121.812C184.545 121.97 184.674 122.118 184.827 122.222C184.96 122.331 185.163 122.292 185.356 122.247C185.604 122.183 185.841 122.084 186.079 122L186.034 122.103C185.44 120.748 184.921 119.54 184.555 118.674C184.382 118.259 184.238 117.917 184.129 117.65C184.03 117.408 183.986 117.274 183.991 117.269L184.001 117.279Z" fill="#744A45"/>
<path d="M183.432 115.849C184.11 117.551 184.787 119.248 185.465 120.95C185.609 121.312 185.757 121.678 186.014 121.975C186.267 122.267 186.652 122.479 187.038 122.42C187.568 122.341 187.914 121.777 187.944 121.242C187.968 120.708 187.761 120.193 187.563 119.694C186.954 118.145 186.464 116.546 186.103 114.918" fill="#99655C"/>
<path d="M186.103 114.924C186.103 114.924 186.128 114.978 186.153 115.077C186.182 115.196 186.227 115.344 186.271 115.528C186.375 115.918 186.529 116.483 186.746 117.175C186.959 117.868 187.236 118.684 187.587 119.575C187.756 120.021 187.978 120.491 188.013 121.035C188.033 121.302 187.983 121.594 187.86 121.846C187.736 122.099 187.533 122.336 187.246 122.445C186.964 122.559 186.643 122.51 186.39 122.376C186.138 122.242 185.935 122.034 185.792 121.812C185.505 121.352 185.361 120.867 185.178 120.426C184.832 119.541 184.515 118.734 184.248 118.056C183.996 117.393 183.788 116.849 183.635 116.453C183.57 116.275 183.516 116.131 183.476 116.012C183.442 115.913 183.427 115.859 183.432 115.854C183.432 115.854 183.462 115.904 183.506 115.998C183.556 116.111 183.615 116.255 183.694 116.428C183.857 116.824 184.08 117.358 184.352 118.016C184.629 118.694 184.951 119.491 185.312 120.377C185.5 120.817 185.648 121.307 185.92 121.733C186.059 121.945 186.237 122.128 186.464 122.247C186.687 122.366 186.959 122.406 187.192 122.307C187.429 122.213 187.612 122.01 187.721 121.782C187.835 121.55 187.879 121.297 187.86 121.05C187.83 120.545 187.622 120.08 187.454 119.635C187.108 118.739 186.84 117.913 186.638 117.215C186.435 116.517 186.296 115.943 186.212 115.547C186.168 115.349 186.138 115.196 186.118 115.087C186.098 114.983 186.093 114.924 186.098 114.924H186.103Z" fill="#744A45"/>
<path d="M183.595 127.814C183.595 127.814 178.935 141.545 178.752 142.223C178.569 142.901 179.672 147.8 181.695 148.968C183.719 150.13 187.642 145.291 188.132 143.51C188.621 141.733 188.132 138.73 188.132 138.73L191.273 126.898" fill="#99655C"/>
<path d="M188.131 125.681C188.131 125.681 187.958 125.701 187.691 125.621C187.429 125.547 187.078 125.374 186.766 125.087C186.454 124.8 186.252 124.464 186.153 124.211C186.054 123.954 186.039 123.781 186.059 123.781C186.103 123.761 186.266 124.434 186.87 124.978C187.464 125.532 188.146 125.636 188.131 125.681Z" fill="#744A45"/>
</svg>
