<svg width="350" height="334" viewBox="0 0 350 334" fill="none" xmlns="http://www.w3.org/2000/svg">
<path d="M39.5353 77.5225C39.7005 77.5225 39.8421 85.6421 39.8421 95.658C39.8421 105.674 39.7084 113.801 39.5353 113.801C39.3622 113.801 39.2285 105.682 39.2285 95.658C39.2285 85.6343 39.3622 77.5225 39.5353 77.5225Z" fill="#E0E0E0"/>
<path d="M44.2628 81.5117C44.428 81.5117 44.5696 87.7116 44.5696 95.3592C44.5696 103.007 44.4359 109.207 44.2628 109.207C44.0898 109.207 43.9561 103.007 43.9561 95.3592C43.9561 87.7116 44.0898 81.5117 44.2628 81.5117Z" fill="#E0E0E0"/>
<path d="M49.5805 85.4692C49.7457 85.4692 49.8872 89.9618 49.8872 95.5008C49.8872 101.04 49.7535 105.532 49.5805 105.532C49.4074 105.532 49.2737 101.04 49.2737 95.5008C49.2737 89.9618 49.4074 85.4692 49.5805 85.4692Z" fill="#E0E0E0"/>
<path d="M54.2218 88.876C54.387 88.876 54.5286 91.378 54.5286 94.4701C54.5286 97.5621 54.3949 100.064 54.2218 100.064C54.0488 100.064 53.915 97.5621 53.915 94.4701C53.915 91.378 54.0488 88.876 54.2218 88.876Z" fill="#E0E0E0"/>
<path d="M58.3122 91.6064C58.4773 91.6064 58.6189 92.9833 58.6189 94.6749C58.6189 96.3665 58.4852 97.7434 58.3122 97.7434C58.1391 97.7434 58.0054 96.3665 58.0054 94.6749C58.0054 92.9833 58.1391 91.6064 58.3122 91.6064Z" fill="#E0E0E0"/>
<path d="M62.9525 88.333C63.1177 88.333 63.2593 90.835 63.2593 93.9271C63.2593 97.0192 63.1256 99.5212 62.9525 99.5212C62.7795 99.5212 62.6458 97.0192 62.6458 93.9271C62.6458 90.835 62.7795 88.333 62.9525 88.333Z" fill="#E0E0E0"/>
<path d="M67.319 83.833C67.4842 83.833 67.6258 88.538 67.6258 94.3366C67.6258 100.135 67.492 104.84 67.319 104.84C67.1459 104.84 67.0122 100.135 67.0122 94.3366C67.0122 88.538 67.1459 83.833 67.319 83.833Z" fill="#E0E0E0"/>
<path d="M11.965 85.4692C12.1302 85.4692 12.2718 89.9618 12.2718 95.5008C12.2718 101.04 12.138 105.532 11.965 105.532C11.7919 105.532 11.6582 101.04 11.6582 95.5008C11.6582 89.9618 11.7919 85.4692 11.965 85.4692Z" fill="#E0E0E0"/>
<path d="M16.5976 88.876C16.7627 88.876 16.9043 91.378 16.9043 94.4701C16.9043 97.5621 16.7706 100.064 16.5976 100.064C16.4245 100.064 16.2908 97.5621 16.2908 94.4701C16.2908 91.378 16.4245 88.876 16.5976 88.876Z" fill="#E0E0E0"/>
<path d="M20.6957 91.6069C20.8609 91.6069 21.0025 92.9838 21.0025 94.6754C21.0025 96.367 20.8688 97.7439 20.6957 97.7439C20.5226 97.7439 20.3889 96.367 20.3889 94.6754C20.3889 92.9838 20.5226 91.6069 20.6957 91.6069Z" fill="#E0E0E0"/>
<path d="M25.3292 86.6968C25.4944 86.6968 25.636 89.9383 25.636 93.9274C25.636 97.9164 25.5023 101.158 25.3292 101.158C25.1562 101.158 25.0225 97.9243 25.0225 93.9274C25.0225 89.9305 25.1562 86.6968 25.3292 86.6968Z" fill="#E0E0E0"/>
<path d="M29.6945 83.833C29.8597 83.833 30.0013 88.538 30.0013 94.3366C30.0013 100.135 29.8675 104.84 29.6945 104.84C29.5214 104.84 29.3877 100.135 29.3877 94.3366C29.3877 88.538 29.5214 83.833 29.6945 83.833Z" fill="#E0E0E0"/>
<path d="M35.0128 81.6455C35.178 81.6455 35.3196 87.633 35.3196 95.0131C35.3196 102.393 35.1859 108.388 35.0128 108.388C34.8398 108.388 34.7061 102.401 34.7061 95.0131C34.7061 87.6251 34.8398 81.6455 35.0128 81.6455Z" fill="#E0E0E0"/>
<path d="M7.00087 99.5216C6.83568 99.5216 6.69409 97.0197 6.69409 93.9276C6.69409 90.8355 6.82782 88.3335 7.00087 88.3335C7.17393 88.3335 7.30766 90.8355 7.30766 93.9276C7.30766 97.0197 7.17393 99.5216 7.00087 99.5216Z" fill="#E0E0E0"/>
<path d="M2.91054 96.7917C2.74535 96.7917 2.60376 95.4149 2.60376 93.7233C2.60376 92.0317 2.73749 90.6548 2.91054 90.6548C3.0836 90.6548 3.21732 92.0317 3.21732 93.7233C3.21732 95.4149 3.0836 96.7917 2.91054 96.7917Z" fill="#E0E0E0"/>
<path d="M71.59 88.333C71.7552 88.333 71.8968 90.835 71.8968 93.9271C71.8968 97.0192 71.763 99.5212 71.59 99.5212C71.4169 99.5212 71.2832 97.0192 71.2832 93.9271C71.2832 90.835 71.4169 88.333 71.59 88.333Z" fill="#E0E0E0"/>
<path d="M75.6803 91.0635C75.8455 91.0635 75.9871 92.4404 75.9871 94.132C75.9871 95.8236 75.8534 97.2004 75.6803 97.2004C75.5073 97.2004 75.3735 95.8236 75.3735 94.132C75.3735 92.4404 75.5073 91.0635 75.6803 91.0635Z" fill="#E0E0E0"/>
<path d="M293.174 104.455C293.425 104.455 293.63 116.736 293.63 131.874C293.63 147.012 293.425 159.302 293.174 159.302C292.922 159.302 292.717 147.028 292.717 131.874C292.717 116.721 292.922 104.455 293.174 104.455Z" fill="#E0E0E0"/>
<path d="M300.316 110.473C300.568 110.473 300.772 119.844 300.772 131.41C300.772 142.975 300.568 152.346 300.316 152.346C300.064 152.346 299.86 142.975 299.86 131.41C299.86 119.844 300.064 110.473 300.316 110.473Z" fill="#E0E0E0"/>
<path d="M308.355 116.46C308.607 116.46 308.811 123.25 308.811 131.622C308.811 139.993 308.607 146.783 308.355 146.783C308.103 146.783 307.899 139.993 307.899 131.622C307.899 123.25 308.103 116.46 308.355 116.46Z" fill="#E0E0E0"/>
<path d="M315.372 121.614C315.623 121.614 315.828 125.399 315.828 130.072C315.828 134.746 315.623 138.53 315.372 138.53C315.12 138.53 314.915 134.746 314.915 130.072C314.915 125.399 315.12 121.614 315.372 121.614Z" fill="#E0E0E0"/>
<path d="M321.555 125.737C321.806 125.737 322.011 127.814 322.011 130.379C322.011 132.944 321.806 135.021 321.555 135.021C321.303 135.021 321.098 132.944 321.098 130.379C321.098 127.814 321.303 125.737 321.555 125.737Z" fill="#E0E0E0"/>
<path d="M328.571 120.788C328.823 120.788 329.027 124.573 329.027 129.246C329.027 133.92 328.823 137.704 328.571 137.704C328.319 137.704 328.115 133.92 328.115 129.246C328.115 124.573 328.319 120.788 328.571 120.788Z" fill="#E0E0E0"/>
<path d="M335.171 113.982C335.423 113.982 335.627 121.095 335.627 129.868C335.627 138.64 335.423 145.753 335.171 145.753C334.919 145.753 334.715 138.64 334.715 129.868C334.715 121.095 334.919 113.982 335.171 113.982Z" fill="#E0E0E0"/>
<path d="M251.482 116.46C251.734 116.46 251.939 123.25 251.939 131.622C251.939 139.993 251.734 146.783 251.482 146.783C251.231 146.783 251.026 139.993 251.026 131.622C251.026 123.25 251.231 116.46 251.482 116.46Z" fill="#E0E0E0"/>
<path d="M258.5 121.614C258.751 121.614 258.956 125.399 258.956 130.072C258.956 134.746 258.751 138.53 258.5 138.53C258.248 138.53 258.043 134.746 258.043 130.072C258.043 125.399 258.248 121.614 258.5 121.614Z" fill="#E0E0E0"/>
<path d="M264.683 125.737C264.935 125.737 265.139 127.814 265.139 130.379C265.139 132.944 264.935 135.021 264.683 135.021C264.431 135.021 264.227 132.944 264.227 130.379C264.227 127.814 264.431 125.737 264.683 125.737Z" fill="#E0E0E0"/>
<path d="M271.699 118.317C271.951 118.317 272.155 123.211 272.155 129.246C272.155 135.281 271.951 140.182 271.699 140.182C271.447 140.182 271.243 135.288 271.243 129.246C271.243 123.203 271.447 118.317 271.699 118.317Z" fill="#E0E0E0"/>
<path d="M278.299 113.982C278.551 113.982 278.755 121.095 278.755 129.867C278.755 138.64 278.551 145.753 278.299 145.753C278.047 145.753 277.843 138.64 277.843 129.867C277.843 121.095 278.047 113.982 278.299 113.982Z" fill="#E0E0E0"/>
<path d="M286.338 110.686C286.59 110.686 286.794 119.734 286.794 130.898C286.794 142.063 286.59 151.111 286.338 151.111C286.086 151.111 285.882 142.063 285.882 130.898C285.882 119.734 286.086 110.686 286.338 110.686Z" fill="#E0E0E0"/>
<path d="M243.995 137.704C243.743 137.704 243.538 133.92 243.538 129.246C243.538 124.573 243.743 120.788 243.995 120.788C244.246 120.788 244.451 124.573 244.451 129.246C244.451 133.92 244.246 137.704 243.995 137.704Z" fill="#E0E0E0"/>
<path d="M237.804 133.581C237.552 133.581 237.347 131.504 237.347 128.939C237.347 126.374 237.552 124.297 237.804 124.297C238.055 124.297 238.26 126.374 238.26 128.939C238.26 131.504 238.055 133.581 237.804 133.581Z" fill="#E0E0E0"/>
<path d="M341.629 120.788C341.881 120.788 342.086 124.573 342.086 129.246C342.086 133.92 341.881 137.704 341.629 137.704C341.378 137.704 341.173 133.92 341.173 129.246C341.173 124.573 341.378 120.788 341.629 120.788Z" fill="#E0E0E0"/>
<path d="M347.812 124.918C348.064 124.918 348.269 126.996 348.269 129.561C348.269 132.125 348.064 134.203 347.812 134.203C347.561 134.203 347.356 132.125 347.356 129.561C347.356 126.996 347.561 124.918 347.812 124.918Z" fill="#E0E0E0"/>
<path d="M308.883 56.1693C301.85 56.1693 296.155 50.473 296.155 43.4391V28.4822C296.155 21.4483 301.85 15.752 308.883 15.752C315.915 15.752 321.61 21.4483 321.61 28.4822V43.4391C321.61 50.473 315.915 56.1693 308.883 56.1693Z" fill="#EBEBEB"/>
<path d="M308.882 63.9273C298.523 63.9273 290.09 55.5007 290.09 45.1309H291.907C291.907 54.4858 299.522 62.1019 308.875 62.1019C318.865 62.094 325.842 55.1152 325.842 45.1309H327.659C327.659 56.1853 319.934 63.9115 308.875 63.9273H308.882Z" fill="#EBEBEB"/>
<path d="M309.787 62.999H307.97V72.2045H309.787V62.999Z" fill="#EBEBEB"/>
<path d="M319.99 70.8901H297.768V72.7076H319.99V70.8901Z" fill="#EBEBEB"/>
<path d="M290.121 24.0838C289.453 24.0838 288.438 23.7219 286.833 23.0373C284.12 21.8808 283.215 21.2985 283.537 20.3308L283.663 19.9531L284.088 19.7328C285.04 19.308 287.447 20.2914 287.919 20.496C288.391 20.6927 290.774 21.747 291.12 22.7305L291.254 23.1082L291.073 23.5409C290.877 23.9107 290.586 24.0838 290.129 24.0838H290.121Z" fill="#EBEBEB"/>
<path d="M297.39 14.5478C296.816 14.5478 295.935 13.9026 294.102 11.4164C291.931 8.47379 292.041 7.75781 292.08 7.52177L292.135 7.15198L292.773 6.64844L293.205 6.69565C293.441 6.73498 294.157 6.83727 296.328 9.78773C298.869 13.2339 298.57 13.8869 297.964 14.3354C297.791 14.4613 297.618 14.5635 297.39 14.5635V14.5478Z" fill="#EBEBEB"/>
<path d="M308.599 11.1099L308.253 10.8109C308.08 10.6457 307.56 10.15 307.6 6.68027C307.639 3.21053 308.174 2.72272 308.347 2.56536L308.638 2.29785H309.094C309.653 2.34506 310.416 2.408 310.369 6.71174C310.321 11.0155 309.558 11.0627 309 11.0942L308.607 11.1178L308.599 11.1099Z" fill="#EBEBEB"/>
<path d="M319.761 13.5802L319.384 13.2733C318.581 12.5337 319.305 11.4952 320.87 9.40231C322.444 7.31732 323.238 6.33383 324.182 6.90032L324.536 7.10488L324.662 7.58483C324.882 8.66273 323.269 10.8343 323.089 11.0782C322.908 11.3221 321.271 13.4621 320.178 13.5566L319.769 13.588L319.761 13.5802Z" fill="#EBEBEB"/>
<path d="M327.997 23.9427C327.494 23.9427 327.282 23.7067 327.124 23.4234C326.637 22.5658 327.581 21.8341 328.029 21.48C328.556 21.0709 329.295 20.591 330.098 20.1346C333.472 18.2149 334.094 18.6476 334.44 19.2534C334.928 20.111 333.984 20.8427 333.535 21.1968C333.008 21.6059 332.269 22.0859 331.466 22.5422C329.626 23.5886 328.603 23.9427 327.997 23.9427Z" fill="#EBEBEB"/>
<path d="M42.4461 264.802C46.1117 262.914 50.4303 262.662 54.4971 263.339C56.6839 263.701 58.9651 264.354 60.4518 265.998C61.9386 267.643 62.2217 270.53 60.5148 271.938C59.5 272.78 58.0762 272.906 56.7626 272.89C53.5768 272.851 50.0448 272.292 47.4962 274.212C46.041 275.306 45.0813 277.123 43.3428 277.658C41.6437 278.185 39.7244 277.178 38.8276 275.652C37.9309 274.118 37.8994 272.206 38.3163 270.475C38.3163 270.475 38.7568 266.706 42.454 264.802H42.4461Z" fill="#EBEBEB"/>
<path d="M34.0527 248.594C36.2946 251.797 40.6525 250.734 42.6662 248.783C44.6878 246.832 45.5374 244 46.3161 241.293C48.0939 235.125 49.8795 228.649 48.558 222.363C48.1647 220.482 47.4646 218.61 46.1431 217.217C44.8215 215.825 42.7921 214.991 40.9356 215.486C38.741 216.069 37.3723 218.216 36.389 220.262C33.4863 226.281 31.9524 232.945 31.9288 239.625C31.921 242.741 32.2828 246.014 34.0448 248.587" fill="#EBEBEB"/>
<path d="M27.8937 253.181C30.3244 250.294 30.7885 246.076 29.703 242.457C28.6174 238.838 26.171 235.762 23.3549 233.244C20.0511 230.293 16.1652 228.004 11.9883 226.533C10.3442 225.958 8.61366 225.502 6.87523 225.667C5.1368 225.832 3.3905 226.721 2.58815 228.263C1.39248 230.545 2.54095 233.315 3.77594 235.573C5.96275 239.554 8.4642 243.354 11.241 246.942C13.475 249.829 16.0394 252.678 19.4533 253.976C22.8672 255.282 26.407 255.124 28.2162 252.764" fill="#EBEBEB"/>
<path d="M33.9038 296.888C33.9431 296.888 34.0139 296.369 34.1083 295.432C34.2106 294.37 34.3443 293.041 34.4937 291.459C34.6825 289.791 34.9264 287.801 35.3905 285.637C35.8546 283.481 36.5783 281.136 37.5065 278.76C38.4662 276.4 39.6461 274.26 41.0148 272.545C42.3757 270.822 43.9646 269.579 45.4514 268.855C46.9381 268.123 48.2675 267.824 49.1878 267.69C50.116 267.596 50.6352 267.525 50.6352 267.478C50.6352 267.438 50.116 267.431 49.1642 267.454C48.2203 267.517 46.8358 267.753 45.2704 268.469C43.6972 269.169 42.0217 270.428 40.59 272.191C39.1505 273.945 37.9313 276.132 36.9559 278.532C36.0119 280.948 35.2961 283.308 34.8556 285.519C34.4151 287.722 34.2106 289.728 34.0847 291.412C33.9588 293.096 33.9116 294.465 33.888 295.409C33.8644 296.353 33.8802 296.872 33.9195 296.88L33.9038 296.888Z" fill="#E0E0E0"/>
<path d="M34.1708 293.827C34.1708 293.827 34.2023 293.591 34.2102 293.15C34.2102 292.647 34.2102 292.002 34.2102 291.223C34.2102 289.547 34.2102 287.123 34.2967 284.126C34.4461 278.138 34.9575 271.694 35.9565 262.607C36.9004 254.063 38.1669 244.125 39.4963 237.658C39.7794 236.187 40.0705 234.865 40.3458 233.708C40.6054 232.544 40.8256 231.545 41.038 230.734C41.2189 229.971 41.3684 229.349 41.4864 228.862C41.5808 228.429 41.628 228.201 41.6044 228.193C41.5808 228.193 41.5021 228.405 41.3684 228.822C41.2189 229.31 41.038 229.924 40.8099 230.671C40.5582 231.474 40.3065 232.465 40.0154 233.622C39.7086 234.778 39.394 236.092 39.0793 237.564C37.7578 243.417 36.3576 251.608 35.3508 260.711C34.3518 269.814 33.9034 278.107 33.864 284.102C33.8247 287.1 33.8955 289.531 33.9663 291.207C34.0135 291.994 34.0528 292.631 34.0843 293.134C34.1158 293.575 34.1472 293.803 34.163 293.803L34.1708 293.827Z" fill="#E0E0E0"/>
<path d="M34.2103 277.848C34.2496 277.848 34.2417 277.132 34.1945 275.833C34.1237 274.535 33.9428 272.663 33.581 270.373C33.1955 268.084 32.6528 265.369 31.8032 262.411C31.4335 261.057 30.5682 257.824 28.4758 252.993C25.7148 246.447 21.9626 241.089 18.706 237.769C17.943 236.887 17.0855 236.25 16.409 235.628C16.0551 235.329 15.7483 235.03 15.4258 234.794C15.1033 234.574 14.8122 234.37 14.5369 234.181C13.4671 233.449 12.8614 233.056 12.8378 233.095C12.7434 233.229 15.2448 234.7 18.3992 238.06C21.5457 241.411 25.1877 246.73 27.9252 253.229C29.4512 256.754 30.5132 259.893 31.2683 262.56C32.1415 265.487 32.7236 268.178 33.1562 270.444C33.5731 272.718 33.817 274.567 33.9586 275.857C34.0765 277.139 34.1631 277.855 34.2024 277.855L34.2103 277.848Z" fill="#E0E0E0"/>
<path d="M18.761 306.046L20.3657 327.989H48.5503L50.155 306.046H18.761Z" fill="#E0E0E0"/>
<path d="M53.5142 297.391H16.0396V306.038H53.5142V297.391Z" fill="#E0E0E0"/>
<path d="M16.0396 327.155V329.547H17.8016H52.9006V327.155H16.0396Z" fill="#EBEBEB"/>
<path d="M19.5316 333.772L17.801 329.547H51.5549L49.5412 333.772H19.5316Z" fill="#E0E0E0"/>
<path d="M49.6357 313.213C49.6357 313.213 49.5964 313.284 49.502 313.418C49.3918 313.567 49.2502 313.748 49.0772 313.977C48.676 314.488 48.1254 315.196 47.4332 316.077L47.3624 316.172L47.2916 316.077C46.2611 314.653 44.8845 312.741 43.2562 310.499H43.4922C42.2887 312.198 40.9593 314.095 39.5198 316.125L39.3939 316.298L39.2523 316.132C37.7892 314.386 36.1923 312.497 34.5404 310.53H34.8158C34.7371 310.633 34.6427 310.743 34.5562 310.853C33.0931 312.686 31.685 314.457 30.3478 316.132L30.2062 316.305L30.0803 316.125C28.6487 314.102 27.3114 312.206 26.1079 310.499H26.336C24.3773 312.741 22.7175 314.637 21.4432 316.085L21.3567 316.187L21.2938 316.077C20.6487 314.992 20.1374 314.126 19.7598 313.505C19.6025 313.221 19.4688 313.001 19.3665 312.82C19.28 312.663 19.2407 312.584 19.2485 312.576C19.2485 312.576 19.3115 312.647 19.4137 312.796C19.5317 312.969 19.6733 313.19 19.8464 313.457C20.2397 314.071 20.7746 314.921 21.4511 315.983L21.3016 315.967C22.5523 314.496 24.1885 312.584 26.1157 310.326L26.2337 310.184L26.3439 310.342C27.5631 312.041 28.9082 313.929 30.3556 315.944H30.0882C31.4254 314.26 32.8335 312.482 34.2887 310.648C34.3753 310.538 34.4696 310.428 34.5483 310.326L34.682 310.161L34.8158 310.326C36.4677 312.293 38.0488 314.197 39.5119 315.944H39.2444C40.6918 313.929 42.0448 312.049 43.2562 310.357L43.3742 310.192L43.4922 310.357C45.0812 312.631 46.4341 314.559 47.441 315.999H47.2994C48.0153 315.133 48.5895 314.449 49.0064 313.945C49.1952 313.733 49.3446 313.56 49.4626 313.418C49.5649 313.3 49.6278 313.245 49.6357 313.245V313.213Z" fill="#F5F5F5"/>
<path d="M50.5486 305.896C50.5486 305.991 43.4848 306.069 34.7769 306.069C26.069 306.069 19.0051 305.991 19.0051 305.896C19.0051 305.802 26.069 305.723 34.7769 305.723C43.4848 305.723 50.5486 305.802 50.5486 305.896Z" fill="#F5F5F5"/>
<path d="M51.9726 329.783C51.9726 329.877 44.2952 329.956 34.8322 329.956C25.3691 329.956 17.6838 329.877 17.6838 329.783C17.6838 329.689 25.3613 329.61 34.8322 329.61C44.3031 329.61 51.9726 329.689 51.9726 329.783Z" fill="#F5F5F5"/>
<path d="M241.681 333.772H128.982C115.365 333.709 103.857 322.096 103.912 308.477L105.116 24.5717C105.171 10.9366 116.262 -0.0626744 129.887 0.0002688L243.105 0.51955C256.721 0.582493 267.71 11.6684 267.655 25.2956L266.452 309.201C266.397 322.828 255.297 333.827 241.673 333.764L241.681 333.772Z" fill="#263238"/>
<path d="M242.947 12.4473L220.993 12.3451C218.051 12.3293 215.652 14.8156 215.636 17.8919L215.62 21.8731C215.605 24.9494 213.213 27.4357 210.263 27.4199L167.471 27.2233C164.529 27.2075 162.154 24.7055 162.162 21.6213L162.177 17.6402C162.193 14.5638 159.817 12.0539 156.868 12.0382L149.151 11.9989L129.942 11.9123C120.4 11.8651 112.628 19.5678 112.589 29.1194L111.417 306.235C111.377 315.77 119.07 323.544 128.612 323.583L241.61 324.103C251.152 324.15 258.924 316.447 258.963 306.903L260.135 29.7882C260.174 20.2523 252.481 12.4867 242.94 12.4395L242.947 12.4473Z" fill="#E0E0E0"/>
<path d="M242.947 12.4473L220.993 12.3451C218.051 12.3293 215.652 14.8156 215.636 17.8919L215.62 21.8731C215.604 24.9494 213.213 27.4357 210.263 27.4199L167.471 27.2232C164.529 27.2075 162.154 24.7055 162.161 21.6213L162.177 17.6402C162.193 14.5638 159.817 12.0539 156.868 12.0382L149.151 11.9989L129.942 11.9123C120.4 11.8651 112.628 19.5678 112.589 29.1194L112.439 64.7452H259.978L260.127 29.7803C260.167 20.2444 252.473 12.4788 242.932 12.4316L242.947 12.4473Z" fill="#FF725E"/>
<path d="M123.633 52.7781C123.523 52.7781 123.413 52.7309 123.334 52.6365L120.329 49.0723C120.195 48.9149 120.203 48.6868 120.345 48.5451L123.35 45.4452C123.499 45.2878 123.751 45.2878 123.908 45.4373C124.066 45.5868 124.066 45.8386 123.916 45.9959L121.163 48.8363L123.932 52.1329C124.074 52.2981 124.05 52.5499 123.885 52.6837C123.814 52.7466 123.72 52.7781 123.633 52.7781Z" fill="white"/>
<path d="M127.582 49.2531H120.754C120.534 49.2531 120.361 49.08 120.361 48.8597C120.361 48.6394 120.534 48.4663 120.754 48.4663H127.582C127.802 48.4663 127.975 48.6394 127.975 48.8597C127.975 49.08 127.802 49.2531 127.582 49.2531Z" fill="white"/>
<path d="M199.031 49.0483C199.031 49.1585 188.136 49.2529 174.693 49.2529C161.249 49.2529 150.354 49.1585 150.354 49.0483C150.354 48.9382 161.249 48.8438 174.693 48.8438C188.136 48.8438 199.031 48.9382 199.031 49.0483Z" fill="white"/>
<path d="M185.815 54.2651C185.815 54.3753 177.878 54.4697 168.085 54.4697C158.292 54.4697 150.354 54.3753 150.354 54.2651C150.354 54.155 158.292 54.0605 168.085 54.0605C177.878 54.0605 185.815 54.155 185.815 54.2651Z" fill="white"/>
<path d="M244.599 45.7516C244.599 46.3024 244.159 46.743 243.608 46.743C243.058 46.743 242.617 46.3024 242.617 45.7516C242.617 45.2009 243.058 44.7603 243.608 44.7603C244.159 44.7603 244.599 45.2009 244.599 45.7516Z" fill="white"/>
<path d="M244.599 49.0563C244.599 49.607 244.159 50.0477 243.608 50.0477C243.058 50.0477 242.617 49.607 242.617 49.0563C242.617 48.5055 243.058 48.0649 243.608 48.0649C244.159 48.0649 244.599 48.5055 244.599 49.0563Z" fill="white"/>
<path d="M243.608 53.344C244.156 53.344 244.599 52.9002 244.599 52.3527C244.599 51.8052 244.156 51.3613 243.608 51.3613C243.061 51.3613 242.617 51.8052 242.617 52.3527C242.617 52.9002 243.061 53.344 243.608 53.344Z" fill="white"/>
<path d="M259.333 64.7607H112.14V209.955H259.333V64.7607Z" fill="white"/>
<g opacity="0.3">
<path d="M217.028 262.166C217.028 262.166 217.02 262.009 217.004 261.694C216.988 261.379 216.996 260.915 216.941 260.301C216.87 259.082 216.666 257.28 216.107 255.03C215.808 253.913 215.446 252.67 214.904 251.364C214.377 250.058 213.724 248.665 212.866 247.249C211.175 244.424 208.752 241.474 205.449 238.956C203.804 237.697 201.932 236.564 199.879 235.628C197.818 234.692 195.569 233.944 193.177 233.511C190.786 233.071 188.253 232.898 185.665 233.102C184.367 233.181 183.069 233.393 181.756 233.653C180.45 233.928 179.152 234.306 177.862 234.762C172.717 236.627 167.832 240.105 164.316 244.928C163.427 246.124 162.649 247.414 161.941 248.751C161.579 249.42 161.28 250.113 160.965 250.813C160.682 251.521 160.391 252.229 160.163 252.969C159.179 255.888 158.692 259.011 158.668 262.166C158.676 263.748 158.802 265.313 159.046 266.855C159.282 268.398 159.675 269.9 160.155 271.364C160.383 272.095 160.674 272.811 160.957 273.52C161.272 274.22 161.579 274.912 161.933 275.581C162.641 276.918 163.419 278.209 164.308 279.405C167.824 284.228 172.717 287.705 177.854 289.57C179.144 290.026 180.442 290.404 181.748 290.679C183.053 290.939 184.359 291.152 185.657 291.222C188.245 291.427 190.778 291.254 193.177 290.805C195.576 290.373 197.826 289.625 199.879 288.689C201.94 287.753 203.804 286.62 205.449 285.361C208.752 282.843 211.175 279.893 212.866 277.068C213.724 275.66 214.369 274.267 214.904 272.953C215.439 271.647 215.808 270.404 216.107 269.287C216.666 267.036 216.87 265.235 216.941 264.015C216.996 263.409 216.988 262.937 217.004 262.623C217.012 262.308 217.028 262.15 217.028 262.15C217.028 262.15 217.028 262.308 217.028 262.623C217.012 262.937 217.028 263.401 216.98 264.015C216.917 265.235 216.729 267.044 216.178 269.302C215.887 270.427 215.525 271.671 214.99 272.985C214.463 274.298 213.818 275.699 212.961 277.115C211.277 279.955 208.847 282.922 205.535 285.463C203.883 286.738 202.011 287.878 199.942 288.823C197.873 289.767 195.616 290.522 193.201 290.963C190.794 291.411 188.245 291.592 185.641 291.388C184.336 291.309 183.03 291.104 181.708 290.845C180.395 290.561 179.089 290.192 177.783 289.727C172.607 287.855 167.683 284.362 164.143 279.507C163.246 278.303 162.46 277.005 161.752 275.66C161.39 274.991 161.083 274.283 160.768 273.583C160.485 272.867 160.194 272.151 159.958 271.411C159.478 269.94 159.077 268.421 158.841 266.871C158.597 265.321 158.472 263.74 158.456 262.15C158.472 258.972 158.967 255.825 159.958 252.89C160.194 252.15 160.485 251.434 160.768 250.718C161.083 250.018 161.39 249.318 161.752 248.641C162.46 247.296 163.246 245.998 164.143 244.794C167.691 239.939 172.607 236.446 177.783 234.573C179.081 234.117 180.395 233.739 181.708 233.456C183.022 233.197 184.336 232.984 185.641 232.913C188.245 232.717 190.794 232.89 193.201 233.338C195.616 233.779 197.873 234.534 199.942 235.478C202.011 236.422 203.883 237.563 205.535 238.838C208.847 241.371 211.277 244.345 212.961 247.186C213.818 248.602 214.463 250.002 214.99 251.316C215.525 252.63 215.887 253.873 216.178 254.999C216.729 257.264 216.917 259.066 216.98 260.286C217.028 260.899 217.012 261.364 217.028 261.678C217.028 261.993 217.028 262.15 217.028 262.15V262.166Z" fill="#FF725E"/>
</g>
<path d="M213.331 261.529C213.331 261.529 213.323 261.388 213.307 261.12C213.292 260.853 213.299 260.444 213.252 259.924C213.189 258.87 213.008 257.32 212.529 255.377C212.033 253.441 211.199 251.112 209.736 248.665C208.281 246.234 206.188 243.685 203.341 241.513C201.925 240.428 200.312 239.452 198.535 238.642C196.757 237.839 194.822 237.186 192.753 236.816C190.692 236.439 188.505 236.289 186.271 236.462C185.154 236.525 184.029 236.714 182.904 236.934C181.78 237.178 180.655 237.501 179.546 237.894C175.109 239.499 170.901 242.497 167.864 246.659C167.093 247.69 166.425 248.799 165.819 249.956C165.213 251.112 164.694 252.332 164.285 253.591C163.436 256.108 163.019 258.799 163.003 261.522C163.019 264.244 163.436 266.943 164.285 269.452C164.694 270.711 165.213 271.931 165.819 273.087C166.425 274.244 167.101 275.353 167.864 276.384C170.901 280.546 175.117 283.544 179.546 285.149C180.655 285.542 181.78 285.865 182.904 286.109C184.029 286.329 185.154 286.518 186.271 286.581C188.505 286.754 190.692 286.604 192.753 286.227C194.822 285.857 196.765 285.204 198.535 284.401C200.312 283.599 201.925 282.615 203.341 281.53C206.188 279.358 208.281 276.817 209.736 274.378C211.199 271.939 212.033 269.602 212.529 267.666C213.008 265.723 213.189 264.173 213.252 263.119C213.299 262.592 213.292 262.19 213.307 261.923C213.315 261.655 213.331 261.514 213.331 261.514C213.331 261.514 213.347 262.072 213.292 263.127C213.237 264.181 213.071 265.739 212.607 267.69C212.12 269.633 211.294 271.978 209.838 274.441C208.383 276.888 206.291 279.452 203.427 281.648C202.004 282.749 200.383 283.733 198.598 284.543C196.812 285.353 194.861 286.014 192.777 286.392C190.7 286.777 188.497 286.935 186.248 286.762C185.123 286.699 183.99 286.518 182.857 286.29C181.725 286.046 180.592 285.723 179.475 285.33C175.007 283.717 170.759 280.696 167.699 276.502C166.92 275.463 166.244 274.346 165.63 273.174C165.017 272.009 164.498 270.782 164.081 269.507C163.223 266.974 162.798 264.26 162.783 261.514C162.798 258.768 163.223 256.053 164.081 253.52C164.498 252.245 165.017 251.026 165.63 249.861C166.244 248.697 166.92 247.58 167.699 246.541C170.759 242.347 175.007 239.334 179.475 237.721C180.6 237.328 181.725 236.997 182.857 236.761C183.99 236.541 185.123 236.352 186.248 236.289C188.497 236.116 190.692 236.273 192.777 236.659C194.861 237.037 196.812 237.69 198.59 238.508C200.375 239.326 201.996 240.31 203.42 241.403C206.275 243.591 208.375 246.156 209.83 248.61C211.286 251.065 212.112 253.418 212.599 255.361C213.071 257.312 213.237 258.87 213.284 259.924C213.339 260.979 213.323 261.537 213.323 261.537L213.331 261.529Z" fill="#FF725E"/>
<path d="M202.487 276.845C210.594 268.737 210.594 255.59 202.487 247.482C194.38 239.373 181.236 239.373 173.129 247.482C165.022 255.59 165.022 268.737 173.129 276.845C181.236 284.954 194.38 284.954 202.487 276.845Z" fill="#FF725E"/>
<path d="M187.852 255.856H187.695C186.222 255.856 185.028 257.051 185.028 258.524V261.907C185.028 263.38 186.222 264.574 187.695 264.574H187.852C189.325 264.574 190.519 263.38 190.519 261.907V258.524C190.519 257.051 189.325 255.856 187.852 255.856Z" fill="#FAFAFA"/>
<path d="M187.774 266.234C185.54 266.234 183.73 264.416 183.73 262.19C183.73 262.088 183.817 262.001 183.919 262.001C184.022 262.001 184.108 262.088 184.108 262.19C184.108 264.212 185.752 265.856 187.774 265.856C189.929 265.856 191.439 264.346 191.439 262.19C191.439 262.088 191.526 262.001 191.628 262.001C191.73 262.001 191.817 262.088 191.817 262.19C191.817 264.574 190.149 266.234 187.774 266.234Z" fill="#FAFAFA"/>
<path d="M187.962 266.045H187.577V268.028H187.962V266.045Z" fill="white"/>
<path d="M190.164 268.13H185.374C185.272 268.13 185.185 268.044 185.185 267.941C185.185 267.839 185.272 267.752 185.374 267.752H190.164C190.267 267.752 190.353 267.839 190.353 267.941C190.353 268.044 190.267 268.13 190.164 268.13Z" fill="white"/>
<path d="M183.754 257.446C183.73 257.493 183.439 257.391 183.093 257.249C182.747 257.1 182.472 256.966 182.487 256.911C182.503 256.856 182.818 256.911 183.164 257.068C183.518 257.218 183.77 257.399 183.746 257.454L183.754 257.446Z" fill="white"/>
<path d="M185.295 255.392C185.248 255.423 185.004 255.163 184.737 254.802C184.477 254.447 184.296 254.125 184.344 254.093C184.391 254.062 184.635 254.322 184.902 254.683C185.162 255.038 185.343 255.36 185.295 255.392Z" fill="white"/>
<path d="M187.781 254.652C187.726 254.652 187.687 254.322 187.687 253.897C187.687 253.48 187.742 253.142 187.797 253.15C187.852 253.157 187.892 253.488 187.892 253.905C187.892 254.314 187.836 254.652 187.781 254.652Z" fill="white"/>
<path d="M190.967 254.118C191.014 254.149 190.896 254.432 190.668 254.731C190.44 255.03 190.204 255.219 190.165 255.188C190.125 255.148 190.291 254.904 190.511 254.613C190.731 254.322 190.92 254.094 190.967 254.126V254.118Z" fill="white"/>
<path d="M193.114 256.706C193.138 256.753 192.886 256.95 192.548 257.146C192.21 257.343 191.911 257.461 191.879 257.414C191.856 257.367 192.108 257.17 192.446 256.973C192.784 256.777 193.083 256.658 193.114 256.706Z" fill="white"/>
<path d="M227.419 260.86L229.677 258.012C229.873 257.768 230.165 257.626 230.479 257.626H237.299C237.866 257.626 238.322 258.083 238.322 258.649V264.267C238.322 264.833 237.866 265.29 237.299 265.29H230.589C230.29 265.29 230.007 265.156 229.818 264.936L227.443 262.166C227.128 261.796 227.112 261.254 227.419 260.868V260.86Z" fill="#455A64"/>
<path d="M137.651 257.981C137.965 257.792 138.311 257.642 138.657 257.54L138.862 256.541L140.545 256.509L140.789 257.501C141.143 257.587 141.489 257.721 141.812 257.902L142.661 257.343L143.873 258.516L143.346 259.381C143.534 259.696 143.684 260.042 143.786 260.388L144.785 260.593L144.817 262.276L143.825 262.52C143.739 262.874 143.605 263.213 143.424 263.543L143.983 264.393L142.811 265.605L141.938 265.077C141.623 265.266 141.277 265.416 140.931 265.518L140.726 266.517L139.043 266.549L138.799 265.557C138.445 265.471 138.107 265.337 137.776 265.156L136.927 265.715L135.715 264.542L136.242 263.669C136.054 263.354 135.904 263.008 135.802 262.662L134.803 262.457L134.771 260.774L135.763 260.53C135.849 260.176 135.983 259.837 136.164 259.507L135.605 258.657L136.777 257.446L137.651 257.973V257.981ZM138.547 260.223C137.855 260.939 137.879 262.08 138.594 262.78C139.31 263.472 140.451 263.449 141.143 262.733C141.835 262.017 141.812 260.876 141.096 260.184C140.38 259.491 139.239 259.515 138.547 260.231V260.223Z" fill="#455A64"/>
<path d="M234.791 259.345L231.181 262.956L231.738 263.512L235.348 259.902L234.791 259.345Z" fill="white"/>
<path d="M232 259.334L231.444 259.891L235.055 263.501L235.611 262.944L232 259.334Z" fill="white"/>
<path d="M222.086 163.802H128.856C123.682 163.802 119.487 167.997 119.487 173.172V173.715C119.487 178.891 123.682 183.086 128.856 183.086H222.086C227.26 183.086 231.455 178.891 231.455 173.715V173.172C231.455 167.997 227.26 163.802 222.086 163.802Z" fill="#EBEBEB"/>
<path d="M259.718 190.364H111.833V213.078H259.718V190.364Z" fill="#F5F5F5"/>
<path d="M170.036 200.663H170.767V205.139H173.536V205.777H170.044V200.67L170.036 200.663Z" fill="#263238"/>
<path d="M174.134 200.702C174.134 200.442 174.338 200.246 174.606 200.246C174.873 200.246 175.078 200.442 175.078 200.694C175.078 200.954 174.881 201.158 174.606 201.158C174.33 201.158 174.134 200.962 174.134 200.702ZM174.26 201.898H174.96V205.769H174.26V201.898Z" fill="#263238"/>
<path d="M175.81 205.36L176.101 204.801C176.431 205.037 176.95 205.202 177.461 205.202C178.114 205.202 178.382 205.006 178.382 204.675C178.382 203.81 175.935 204.557 175.935 203.015C175.935 202.323 176.557 201.858 177.548 201.858C178.051 201.858 178.618 201.992 178.956 202.212L178.657 202.771C178.303 202.543 177.918 202.464 177.54 202.464C176.927 202.464 176.628 202.692 176.628 202.999C176.628 203.912 179.082 203.164 179.082 204.667C179.082 205.367 178.437 205.816 177.414 205.816C176.769 205.816 176.14 205.619 175.817 205.36H175.81Z" fill="#263238"/>
<path d="M182.126 205.541C181.914 205.722 181.591 205.808 181.277 205.808C180.498 205.808 180.049 205.376 180.049 204.597V202.472H179.389V201.898H180.049V201.048H180.75V201.898H181.859V202.472H180.75V204.565C180.75 204.982 180.97 205.218 181.355 205.218C181.56 205.218 181.756 205.155 181.906 205.037L182.126 205.541Z" fill="#263238"/>
<path d="M186.319 204.07H183.18C183.267 204.746 183.817 205.203 184.58 205.203C185.037 205.203 185.414 205.053 185.697 204.738L186.083 205.195C185.729 205.604 185.202 205.824 184.557 205.824C183.306 205.824 182.48 204.998 182.48 203.849C182.48 202.701 183.306 201.882 184.423 201.882C185.54 201.882 186.335 202.685 186.335 203.873C186.335 203.928 186.335 204.022 186.319 204.085V204.07ZM183.18 203.566H185.658C185.587 202.913 185.1 202.457 184.415 202.457C183.731 202.457 183.251 202.913 183.172 203.566H183.18Z" fill="#263238"/>
<path d="M190.967 203.543V205.769H190.267V203.621C190.267 202.866 189.889 202.488 189.221 202.488C188.473 202.488 187.994 202.937 187.994 203.771V205.761H187.293V201.89H187.962V202.473C188.245 202.079 188.741 201.851 189.354 201.851C190.298 201.851 190.959 202.394 190.959 203.527L190.967 203.543Z" fill="#263238"/>
<path d="M192.14 200.702C192.14 200.442 192.344 200.246 192.612 200.246C192.879 200.246 193.084 200.442 193.084 200.694C193.084 200.954 192.887 201.158 192.612 201.158C192.336 201.158 192.14 200.962 192.14 200.702ZM192.265 201.898H192.966V205.769H192.265V201.898Z" fill="#263238"/>
<path d="M197.968 203.542V205.769H197.268V203.621C197.268 202.866 196.891 202.488 196.222 202.488C195.475 202.488 194.995 202.936 194.995 203.77V205.761H194.295V201.89H194.964V202.472C195.247 202.079 195.742 201.851 196.356 201.851C197.3 201.851 197.961 202.393 197.961 203.526L197.968 203.542Z" fill="#263238"/>
<path d="M202.987 201.898V205.242C202.987 206.603 202.295 207.224 200.981 207.224C200.273 207.224 199.558 207.028 199.133 206.65L199.471 206.107C199.825 206.414 200.391 206.611 200.958 206.611C201.87 206.611 202.287 206.186 202.287 205.312V205.006C201.949 205.407 201.445 205.604 200.895 205.604C199.778 205.604 198.928 204.848 198.928 203.731C198.928 202.614 199.778 201.858 200.895 201.858C201.469 201.858 201.996 202.071 202.326 202.496V201.898H202.987ZM202.303 203.731C202.303 202.976 201.744 202.472 200.973 202.472C200.203 202.472 199.636 202.976 199.636 203.731C199.636 204.486 200.195 204.99 200.973 204.99C201.752 204.99 202.303 204.471 202.303 203.731Z" fill="#263238"/>
<path d="M203.987 205.313C203.987 205.021 204.215 204.817 204.482 204.817C204.75 204.817 204.962 205.021 204.962 205.313C204.962 205.604 204.742 205.816 204.482 205.816C204.223 205.816 203.987 205.604 203.987 205.313Z" fill="#263238"/>
<path d="M205.646 205.313C205.646 205.021 205.874 204.817 206.141 204.817C206.409 204.817 206.621 205.021 206.621 205.313C206.621 205.604 206.401 205.816 206.141 205.816C205.881 205.816 205.646 205.604 205.646 205.313Z" fill="#263238"/>
<path d="M207.298 205.313C207.298 205.021 207.526 204.817 207.793 204.817C208.061 204.817 208.273 205.021 208.273 205.313C208.273 205.604 208.053 205.816 207.793 205.816C207.534 205.816 207.298 205.604 207.298 205.313Z" fill="#263238"/>
<path d="M136.572 170.789V175.895H135.841V173.621H132.907V175.895H132.175V170.789H132.907V172.984H135.841V170.789H136.572Z" fill="#263238"/>
<path d="M137.878 170.836C137.878 170.576 138.082 170.372 138.35 170.372C138.617 170.372 138.822 170.568 138.822 170.82C138.822 171.08 138.625 171.284 138.35 171.284C138.075 171.284 137.878 171.088 137.878 170.828V170.836ZM138.004 172.032H138.704V175.903H138.004V172.032Z" fill="#263238"/>
<path d="M139.876 175.478C139.876 175.218 140.081 175.014 140.356 175.014C140.631 175.014 140.82 175.218 140.82 175.478C140.82 175.737 140.624 175.942 140.356 175.942C140.089 175.942 139.876 175.73 139.876 175.478ZM139.939 170.789H140.765L140.624 174.282H140.065L139.931 170.789H139.939Z" fill="#263238"/>
<path d="M141.686 175.446C141.686 175.155 141.914 174.951 142.181 174.951C142.449 174.951 142.661 175.155 142.661 175.446C142.661 175.737 142.441 175.95 142.181 175.95C141.922 175.95 141.686 175.737 141.686 175.446Z" fill="#263238"/>
<path d="M143.337 175.446C143.337 175.155 143.565 174.951 143.833 174.951C144.1 174.951 144.313 175.155 144.313 175.446C144.313 175.737 144.092 175.95 143.833 175.95C143.573 175.95 143.337 175.737 143.337 175.446Z" fill="#263238"/>
<path d="M144.997 175.446C144.997 175.155 145.225 174.951 145.493 174.951C145.76 174.951 145.972 175.155 145.972 175.446C145.972 175.737 145.752 175.95 145.493 175.95C145.233 175.95 144.997 175.737 144.997 175.446Z" fill="#263238"/>
<path d="M244.317 182.881C249.526 182.881 253.748 178.658 253.748 173.448C253.748 168.238 249.526 164.014 244.317 164.014C239.108 164.014 234.885 168.238 234.885 173.448C234.885 178.658 239.108 182.881 244.317 182.881Z" fill="#FF725E"/>
<path d="M242.184 172.755V170.119C242.184 169.915 242.397 169.781 242.577 169.876L249.397 173.243C249.602 173.345 249.602 173.636 249.397 173.739L242.577 177.012C242.397 177.098 242.184 176.965 242.184 176.768V174.526C242.184 174.4 242.263 174.297 242.381 174.266L244.882 173.558L242.397 173.031C242.271 173.007 242.176 172.889 242.176 172.763L242.184 172.755Z" fill="white"/>
<path d="M252.355 76.2244C252.827 75.8389 252.552 75.0757 251.946 75.0757H129.202C127.345 75.0757 125.843 76.5785 125.843 78.4353V102.629C125.843 104.486 127.345 105.989 129.202 105.989H241.342C243.199 105.989 244.701 104.486 244.701 102.629V82.8334C244.701 82.6367 244.788 82.4558 244.937 82.3299L252.355 76.2165V76.2244Z" fill="#EBEBEB"/>
<path d="M224.926 87.3178C224.926 87.428 205.874 87.5224 182.378 87.5224C158.881 87.5224 139.822 87.428 139.822 87.3178C139.822 87.2077 158.873 87.1133 182.378 87.1133C205.882 87.1133 224.926 87.2077 224.926 87.3178Z" fill="#263238"/>
<path d="M224.926 93.1718C224.926 93.282 205.874 93.3764 182.378 93.3764C158.881 93.3764 139.822 93.282 139.822 93.1718C139.822 93.0617 158.873 92.9673 182.378 92.9673C205.882 92.9673 224.926 93.0617 224.926 93.1718Z" fill="#263238"/>
<path d="M240.792 109.931H155.68C153.947 109.931 152.542 111.336 152.542 113.07V126.201C152.542 127.935 153.947 129.341 155.68 129.341H240.792C242.526 129.341 243.931 127.935 243.931 126.201V113.07C243.931 111.336 242.526 109.931 240.792 109.931Z" fill="#EBEBEB"/>
<path d="M234.05 119.088C234.05 119.199 217.94 119.293 198.07 119.293C178.2 119.293 162.09 119.199 162.09 119.088C162.09 118.978 178.192 118.884 198.07 118.884C217.948 118.884 234.05 118.978 234.05 119.088Z" fill="#263238"/>
<path d="M55.1736 299.531L42.8079 315.794L36.7352 331.483C36.2947 332.616 34.9967 333.135 33.8955 332.624C33.2819 332.333 32.8414 331.774 32.7234 331.105C31.9525 326.856 29.2072 311.199 30.1748 310.059C31.2996 308.737 42.0842 292.033 42.0842 292.033L55.1736 299.531Z" fill="#FF725E"/>
<g opacity="0.6">
<path d="M33.8959 332.624L30.9854 308.941L30.4741 309.642C30.0335 310.247 29.8212 310.987 29.8762 311.734C30.0335 313.733 30.5842 319.233 32.6687 331.066C32.7867 331.75 33.2508 332.341 33.888 332.616L33.8959 332.624Z" fill="white"/>
</g>
<g opacity="0.6">
<path d="M38.2458 306.07C38.4503 306.66 38.1357 307.383 37.5536 307.612C36.9793 307.84 36.232 307.525 36.0197 306.943C35.7994 306.361 36.1613 305.479 36.7591 305.314C37.3569 305.149 38.2065 305.574 38.2773 306.188" fill="white"/>
</g>
<path d="M35.3591 322.655C35.422 322.765 36.421 322.175 37.7426 322.419C39.072 322.624 39.8192 323.521 39.9136 323.434C39.9608 323.403 39.8428 323.127 39.4967 322.789C39.1506 322.451 38.5528 322.104 37.8212 321.979C37.0897 321.853 36.4053 321.979 35.9727 322.183C35.5322 322.38 35.3276 322.608 35.3591 322.655Z" fill="#263238"/>
<path d="M34.9262 325.723C34.9498 325.849 35.8702 325.7 36.9085 326.078C37.9469 326.432 38.5761 327.124 38.6784 327.037C38.7885 326.99 38.2458 326.062 37.058 325.653C35.878 325.228 34.8712 325.621 34.9262 325.723Z" fill="#263238"/>
<path d="M35.2176 318.225C35.2412 318.359 36.6571 318.115 38.309 318.564C39.9766 318.981 41.0936 319.878 41.1802 319.768C41.2745 319.697 40.2126 318.58 38.427 318.123C36.6492 317.651 35.1782 318.123 35.2176 318.225Z" fill="#263238"/>
<path d="M38.5685 312.97C38.537 313.103 39.7327 313.379 40.9519 314.205C42.1869 315.007 42.9106 315.991 43.0208 315.92C43.123 315.873 42.5252 314.701 41.2037 313.835C39.89 312.954 38.5763 312.859 38.5763 312.977L38.5685 312.97Z" fill="#263238"/>
<path d="M42.0763 308.1C42.0606 308.233 43.3742 308.343 44.5935 309.319C45.8285 310.263 46.2611 311.514 46.387 311.459C46.4421 311.443 46.4106 311.105 46.1903 310.609C45.9701 310.114 45.5296 309.476 44.8688 308.965C44.2081 308.454 43.4844 308.178 42.9495 308.092C42.4146 307.997 42.0763 308.052 42.0763 308.107V308.1Z" fill="#263238"/>
<path d="M45.2314 308.375C45.2314 308.375 45.4516 308.194 45.7112 307.769C45.9629 307.344 46.2776 306.667 46.4035 305.77C46.4507 305.33 46.545 304.803 46.2461 304.252C46.0967 303.977 45.727 303.772 45.3651 303.843C45.019 303.914 44.7594 304.142 44.5628 304.401C43.8155 305.464 43.9807 307.132 45.0583 308.139C46.1517 309.13 47.7171 309.232 48.842 308.666C49.1173 308.508 49.3926 308.272 49.4713 307.895C49.5499 307.525 49.2982 307.163 49.0308 307.037C48.488 306.754 47.9688 306.809 47.5283 306.817C46.6237 306.864 45.9236 307.084 45.4674 307.281C45.0111 307.478 44.783 307.643 44.7987 307.667C44.8223 307.753 45.8056 307.155 47.5362 307.132C47.961 307.139 48.4644 307.132 48.842 307.36C49.0229 307.47 49.1252 307.643 49.0858 307.824C49.0544 308.005 48.8656 308.186 48.6453 308.304C47.7092 308.76 46.2776 308.658 45.373 307.808C44.4605 306.966 44.3189 305.503 44.9089 304.637C45.0505 304.433 45.255 304.268 45.4516 304.228C45.6483 304.189 45.8292 304.275 45.9393 304.449C46.1675 304.811 46.1281 305.314 46.0967 305.731C45.9158 307.454 45.1606 308.343 45.2471 308.375H45.2314Z" fill="#263238"/>
<path d="M68.0505 308.209L69.3091 324.819C69.3091 324.819 52.8215 330.468 52.7507 333.56L85.073 333.489L84.1762 307.525L68.0505 308.209Z" fill="#FF725E"/>
<g opacity="0.6">
<path d="M79.2366 323.025C79.8659 323.174 80.33 323.859 80.212 324.496C80.0941 325.133 79.4018 325.605 78.7647 325.472C78.1275 325.338 77.5533 324.527 77.7421 323.914C77.9308 323.292 78.7804 322.781 79.3625 323.064" fill="white"/>
</g>
<g opacity="0.6">
<path d="M85.0734 333.489L84.979 330.869L53.7737 332.026C53.7737 332.026 52.7433 332.482 52.5859 333.796L85.0655 333.489H85.0734Z" fill="white"/>
</g>
<path d="M68.7829 324.677C68.7908 324.834 69.5853 324.874 70.3798 325.354C71.19 325.81 71.6148 326.479 71.7564 326.408C71.8979 326.369 71.6305 325.44 70.6551 324.882C69.6875 324.315 68.7436 324.543 68.7829 324.685V324.677Z" fill="#263238"/>
<path d="M65.4468 326.211C65.4154 326.369 66.1076 326.605 66.674 327.25C67.2561 327.879 67.4213 328.595 67.5786 328.58C67.728 328.595 67.7988 327.667 67.083 326.88C66.375 326.086 65.4468 326.054 65.4468 326.204V326.211Z" fill="#263238"/>
<path d="M63.6851 330.342C63.8267 330.374 64.0155 329.571 63.575 328.729C63.1424 327.88 62.3872 327.565 62.3243 327.699C62.2378 327.832 62.7412 328.273 63.0873 328.981C63.457 329.673 63.5278 330.334 63.6851 330.35V330.342Z" fill="#263238"/>
<path d="M68.9161 320.861C68.9868 321.003 69.7027 320.759 70.5994 320.782C71.4962 320.782 72.1963 321.058 72.2749 320.924C72.3614 320.806 71.6614 320.247 70.6073 320.232C69.5532 320.208 68.8374 320.743 68.9161 320.861Z" fill="#263238"/>
<g opacity="0.3">
<path d="M68.303 311.499L68.5232 314.457L84.3894 313.686L84.3028 311.011L68.303 311.499Z" fill="black"/>
</g>
<path d="M68.7198 317.502C68.7198 317.565 69.3491 317.643 70.3402 317.431C70.8358 317.329 71.41 317.14 72.0079 316.841C72.3068 316.691 72.6136 316.518 72.9203 316.314C73.0619 316.211 73.235 316.109 73.3923 315.913C73.5575 315.739 73.644 315.322 73.4316 315.071C73.2586 314.827 72.9597 314.732 72.7237 314.74C72.4877 314.74 72.291 314.795 72.118 314.85C71.764 314.953 71.4336 315.086 71.1268 315.236C70.5211 315.543 70.0334 315.913 69.6716 316.274C68.9479 316.998 68.7198 317.596 68.7748 317.628C68.8456 317.675 69.1918 317.171 69.9312 316.566C70.3009 316.267 70.7729 315.952 71.3392 315.692C71.6224 315.566 71.9292 315.456 72.2596 315.37C72.5978 315.267 72.8889 315.252 72.9833 315.401C73.0147 315.456 73.0226 315.48 72.9518 315.582C72.881 315.676 72.7473 315.771 72.6057 315.873C72.3304 316.07 72.0472 316.243 71.7719 316.392C71.2212 316.691 70.6863 316.904 70.2301 317.053C69.3176 317.344 68.7119 317.415 68.7119 317.502H68.7198Z" fill="#263238"/>
<path d="M68.9318 317.722C68.9869 317.745 69.2779 317.163 69.2937 316.14C69.2937 315.629 69.2229 315.023 69.0026 314.378C68.8925 314.055 68.743 313.733 68.5542 313.41C68.3497 313.096 68.1059 312.679 67.4923 312.631C67.1698 312.631 66.9181 312.891 66.8315 313.111C66.7372 313.332 66.7214 313.52 66.69 313.709C66.6428 314.087 66.6664 314.457 66.7293 314.795C66.8551 315.48 67.1619 316.038 67.4844 316.439C68.1452 317.25 68.8138 317.415 68.8217 317.36C68.8689 317.281 68.3104 316.998 67.7912 316.211C67.5395 315.826 67.3035 315.306 67.217 314.708C67.1698 314.409 67.1619 314.095 67.217 313.772C67.2563 313.426 67.3743 313.143 67.5002 313.174C67.6575 313.166 67.9407 313.41 68.0901 313.678C68.2711 313.961 68.4127 314.252 68.5228 314.535C68.7509 315.11 68.861 315.668 68.9004 316.14C68.979 317.085 68.8374 317.683 68.924 317.706L68.9318 317.722Z" fill="#263238"/>
<path d="M57.5964 166.1C57.5964 166.1 49.9897 180.687 49.9897 192.496C49.9897 194.991 64.4085 313.072 64.4085 313.072L86.253 311.239L76.6798 202.575L80.1094 179.318L57.5964 166.1Z" fill="#263238"/>
<path d="M106.233 179.026C106.233 179.026 101.128 221.67 98.7364 238.099C96.2271 255.298 91.3029 258.547 91.3029 258.547L51.8224 309.075L36.3574 295.141L70.953 244.597C70.953 244.597 80.4318 177.649 80.1092 179.317C79.7867 180.985 106.241 179.026 106.241 179.026H106.233Z" fill="#263238"/>
<path d="M90.5325 259.264C90.5325 259.264 90.4145 259.453 90.1627 259.791C89.8796 260.161 89.502 260.641 89.0379 261.246C88.031 262.545 86.6229 264.362 84.8924 266.581C81.3998 271.152 76.6329 277.399 71.3546 284.307C66.0764 291.239 61.2702 297.494 57.7068 301.963C55.929 304.197 54.4738 305.991 53.4512 307.219C52.9556 307.801 52.5623 308.265 52.2634 308.619C51.988 308.934 51.8386 309.099 51.8229 309.091C51.815 309.083 51.9409 308.902 52.1926 308.564C52.4758 308.194 52.8533 307.714 53.3174 307.108C54.3243 305.81 55.7324 303.993 57.4629 301.774C60.9555 297.203 65.7303 290.956 71.0007 284.048C76.271 277.116 81.0851 270.861 84.6407 266.4C86.4184 264.165 87.8737 262.372 88.8963 261.144C89.3918 260.562 89.7852 260.098 90.0841 259.744C90.3594 259.429 90.5089 259.264 90.5246 259.272L90.5325 259.264Z" fill="#455A64"/>
<path d="M68.2158 94.0215C68.2158 94.0215 60.5777 98.6085 58.2887 102.676C55.9996 106.752 43.7755 136.54 44.2868 141.378C44.7981 146.217 56.2435 149.27 56.2435 149.27L68.2158 133.739L61.089 128.9L68.2158 119.986V94.0137V94.0215Z" fill="#FF725E"/>
<path d="M80.55 90.0644L68.2158 94.0219C68.2158 94.0219 62.615 147.24 59.8147 154.88C57.0143 162.52 56.2434 171.434 56.2434 171.434C56.2434 171.434 57.8324 186.312 75.1459 188.35C92.4594 190.388 106.225 180.12 106.225 180.12C106.225 180.12 116.585 153.865 119.637 131.457C122.689 109.05 120.581 96.2643 120.581 96.2643L101.608 89.4507L80.55 90.0644Z" fill="#FF725E"/>
<path d="M117.096 97.8374C116.569 98.3882 108.947 103.439 106.406 112.094C103.857 120.749 101.057 129.663 101.057 129.663L91.1296 130.938L96.7304 153.857C96.7304 153.857 108.695 152.582 115.318 141.638C121.934 130.686 126.008 117.192 126.008 117.192C126.008 117.192 125.167 89.4424 117.096 97.8374Z" fill="#FF725E"/>
<path d="M56.2434 149.278C56.2434 149.278 83.9796 154.825 94.0484 142.881L91.13 132.748C91.13 132.748 72.8096 137.083 67.083 135.218L56.2434 149.278Z" fill="#FFBE9D"/>
<path d="M94.5369 130.506C94.5369 130.506 98.7532 121.072 99.3117 120.954C99.8702 120.828 108.012 117.972 108.012 117.972C108.012 117.972 108.444 119.089 108.012 120.026L110.93 120.395C110.93 120.395 110.497 122.197 109.498 122.449L110.553 123.377C110.553 123.377 109.679 124.573 108.562 125.061C107.445 125.549 106.635 125.061 106.635 125.061C106.635 125.061 107.005 125.738 105.329 126.792C103.654 127.846 100.798 129.404 100.798 129.404L94.5291 130.506H94.5369Z" fill="#FFBE9D"/>
<path d="M94.4972 130.537L94.5129 130.498C94.686 130.112 98.7449 121.056 99.3034 120.93C99.8541 120.804 107.917 117.98 107.996 117.948H108.011V117.964C108.011 117.972 108.436 119.081 108.019 120.002L110.938 120.372V120.395C110.914 120.466 110.497 122.165 109.529 122.449L110.568 123.369V123.385C110.568 123.385 109.671 124.589 108.562 125.077C107.602 125.494 106.863 125.195 106.666 125.1C106.721 125.281 106.761 125.911 105.329 126.807C103.669 127.854 100.822 129.404 100.79 129.42L94.4814 130.537H94.4972ZM107.996 117.995C107.547 118.153 99.8541 120.851 99.3192 120.97C98.8865 121.064 96.039 127.209 94.5758 130.474L100.798 129.38C100.908 129.325 103.693 127.799 105.329 126.776C106.965 125.745 106.627 125.077 106.627 125.069L106.588 124.998L106.658 125.037C106.658 125.037 107.469 125.517 108.562 125.037C109.592 124.589 110.426 123.519 110.529 123.377L109.459 122.433H109.498C110.411 122.197 110.851 120.623 110.906 120.411L107.98 120.041L107.996 120.017C108.389 119.168 108.059 118.153 107.996 118.003V117.995Z" fill="#EB996E"/>
<path d="M107.751 120.056C107.791 120.174 105.407 121.103 102.426 122.133C101.686 122.401 100.947 122.605 100.365 122.881C99.7749 123.156 99.4051 123.613 99.1456 124.037C98.6579 124.911 98.4769 125.548 98.4061 125.524C98.3668 125.509 98.4297 124.864 98.8702 123.888C99.0984 123.416 99.5153 122.841 100.176 122.519C100.821 122.188 101.537 121.992 102.284 121.716C105.265 120.686 107.72 119.946 107.759 120.064L107.751 120.056Z" fill="#EB996E"/>
<path d="M109.647 122.448C109.663 122.504 109.112 122.747 108.176 122.983C107.24 123.235 105.926 123.448 104.534 123.825C103.142 124.203 101.97 124.793 101.238 125.375C100.499 125.95 100.168 126.453 100.105 126.414C100.066 126.398 100.302 125.816 101.033 125.139C101.749 124.463 102.976 123.786 104.416 123.4C105.855 123.015 107.169 122.85 108.113 122.684C109.057 122.527 109.631 122.393 109.655 122.456L109.647 122.448Z" fill="#EB996E"/>
<path d="M102.19 126.744C102.111 126.666 102.882 125.871 104.14 125.422C105.399 124.966 106.5 125.092 106.484 125.21C106.484 125.344 105.454 125.415 104.282 125.839C103.11 126.249 102.26 126.847 102.182 126.744H102.19Z" fill="#EB996E"/>
<path d="M91.9798 133.4L68.7431 126.901L61.8208 134.447C61.8208 134.447 85.4666 152.983 96.2748 152.684" fill="#FFBE9D"/>
<path d="M96.2748 152.685C96.2748 152.685 95.2286 152.819 93.38 152.481C91.5315 152.158 88.9277 151.316 85.8835 149.924C79.7794 147.146 71.8974 142.244 63.7166 136.163C63.0322 135.643 62.3557 135.132 61.6871 134.62L61.4983 134.479L61.6635 134.298C64.0941 131.654 66.4304 129.113 68.5936 126.76L68.6801 126.666L68.806 126.697C75.5709 128.625 81.3526 130.27 85.4981 131.45C87.5197 132.04 89.1323 132.512 90.2886 132.85C90.8156 133.015 91.2325 133.141 91.5551 133.244C91.8461 133.338 91.9877 133.393 91.9877 133.401C91.9877 133.409 91.8304 133.385 91.5393 133.314C91.2089 133.228 90.7842 133.126 90.2493 132.992C89.0851 132.685 87.4646 132.244 85.4273 131.709C81.2739 130.568 75.4687 128.971 68.688 127.114L68.9004 127.052C66.745 129.412 64.4166 131.953 61.986 134.605L61.9624 134.282C62.631 134.786 63.2996 135.297 63.984 135.816C72.1491 141.89 79.9839 146.816 86.0173 149.648C89.03 151.064 91.5944 151.946 93.4115 152.315C93.8677 152.418 94.2689 152.496 94.6307 152.528C94.9847 152.575 95.2836 152.622 95.5275 152.63C96.0152 152.654 96.2748 152.677 96.2748 152.693V152.685Z" fill="#EB996E"/>
<path d="M107.193 106.91C107.256 106.925 107.122 107.634 106.855 108.759C106.587 109.884 106.194 111.442 105.738 113.149C105.274 114.856 104.833 116.398 104.495 117.5C104.157 118.601 103.913 119.286 103.858 119.27C103.803 119.254 103.936 118.546 104.196 117.421C104.456 116.296 104.857 114.738 105.313 113.039C105.777 111.331 106.218 109.797 106.556 108.688C106.894 107.578 107.138 106.902 107.193 106.918V106.91Z" fill="#263238"/>
<path d="M106.115 138.003C106.036 138.019 105.816 136.854 105.234 135.06C104.927 134.171 104.495 133.125 103.732 132.165C102.976 131.221 101.859 130.332 100.483 130.111C99.1062 129.915 97.7533 130.348 96.5183 130.568C95.3147 130.804 94.2135 131.024 93.2381 131.221C92.7661 131.307 92.3492 131.378 92.0345 131.536C91.712 131.685 91.5154 131.921 91.4288 132.149C91.2479 132.629 91.5075 132.889 91.4682 132.905C91.4682 132.944 91.1142 132.692 91.2715 132.094C91.3344 131.819 91.5704 131.496 91.9244 131.307C92.2784 131.111 92.7189 131.016 93.1751 130.906C94.1427 130.686 95.2361 130.434 96.4317 130.167C97.651 129.931 99.0119 129.466 100.546 129.671C102.08 129.915 103.267 130.89 104.046 131.905C104.841 132.936 105.25 134.038 105.525 134.958C105.793 135.879 105.934 136.642 106.021 137.169C106.107 137.696 106.139 137.987 106.107 137.995L106.115 138.003Z" fill="#263238"/>
<path d="M109.521 132.976C109.395 133.047 108.735 131.166 106.815 129.852C104.927 128.523 102.969 128.318 103 128.176C103 128.121 103.496 128.106 104.259 128.271C105.022 128.428 106.076 128.798 107.067 129.498C108.058 130.198 108.75 131.08 109.112 131.78C109.474 132.48 109.568 132.968 109.521 132.984V132.976Z" fill="#263238"/>
<path d="M126.009 117.193C126.009 117.193 125.978 117.366 125.875 117.68C125.757 118.042 125.6 118.491 125.411 119.049C124.986 120.293 124.396 122 123.681 124.077C122.941 126.194 122.068 128.735 120.833 131.449C119.535 134.132 118.135 137.075 116.365 140.041C114.595 142.999 112.424 145.533 110.127 147.453C107.846 149.388 105.494 150.757 103.417 151.638C101.333 152.52 99.5314 152.913 98.2806 153.086C97.6514 153.165 97.1715 153.212 96.8333 153.22C96.5029 153.236 96.3298 153.236 96.3298 153.22C96.3298 153.173 97.0221 153.141 98.2571 152.921C99.4842 152.7 101.254 152.26 103.291 151.363C107.358 149.593 112.526 145.737 115.987 139.821C117.734 136.894 119.158 133.943 120.463 131.292C121.706 128.609 122.611 126.091 123.39 123.983C124.16 121.874 124.79 120.167 125.246 118.994C125.466 118.452 125.647 118.003 125.789 117.649C125.915 117.342 125.993 117.185 126.009 117.193Z" fill="#263238"/>
<path d="M118.827 98.4352C118.874 98.5611 116.915 99.2535 114.736 100.552C112.55 101.834 110.992 103.211 110.906 103.117C110.827 103.046 112.274 101.488 114.516 100.174C116.75 98.8444 118.811 98.3251 118.835 98.4352H118.827Z" fill="#263238"/>
<path d="M67.3031 117.641C67.1851 117.618 67.4919 115.682 67.9874 113.322C68.483 110.962 68.9865 109.065 69.1044 109.089C69.2224 109.113 68.9157 111.048 68.4201 113.416C67.9245 115.777 67.4211 117.673 67.3031 117.649V117.641Z" fill="#263238"/>
<path d="M99.8299 159.278C99.8299 159.278 99.3893 159.538 98.5477 159.923C98.1308 160.12 97.6116 160.356 96.998 160.592C96.3845 160.836 95.7001 161.127 94.9135 161.387C93.356 161.953 91.4602 162.504 89.3285 163.008C87.1889 163.48 84.8133 163.889 82.2961 164.117C79.7789 164.33 77.364 164.353 75.1772 164.259C72.9904 164.141 71.0238 163.928 69.3955 163.645C68.5774 163.527 67.8459 163.362 67.2008 163.228C66.5558 163.102 66.0052 162.968 65.5647 162.842C64.6679 162.606 64.1802 162.457 64.1881 162.433C64.1881 162.402 64.6994 162.496 65.604 162.677C66.0524 162.772 66.603 162.89 67.2559 162.992C67.9009 163.094 68.6325 163.244 69.4506 163.338C71.0789 163.582 73.0297 163.755 75.2008 163.857C77.3718 163.928 79.7632 163.897 82.2646 163.684C84.7661 163.456 87.1259 163.063 89.2498 162.614C91.3737 162.142 93.2616 161.623 94.8191 161.096C95.6057 160.86 96.2979 160.584 96.9194 160.372C97.5408 160.16 98.06 159.947 98.4847 159.774C99.3421 159.436 99.822 159.255 99.8377 159.286L99.8299 159.278Z" fill="#263238"/>
<path d="M79.4955 172.284C79.4719 172.402 77.1671 171.937 74.4296 171.017C71.6843 170.104 69.5683 169.097 69.6155 168.987C69.6627 168.869 71.8417 169.695 74.5712 170.6C77.2929 171.512 79.5269 172.158 79.5033 172.284H79.4955Z" fill="#263238"/>
<g opacity="0.3">
<path d="M89.1239 151.324C87.4798 150.631 85.9066 149.703 84.1446 149.436C82.005 149.113 80.2115 149.742 78.0719 150.081C71.7002 151.08 66.9412 150.317 60.9314 150.057L60.6089 151.906C63.2519 153.967 66.5793 154.628 69.9382 154.565C72.9824 154.51 75.9716 153.519 79.0158 153.606C81.415 153.668 83.7434 154.408 86.0639 155.022C89.942 156.052 94.0088 156.768 97.9655 156.084C101.922 155.399 105.777 153.094 107.436 149.436C102.174 153.078 95.0314 153.818 89.1317 151.332L89.1239 151.324Z" fill="black"/>
</g>
<g opacity="0.3">
<path d="M70.3005 169.837C72.8413 174.141 77.5217 177.099 82.501 177.54C83.5787 177.634 84.6878 177.618 85.7104 177.28C86.7409 176.942 87.6849 176.241 88.1332 175.258C87.032 174.44 85.6711 174.062 84.3496 173.692C79.7164 172.418 75.0832 171.143 70.45 169.876" fill="black"/>
</g>
<path d="M62.8119 134.258L53.8445 134.589C52.9477 134.62 52.1139 133.802 51.7284 132.52L44.9163 109.49C44.2634 107.295 45.2074 104.848 46.7413 104.746L59.6419 103.936C60.6173 103.873 61.514 104.817 61.8601 106.257L66.4776 125.73C67.4609 129.86 65.6123 134.148 62.8119 134.251V134.258Z" fill="#455A64"/>
<path d="M56.4954 124.612C55.4885 125.651 49.872 121.087 48.2123 121.434C46.5604 121.772 45.5535 122.732 46.4738 123.432C47.3942 124.132 49.7147 126.461 50.0766 127.437C50.0766 127.437 50.2496 123.353 49.8091 124.014C49.3686 124.675 48.6292 125.729 49.699 126.194C50.7688 126.658 49.1169 130.261 49.9114 130.71C50.7059 131.158 53.4826 132.118 54.049 132.142C54.3479 132.158 56.4403 132.976 58.3675 133.755C60.5386 134.628 62.9457 134.683 65.1482 133.912L66.2731 133.519C68.0272 132.905 69.1914 131.245 69.1678 129.388L69.1285 125.667L70.4658 122.661L68.0823 117.618L64.1649 116.312L65.6752 120.993C64.1335 121.733 61.514 122.26 60.1925 121.528C58.8631 120.796 53.6636 115.619 52.6803 116.115C51.697 116.611 50.8239 117.799 51.7206 118.932C52.6174 120.065 57.4944 123.589 56.4875 124.628" fill="#FFBE9D"/>
<path d="M36.4755 294.913C36.4755 294.913 36.5148 294.826 36.6092 294.677C36.7194 294.511 36.8609 294.283 37.0419 294.008C37.443 293.402 38.0173 292.544 38.7488 291.451C40.2591 289.216 42.4224 286.022 45.089 282.08C50.4852 274.173 57.9188 263.284 66.1311 251.262C67.7201 248.941 69.2854 246.667 70.7722 244.487L70.7407 244.582C71.7869 231.993 72.7151 220.899 73.3759 212.921C73.722 208.964 74.0052 205.785 74.194 203.559C74.2962 202.481 74.3749 201.639 74.4299 201.041C74.4614 200.773 74.485 200.553 74.5007 200.388C74.5165 200.238 74.5322 200.167 74.5401 200.167C74.5401 200.167 74.5401 200.246 74.5401 200.388C74.5322 200.553 74.5165 200.773 74.5086 201.041C74.4693 201.639 74.4142 202.489 74.3355 203.566C74.1704 205.793 73.9344 208.972 73.6355 212.937C73.0062 220.915 72.1251 232.017 71.134 244.605V244.66L71.1025 244.708C69.6158 246.887 68.0504 249.161 66.4615 251.482C58.2098 263.48 50.7448 274.346 45.3171 282.23C42.6033 286.14 40.4086 289.311 38.8668 291.522C38.1117 292.6 37.5138 293.441 37.0969 294.039C36.9003 294.307 36.743 294.527 36.625 294.685C36.5148 294.826 36.4598 294.905 36.4519 294.897L36.4755 294.913Z" fill="#455A64"/>
<path d="M82.5798 193.858C82.6428 193.96 80.6448 195.211 78.4422 197.075C76.2239 198.932 74.6507 200.679 74.5563 200.6C74.517 200.569 74.8552 200.081 75.4924 199.365C76.1217 198.649 77.0578 197.705 78.1748 196.761C79.2918 195.825 80.3852 195.061 81.1954 194.566C82.0135 194.07 82.5484 193.81 82.572 193.858H82.5798Z" fill="#455A64"/>
<path d="M74.7292 200.341C74.7135 200.443 73.5021 200.262 72.2278 199.483C70.9535 198.712 70.2298 197.721 70.3163 197.658C70.4028 197.579 71.2288 198.397 72.4402 199.129C73.6437 199.868 74.7607 200.223 74.7292 200.341Z" fill="#455A64"/>
<path d="M104.519 190.372C104.503 190.49 102.363 190.23 99.7125 190.081C97.0616 189.931 94.9062 189.947 94.9062 189.829C94.9062 189.719 97.0616 189.514 99.7361 189.672C102.411 189.821 104.534 190.27 104.519 190.372Z" fill="#455A64"/>
<path d="M58.5092 181.033C58.5249 181.08 58.2024 181.261 57.6281 181.402C57.0539 181.544 56.2122 181.615 55.3155 181.457C54.4109 181.292 53.6478 180.938 53.1601 180.6C52.6646 180.262 52.4286 179.978 52.4601 179.947C52.5308 179.845 53.6714 180.765 55.3863 181.056C57.0932 181.379 58.4856 180.907 58.517 181.033H58.5092Z" fill="#455A64"/>
<path d="M124.05 115.076C124.05 115.076 123.838 115.234 123.421 115.446C123.004 115.666 122.375 115.926 121.572 116.186C120.778 116.453 119.795 116.681 118.693 116.847C117.584 116.988 116.357 117.051 115.075 116.965C113.793 116.87 112.581 116.634 111.504 116.343C110.434 116.028 109.498 115.666 108.743 115.289C107.987 114.919 107.397 114.573 107.02 114.297C106.634 114.03 106.43 113.873 106.446 113.849C106.485 113.786 107.35 114.36 108.861 115.029C109.616 115.367 110.544 115.698 111.598 115.981C112.66 116.249 113.84 116.461 115.098 116.563C116.357 116.642 117.561 116.595 118.646 116.477C119.732 116.343 120.699 116.146 121.494 115.918C123.091 115.47 124.019 115.013 124.05 115.084V115.076Z" fill="white"/>
<path d="M62.9848 111.481C63.0241 111.37 64.0074 111.622 65.2424 111.709C66.4774 111.803 67.4921 111.685 67.5157 111.803C67.5393 111.905 66.5167 112.212 65.2188 112.118C63.9209 112.031 62.9455 111.583 62.9848 111.481Z" fill="white"/>
<path d="M105.604 111.268C105.612 111.378 97.2423 112.205 86.8983 113.102C76.5542 114.006 68.1688 114.644 68.1531 114.526C68.1452 114.415 76.5149 113.589 86.8589 112.692C97.1951 111.795 105.588 111.15 105.596 111.268H105.604Z" fill="white"/>
<path d="M99.8382 92.8178C100.208 92.0939 100.381 91.2914 100.357 90.481L99.4134 59.8985C99.7753 51.3854 95.1263 44.0761 86.5994 43.9424L85.8128 43.9739C77.8836 44.32 71.5435 50.7009 71.2445 58.6317C70.9692 66.0118 70.7647 74.1708 70.985 78.1205C71.4412 86.2874 79.6693 87.2001 79.6693 87.2001L79.9367 90.3866C79.9367 90.3866 79.2995 95.9098 85.7026 97.7824C90.619 99.2222 96.0152 96.1223 98.2492 94.6116C98.9257 94.1553 99.4685 93.5337 99.8303 92.8099L99.8382 92.8178Z" fill="#FFBE9D"/>
<path d="M79.6067 87.2001C79.6067 87.2001 84.8378 87.2867 90.1711 83.6045C90.1711 83.6045 87.9056 89.592 79.7247 89.2143L79.5989 87.208L79.6067 87.2001Z" fill="#EB996E"/>
<path d="M75.8065 65.2407C75.8065 65.8544 76.3414 66.3658 76.9786 66.3658C77.6236 66.3658 78.1427 65.878 78.1349 65.2643C78.1349 64.6506 77.6 64.1392 76.9628 64.1313C76.3178 64.1313 75.7986 64.6192 75.8065 65.2329V65.2407Z" fill="#263238"/>
<path d="M73.1796 62.5656C73.3291 62.7151 74.1865 62.0149 75.4451 61.9677C76.6958 61.8969 77.6476 62.5027 77.7735 62.3453C77.8364 62.2745 77.6791 62.007 77.2622 61.7316C76.8532 61.4563 76.1688 61.2045 75.39 61.2438C74.6113 61.2832 73.9663 61.5979 73.5966 61.9126C73.2268 62.2273 73.101 62.5027 73.1796 62.5735V62.5656Z" fill="#263238"/>
<path d="M87.9603 65.2412C87.9603 65.8549 88.4952 66.3663 89.1324 66.3663C89.7774 66.3663 90.2966 65.8785 90.2887 65.2648C90.2887 64.6511 89.7538 64.1396 89.1166 64.1396C88.4716 64.1396 87.9524 64.6275 87.9603 65.2412Z" fill="#263238"/>
<path d="M85.529 62.259C85.6785 62.4085 86.5359 61.7161 87.7945 61.661C89.0452 61.5902 89.997 62.196 90.1229 62.0387C90.1858 61.9679 90.0285 61.7004 89.6116 61.425C89.2026 61.1496 88.5182 60.8978 87.7394 60.9372C86.9607 60.9765 86.3157 61.2912 85.9459 61.606C85.5762 61.9207 85.4582 62.2039 85.529 62.2669V62.259Z" fill="#263238"/>
<path d="M81.3846 71.7707C81.3846 71.6999 80.5979 71.5976 79.3315 71.4875C79.009 71.4717 78.7022 71.4167 78.6393 71.2042C78.5527 70.9761 78.6707 70.622 78.8123 70.2443C79.0798 69.4576 79.363 68.6314 79.654 67.7581C80.8182 64.2254 81.652 61.3221 81.5026 61.2828C81.361 61.2356 80.299 64.068 79.1348 67.6007C78.8517 68.4741 78.5842 69.3002 78.3325 70.0948C78.2302 70.4646 78.0336 70.8895 78.2224 71.3616C78.3167 71.5976 78.5606 71.7628 78.773 71.8101C78.9775 71.8651 79.1584 71.8573 79.3236 71.8651C80.5979 71.8809 81.3924 71.8494 81.3924 71.7786L81.3846 71.7707Z" fill="#263238"/>
<path d="M84.9944 57.3491C85.136 57.6874 86.3789 57.4671 87.8577 57.5852C89.3444 57.6717 90.548 58.0494 90.7289 57.7346C90.8075 57.5852 90.5873 57.2704 90.0917 56.9636C89.604 56.6567 88.8253 56.3735 87.9364 56.3106C87.0475 56.2555 86.2451 56.4286 85.7181 56.6725C85.1832 56.9164 84.9236 57.1918 84.9865 57.357L84.9944 57.3491Z" fill="#263238"/>
<path d="M73.4865 58.9073C73.7224 59.1827 74.572 58.8522 75.6103 58.7893C76.6487 58.6949 77.5375 58.8994 77.7263 58.5926C77.805 58.4431 77.6555 58.1677 77.2622 57.9081C76.8689 57.6563 76.2239 57.4596 75.5159 57.5147C74.8001 57.5698 74.1944 57.853 73.8483 58.1598C73.4943 58.4667 73.3842 58.7657 73.4865 58.8994V58.9073Z" fill="#263238"/>
<path d="M98.4463 67.9077C98.4463 66.6409 99.4846 65.6024 100.751 65.6653C102.277 65.744 104.016 66.5387 104.047 69.6858C104.11 75.2799 98.4856 74.1941 98.4699 74.0289C98.4699 73.9187 98.4542 70.2444 98.4463 67.8998V67.9077Z" fill="#FFBE9D"/>
<path d="M99.6655 71.9129C99.6655 71.9129 99.7599 71.9837 99.933 72.0545C100.09 72.1253 100.373 72.1725 100.665 72.0545C101.255 71.8342 101.742 70.89 101.758 69.8751C101.766 69.3636 101.656 68.8837 101.467 68.4824C101.294 68.0733 101.026 67.7901 100.727 67.7429C100.429 67.6799 100.224 67.8609 100.153 68.0182C100.082 68.1756 100.114 68.2858 100.09 68.2936C100.075 68.3094 99.9723 68.1992 100.012 67.971C100.035 67.8609 100.098 67.7271 100.224 67.617C100.358 67.5068 100.554 67.4518 100.759 67.4675C101.192 67.4911 101.585 67.8845 101.789 68.3251C102.018 68.7657 102.151 69.3086 102.143 69.8829C102.12 71.008 101.553 72.0702 100.751 72.3141C100.358 72.4243 100.027 72.3141 99.8622 72.1804C99.6891 72.0466 99.6577 71.9207 99.6734 71.905L99.6655 71.9129Z" fill="#EB996E"/>
<path d="M71.2601 58.4037C71.1814 59.5366 69.7341 55.7128 70.3162 54.7372C68.7115 55.1778 66.855 53.9583 66.6269 52.306C66.3988 50.6538 67.8383 48.97 69.5059 48.9543C68.9081 47.9472 69.1284 46.531 69.9936 45.7521C70.2926 45.4846 70.914 45.2564 71.6455 45.1069C71.622 44.4224 71.8029 43.73 72.1175 43.1163C72.8019 41.7788 74.1313 40.7953 75.6101 40.5199C77.089 40.2445 78.6779 40.6851 79.8028 41.6765C80.7467 40.394 82.3357 39.623 83.9247 39.6781C85.5137 39.7331 87.0476 40.6065 87.905 41.9519C89.3366 41.0785 91.2481 41.0549 92.6955 41.8968C93.6159 42.4318 94.3238 43.2894 94.7093 44.2808C96.0859 43.5333 97.9895 43.7615 99.0514 44.9495C99.4919 45.4374 99.7908 46.0589 100.294 46.4759C100.876 46.9637 101.655 47.1211 102.324 47.483C104.377 48.5924 104.865 51.7867 103.236 53.4626C104.007 54.092 104.794 54.7451 105.321 55.5869C105.848 56.4288 106.092 57.5224 105.698 58.4351C105.226 59.5366 103.968 60.1425 103.512 61.2518C103.299 61.7632 103.276 62.3376 103.071 62.849C102.733 63.7223 101.985 64.2495 101.104 64.5957C100.577 66.8459 99.0042 67.4596 98.9649 68.1205C98.5008 75.0757 95.6375 71.0395 94.2058 56.3737C93.8676 52.9276 95.1262 51.1731 92.4123 49.0566C92.0269 49.4579 91.7516 49.9771 91.4133 50.4256C89.8322 52.5106 86.2767 52.6365 84.554 50.6695C83.9247 51.7395 82.7684 52.4791 81.5412 52.5971C80.3062 52.723 79.0319 52.2274 78.1981 51.3068C77.1912 52.2037 74.855 53.7144 73.0851 52.1015C73.0851 52.1015 71.5354 54.5799 71.2522 58.4115L71.2601 58.4037Z" fill="#263238"/>
<path d="M81.0296 74.5799C81.2341 75.0913 81.4386 75.6106 81.7768 76.0433C82.1151 76.4761 82.6107 76.8223 83.1613 76.8459C83.7513 76.8773 84.3098 76.5233 84.6401 76.0355C84.9705 75.5477 85.0806 74.9418 85.0492 74.3518C85.0256 73.8246 84.7817 73.1873 84.2547 73.1244C84.0344 73.1008 83.8221 73.1794 83.6175 73.266C82.6972 73.6436 81.769 74.0134 80.8486 74.3911" fill="#EB996E"/>
<path d="M82.1389 76.8617C82.1546 76.7752 82.7603 77.0191 83.6177 76.6808C84.0346 76.5155 84.483 76.1851 84.7347 75.6658C84.9864 75.1544 85.0336 74.462 84.774 73.8562C84.7111 73.7067 84.6246 73.5651 84.5302 73.4392C84.4201 73.3212 84.4437 73.329 84.3178 73.3448C84.2077 73.3762 84.0189 73.4628 83.8773 73.5179C83.72 73.5808 83.5705 73.6438 83.421 73.7067C82.8311 73.9427 82.2883 74.1552 81.8399 74.3283C80.9353 74.6666 80.3611 74.8475 80.3296 74.7846C80.306 74.7217 80.8252 74.4305 81.6984 74.0057C82.131 73.7932 82.658 73.5493 83.2401 73.2897C83.3896 73.2268 83.539 73.1559 83.6885 73.0851C83.8537 73.0222 83.9717 72.9435 84.1919 72.8806C84.3021 72.8491 84.4515 72.8334 84.601 72.8963C84.7504 72.9592 84.837 73.0537 84.9078 73.1402C85.0336 73.3054 85.1437 73.4785 85.2224 73.6674C85.5449 74.4227 85.4663 75.2645 85.1359 75.8861C84.7976 76.5234 84.2234 76.8775 83.7278 77.0269C83.2323 77.1843 82.7996 77.145 82.5243 77.0742C82.249 77.0033 82.1231 76.9089 82.131 76.8775L82.1389 76.8617Z" fill="#263238"/>
<path d="M58.8622 71.827L53.4424 62.2675C55.8416 58.3729 57.226 53.7859 57.226 48.8763C57.226 34.7535 45.7807 23.3057 31.6609 23.3057C17.541 23.3057 6.0957 34.7456 6.0957 48.8685C6.0957 62.9913 17.541 74.4391 31.6609 74.4391C37.5605 74.4391 42.9803 72.4407 47.3067 69.0811H47.2989L58.8622 71.8191V71.827Z" fill="#FAFAFA"/>
<path d="M58.8627 71.8263C58.312 71.7005 54.6543 70.8665 47.2758 69.1749L47.1578 69.1513L47.2286 69.0568H47.2364L47.3466 69.1591C45.8913 70.2921 44.145 71.4015 42.0841 72.3299C40.031 73.2426 37.6711 73.99 35.0674 74.3362C33.7695 74.5014 32.4086 74.6116 31.0163 74.5408C30.3162 74.5014 29.6083 74.4857 28.8924 74.4227C28.1845 74.3126 27.4608 74.2103 26.7292 74.0923C23.8345 73.5179 20.8689 72.4243 18.1079 70.7091C15.3468 69.0018 12.7903 66.6807 10.7451 63.8326C8.69989 60.9844 7.15025 57.6169 6.42656 53.9505C5.71074 50.2919 5.7658 46.3658 6.72548 42.5735C7.69302 38.7891 9.50225 35.0911 12.2082 32.0541L13.2544 30.9054C13.6005 30.5199 14.0096 30.1973 14.3793 29.8433C14.7726 29.5049 15.1187 29.1273 15.5356 28.8283L16.7628 27.9078C17.1639 27.5852 17.5966 27.3255 18.0371 27.0659C18.4697 26.8062 18.9024 26.5387 19.335 26.2791C19.7912 26.0588 20.2396 25.8385 20.6959 25.6182C21.1521 25.4058 21.5926 25.1619 22.0646 25.0045C25.7774 23.5332 29.742 22.9667 33.5256 23.2421C37.3171 23.5175 40.9356 24.6032 44.0506 26.3499C47.1735 28.0887 49.8008 30.4019 51.8303 32.9983C53.8676 35.5868 55.2993 38.4507 56.1882 41.291C57.0692 44.1471 57.313 46.9874 57.2973 49.6074C57.2186 52.2353 56.7388 54.6665 56.0466 56.7908C55.3465 58.923 54.4261 60.7562 53.4822 62.2983V62.2196C56.904 68.3487 58.5795 71.3464 58.8391 71.8185C58.5716 71.3543 56.8568 68.3802 53.3485 62.2983L53.3249 62.259L53.3485 62.2196C54.2767 60.6775 55.1813 58.8522 55.8657 56.7357C56.55 54.6193 57.0141 52.2117 57.0771 49.6074C57.0771 47.0031 56.8332 44.1943 55.9522 41.3697C55.0633 38.553 53.6395 35.7284 51.6179 33.1714C49.6042 30.6143 47.0004 28.3247 43.909 26.6095C40.8333 24.8865 37.2463 23.8164 33.502 23.5489C29.7577 23.2814 25.8482 23.84 22.1747 25.2956C21.7027 25.4451 21.2701 25.689 20.8217 25.9014C20.3733 26.1217 19.925 26.3342 19.4766 26.5545C19.0518 26.8141 18.627 27.0738 18.1944 27.3334C17.7618 27.593 17.3291 27.8448 16.9358 28.1674L15.7244 29.0722C15.3075 29.3633 14.9614 29.741 14.5759 30.0714C14.2062 30.4255 13.8051 30.7402 13.4668 31.1179L12.4363 32.2508C9.76183 35.2564 7.9762 38.9071 7.01653 42.6443C6.06471 46.3973 6.00178 50.2683 6.70974 53.8875C7.42557 57.5068 8.95161 60.8428 10.9732 63.6595C12.9948 66.4762 15.5199 68.7815 18.2416 70.4731C20.9712 72.1725 23.8974 73.274 26.7607 73.8484C27.4844 73.9585 28.2002 74.0687 28.9003 74.1788C29.6083 74.2418 30.3084 74.2575 31.0006 74.2969C32.385 74.3677 33.7302 74.2654 35.0123 74.108C37.5925 73.7776 39.9287 73.0459 41.9739 72.1489C44.0191 71.2363 45.7576 70.1426 47.2128 69.0254L47.6927 68.6634L47.3308 69.1355H47.323L47.2758 69.0254C54.6228 70.8114 58.2727 71.6926 58.8233 71.8263H58.8627Z" fill="#263238"/>
<path d="M24.4559 48.8601C24.4559 50.292 23.2917 51.4565 21.86 51.4565C20.4284 51.4565 19.2642 50.292 19.2642 48.8601C19.2642 47.4281 20.4284 46.2637 21.86 46.2637C23.2917 46.2637 24.4559 47.4281 24.4559 48.8601Z" fill="#263238"/>
<path d="M34.8545 48.8601C34.8545 50.292 33.6903 51.4565 32.2587 51.4565C30.827 51.4565 29.6628 50.292 29.6628 48.8601C29.6628 47.4281 30.827 46.2637 32.2587 46.2637C33.6903 46.2637 34.8545 47.4281 34.8545 48.8601Z" fill="#263238"/>
<path d="M45.2148 47.5619C45.9306 48.805 45.5058 50.3944 44.263 51.1103C43.0201 51.8263 41.4311 51.4015 40.7153 50.1583C39.9995 48.9152 40.4243 47.3259 41.6671 46.6099C42.91 45.8939 44.4989 46.3188 45.2148 47.5619Z" fill="#263238"/>
<path d="M304.643 246.069V236.462C292.647 236.462 294.653 229.05 294.653 204.369C294.653 187.421 295.18 178.428 288.407 178.428C282.153 178.428 280.651 182.819 280.651 202.103C280.651 237.807 285.418 246.069 304.635 246.069H304.643Z" fill="#455A64"/>
<path d="M317.15 275.825V266.219C329.146 266.219 327.14 258.807 327.14 234.126C327.14 217.178 326.613 208.185 333.386 208.185C339.64 208.185 341.142 212.575 341.142 231.86C341.142 267.564 336.375 275.825 317.158 275.825H317.15Z" fill="#455A64"/>
<g opacity="0.3">
<path d="M321.343 265.762L323.215 275.463L319.95 275.754L319.463 266.1L321.343 265.762Z" fill="black"/>
</g>
<path d="M311.219 147.987C301.724 147.987 302.424 160.411 302.424 175.627V296.635H320.005V175.627C320.005 160.411 320.705 147.987 311.211 147.987H311.219Z" fill="#455A64"/>
<path d="M306.114 297.021C306.114 297.021 306.098 296.887 306.098 296.635C306.098 296.36 306.098 295.982 306.091 295.502C306.091 294.479 306.091 293.016 306.091 291.136C306.114 287.327 306.146 281.844 306.193 275.085C306.319 261.513 306.5 242.803 306.688 222.126C306.932 201.449 307.153 182.732 307.318 169.16C307.365 165.776 307.404 162.7 307.601 160.009C307.798 157.318 308.144 155.013 308.584 153.164C309.017 151.315 309.505 149.915 309.882 148.994C310.063 148.53 310.236 148.184 310.338 147.956C310.448 147.72 310.511 147.609 310.511 147.609C310.511 147.609 310.472 147.735 310.378 147.971C310.291 148.215 310.134 148.554 309.961 149.026C309.615 149.954 309.158 151.354 308.749 153.203C308.34 155.052 308.026 157.35 307.853 160.025C307.68 162.708 307.656 165.768 307.632 169.16C307.506 182.732 307.326 201.449 307.137 222.126C306.893 242.795 306.673 261.513 306.507 275.077C306.405 281.836 306.327 287.32 306.264 291.128C306.224 293.008 306.193 294.472 306.177 295.494C306.161 295.974 306.154 296.352 306.146 296.627C306.138 296.879 306.122 297.013 306.122 297.013L306.114 297.021Z" fill="#263238"/>
<path d="M314.051 296.84C314.051 296.84 314.035 296.706 314.035 296.455C314.035 296.179 314.035 295.802 314.02 295.322C314.02 294.307 314.02 292.843 314.02 290.979C314.035 287.186 314.059 281.726 314.091 274.999C314.193 261.482 314.342 242.851 314.5 222.268C314.712 201.678 314.901 183.047 315.034 169.53C315.074 166.154 315.105 163.11 314.987 160.434C314.885 157.759 314.649 155.462 314.35 153.605C314.059 151.748 313.713 150.324 313.461 149.364C313.335 148.9 313.233 148.538 313.154 148.279C313.084 148.035 313.06 147.901 313.06 147.901C313.06 147.901 313.862 149.852 314.515 153.582C314.838 155.446 315.105 157.744 315.223 160.427C315.365 163.11 315.357 166.162 315.333 169.538C315.231 183.055 315.082 201.686 314.924 222.276C314.712 242.859 314.523 261.49 314.389 275.007C314.303 281.742 314.224 287.194 314.177 290.986C314.146 292.859 314.114 294.315 314.098 295.329C314.083 295.809 314.075 296.187 314.067 296.462C314.059 296.714 314.043 296.848 314.043 296.848L314.051 296.84Z" fill="#263238"/>
<path d="M320.194 275.668C320.068 275.668 319.895 273.48 319.801 270.774C319.706 268.067 319.73 265.864 319.856 265.864C319.982 265.864 320.155 268.052 320.249 270.766C320.343 273.473 320.32 275.676 320.194 275.676V275.668Z" fill="#263238"/>
<path d="M333.85 208.295C333.85 208.295 333.882 208.531 333.897 208.987C333.913 209.483 333.929 210.144 333.944 210.978C333.968 212.748 334 215.234 334.039 218.287C334.07 224.503 334.118 233.008 334.173 242.402C334.196 247.107 334.165 251.639 333.331 255.675C332.552 259.712 330.877 263.15 328.863 265.526C326.873 267.926 324.67 269.31 323.058 269.94C321.437 270.585 320.47 270.648 320.47 270.648C320.454 270.593 321.414 270.467 322.995 269.783C324.568 269.114 326.7 267.713 328.627 265.329C330.578 262.969 332.19 259.594 332.938 255.597C333.74 251.608 333.764 247.115 333.74 242.41C333.74 233.008 333.74 224.503 333.74 218.295C333.764 215.242 333.779 212.756 333.787 210.986C333.803 210.152 333.811 209.491 333.826 208.995C333.842 208.539 333.858 208.303 333.866 208.303L333.85 208.295Z" fill="#263238"/>
<path d="M302.417 236.092C302.543 236.092 302.637 238.563 302.637 241.616C302.637 244.668 302.535 247.139 302.417 247.139C302.299 247.139 302.197 244.668 302.197 241.616C302.197 238.563 302.299 236.092 302.417 236.092Z" fill="#263238"/>
<path d="M287.943 178.444C287.943 178.444 287.966 178.688 287.959 179.153C287.951 179.656 287.943 180.333 287.927 181.175C287.872 182.976 287.801 185.502 287.715 188.602C287.526 194.873 287.172 203.543 287.29 213.11C287.4 217.894 287.361 222.481 288.352 226.494C289.288 230.506 290.916 233.952 292.985 236.281C295.038 238.642 297.335 239.877 298.979 240.412C300.639 240.947 301.638 240.923 301.63 240.986C301.63 240.986 300.639 241.073 298.932 240.577C297.241 240.089 294.873 238.87 292.749 236.494C290.609 234.141 288.926 230.648 287.951 226.588C286.92 222.512 286.952 217.886 286.842 213.11C286.716 203.527 287.125 194.857 287.392 188.586C287.542 185.486 287.66 182.961 287.746 181.159C287.793 180.317 287.833 179.64 287.864 179.137C287.896 178.673 287.919 178.437 287.935 178.437L287.943 178.444Z" fill="#263238"/>
<g opacity="0.3">
<path d="M300.033 245.88L300.395 236.006L302.441 236.352L302.425 246.03C302.425 246.03 300.395 245.912 300.041 245.88H300.033Z" fill="black"/>
</g>
<path d="M282.563 211.096C282.578 211.221 281.642 211.457 280.47 211.638C279.298 211.812 278.331 211.859 278.315 211.733C278.299 211.607 279.235 211.371 280.407 211.19C281.579 211.017 282.547 210.97 282.563 211.096Z" fill="#263238"/>
<path d="M282.35 201.536C282.326 201.654 281.359 201.568 280.179 201.332C279.007 201.096 278.071 200.813 278.102 200.687C278.126 200.569 279.093 200.655 280.273 200.891C281.445 201.127 282.373 201.411 282.35 201.536Z" fill="#263238"/>
<path d="M278.527 186.242C278.566 186.131 279.589 186.438 280.675 187.162C281.76 187.886 282.437 188.704 282.35 188.783C282.264 188.877 281.469 188.224 280.423 187.532C279.385 186.832 278.48 186.352 278.527 186.234V186.242Z" fill="#263238"/>
<path d="M284.687 176.469C284.805 176.422 285.277 177.335 285.741 178.507C286.213 179.679 286.496 180.671 286.386 180.718C286.276 180.765 285.796 179.852 285.332 178.68C284.86 177.508 284.576 176.516 284.687 176.469Z" fill="#263238"/>
<path d="M293.426 177.122C293.536 177.177 293.001 178.373 292.238 179.774C291.475 181.182 290.767 182.276 290.657 182.213C290.547 182.158 291.081 180.962 291.844 179.553C292.608 178.145 293.315 177.051 293.418 177.114L293.426 177.122Z" fill="#263238"/>
<path d="M296.368 188.578C296.399 188.696 295.573 189.034 294.519 189.325C293.465 189.616 292.584 189.758 292.545 189.64C292.513 189.522 293.339 189.184 294.393 188.892C295.447 188.601 296.328 188.46 296.368 188.578Z" fill="#263238"/>
<path d="M291.482 200.899C291.388 200.986 290.845 200.529 290.255 199.884C289.665 199.239 289.264 198.649 289.358 198.562C289.453 198.476 289.996 198.932 290.586 199.577C291.176 200.222 291.577 200.813 291.482 200.899Z" fill="#263238"/>
<path d="M295.495 213.244C295.408 213.33 294.629 212.74 293.756 211.914C292.875 211.088 292.238 210.348 292.317 210.262C292.403 210.175 293.182 210.765 294.055 211.592C294.936 212.418 295.573 213.157 295.495 213.244Z" fill="#263238"/>
<path d="M283.624 218.531C283.711 218.618 283.019 219.405 282.075 220.286C281.139 221.167 280.305 221.804 280.226 221.718C280.147 221.631 280.832 220.844 281.776 219.963C282.712 219.082 283.546 218.445 283.624 218.531Z" fill="#263238"/>
<path d="M285.111 229.365C284.993 229.325 285.134 228.578 285.433 227.705C285.724 226.823 286.062 226.147 286.173 226.178C286.291 226.218 286.149 226.965 285.85 227.838C285.559 228.72 285.221 229.396 285.111 229.357V229.365Z" fill="#263238"/>
<path d="M286.204 241.914C286.094 241.867 286.519 240.679 287.164 239.271C287.801 237.862 288.415 236.761 288.525 236.808C288.635 236.855 288.21 238.043 287.565 239.452C286.928 240.86 286.315 241.962 286.204 241.914Z" fill="#263238"/>
<path d="M293.441 247.642C293.323 247.619 293.417 246.509 293.653 245.164C293.889 243.818 294.188 242.74 294.306 242.764C294.424 242.788 294.33 243.897 294.094 245.242C293.858 246.588 293.559 247.666 293.441 247.642Z" fill="#263238"/>
<path d="M297.233 228.673C297.209 228.791 296.281 228.688 295.172 228.444C294.063 228.2 293.182 227.901 293.205 227.783C293.229 227.665 294.157 227.768 295.266 228.012C296.375 228.255 297.256 228.554 297.233 228.673Z" fill="#263238"/>
<path d="M296.367 221.292C296.344 221.41 295.565 221.371 294.629 221.19C293.693 221.017 292.946 220.773 292.969 220.655C292.993 220.537 293.772 220.576 294.708 220.757C295.644 220.93 296.391 221.174 296.367 221.292Z" fill="#263238"/>
<g opacity="0.3">
<path d="M287.927 178.963C288.226 178.963 288.407 182.779 288.163 188.908C288.045 191.969 287.84 195.612 287.597 199.648C287.361 203.684 287.085 208.114 286.983 212.74C286.865 217.359 287.18 221.694 288.076 225.549C288.525 227.477 289.012 229.302 289.665 230.891C290.31 232.497 291.089 233.905 291.947 235.085C293.653 237.461 295.683 238.807 297.162 239.523C298.656 240.239 299.585 240.475 299.553 240.656C299.537 240.781 298.546 240.844 296.839 240.333C295.156 239.829 292.749 238.555 290.696 236.061C289.673 234.825 288.737 233.331 287.958 231.623C287.172 229.908 286.598 228.028 286.07 226.029C285.016 222.017 284.623 217.406 284.749 212.693C284.851 207.98 285.197 203.535 285.543 199.499C285.897 195.462 286.267 191.835 286.59 188.798C287.235 182.716 287.612 178.956 287.927 178.963Z" fill="black"/>
</g>
<path d="M328.965 252.3C328.965 252.426 328.1 252.52 327.03 252.52C325.96 252.52 325.095 252.418 325.095 252.3C325.095 252.182 325.96 252.08 327.03 252.08C328.1 252.08 328.965 252.182 328.965 252.3Z" fill="#263238"/>
<path d="M328.847 242.961C328.823 243.079 327.982 243 326.975 242.78C325.968 242.559 325.174 242.284 325.205 242.166C325.229 242.048 326.07 242.127 327.077 242.347C328.084 242.567 328.879 242.843 328.847 242.961Z" fill="#263238"/>
<path d="M329.303 232.512C329.295 232.638 328.289 232.654 327.069 232.552C325.842 232.449 324.859 232.268 324.867 232.143C324.875 232.017 325.881 232.001 327.101 232.103C328.328 232.206 329.311 232.387 329.303 232.512Z" fill="#263238"/>
<path d="M327.824 223.267C327.777 223.378 326.991 223.142 326.086 222.732C325.173 222.323 324.473 221.898 324.528 221.788C324.576 221.678 325.362 221.914 326.267 222.323C327.179 222.732 327.879 223.157 327.824 223.267Z" fill="#263238"/>
<path d="M328.737 215.415C328.674 215.518 327.809 215.085 326.912 214.314C326.015 213.543 325.457 212.764 325.543 212.685C325.638 212.599 326.33 213.236 327.203 213.975C328.069 214.723 328.8 215.305 328.737 215.415Z" fill="#263238"/>
<path d="M331.458 209.617C331.348 209.672 330.9 208.971 330.459 208.067C330.019 207.154 329.751 206.375 329.861 206.32C329.972 206.265 330.42 206.965 330.86 207.87C331.301 208.783 331.568 209.562 331.458 209.617Z" fill="#263238"/>
<path d="M339.215 207.571C339.309 207.65 338.885 208.327 338.381 209.153C337.87 209.979 337.469 210.671 337.351 210.616C337.241 210.569 337.469 209.774 337.996 208.917C338.523 208.059 339.121 207.485 339.215 207.563V207.571Z" fill="#263238"/>
<path d="M342.849 217.807C342.873 217.925 341.952 218.216 340.772 218.311C339.592 218.405 338.633 218.264 338.641 218.146C338.641 218.02 339.585 217.957 340.741 217.862C341.889 217.768 342.833 217.681 342.857 217.799L342.849 217.807Z" fill="#263238"/>
<path d="M342.731 225.203C342.786 225.313 341.992 225.856 340.954 226.415C339.915 226.973 339.026 227.343 338.963 227.233C338.908 227.123 339.703 226.58 340.741 226.021C341.779 225.463 342.668 225.093 342.731 225.203Z" fill="#263238"/>
<path d="M342.943 237.304C342.888 237.414 342.157 237.178 341.307 236.769C340.457 236.36 339.812 235.943 339.868 235.833C339.923 235.723 340.654 235.959 341.504 236.368C342.353 236.777 342.998 237.194 342.943 237.304Z" fill="#263238"/>
<path d="M342.267 243.976C342.322 244.086 341.724 244.479 340.937 244.857C340.151 245.235 339.474 245.447 339.419 245.337C339.364 245.227 339.962 244.833 340.749 244.456C341.535 244.078 342.212 243.866 342.267 243.976Z" fill="#263238"/>
<path d="M340.474 258.091C340.379 258.177 339.797 257.682 339.168 256.989C338.539 256.297 338.106 255.668 338.192 255.589C338.287 255.502 338.869 255.998 339.498 256.69C340.127 257.383 340.56 258.012 340.474 258.091Z" fill="#263238"/>
<path d="M335.903 270.396C335.777 270.404 335.596 269.397 335.281 268.193C334.975 266.982 334.644 266.014 334.762 265.959C334.872 265.912 335.392 266.824 335.714 268.083C336.037 269.334 336.021 270.396 335.903 270.404V270.396Z" fill="#263238"/>
<path d="M327.628 276.777C327.502 276.769 327.479 275.794 327.565 274.598C327.652 273.402 327.825 272.442 327.943 272.45C328.069 272.458 328.092 273.433 328.006 274.629C327.919 275.825 327.746 276.785 327.628 276.777Z" fill="#263238"/>
<path d="M327.133 262.442C327.062 262.544 326.275 262.143 325.363 261.545C324.45 260.947 323.766 260.38 323.837 260.278C323.907 260.176 324.694 260.577 325.606 261.175C326.519 261.773 327.203 262.34 327.133 262.442Z" fill="#263238"/>
<path d="M337.72 240.239C337.641 240.333 337.035 239.947 336.382 239.389C335.722 238.822 335.25 238.287 335.328 238.193C335.407 238.099 336.013 238.484 336.674 239.051C337.334 239.617 337.806 240.152 337.728 240.246L337.72 240.239Z" fill="#263238"/>
<path d="M331.828 225.117C331.915 225.203 331.372 225.88 330.609 226.635C329.854 227.383 329.162 227.925 329.075 227.831C328.989 227.745 329.531 227.068 330.294 226.313C331.05 225.565 331.742 225.022 331.828 225.117Z" fill="#263238"/>
<path d="M338.279 213.228C338.342 213.338 337.815 213.747 337.107 214.156C336.399 214.558 335.778 214.801 335.715 214.699C335.652 214.589 336.179 214.18 336.887 213.771C337.595 213.37 338.216 213.126 338.279 213.228Z" fill="#263238"/>
<path d="M331.537 268.311C331.427 268.358 331.089 267.823 330.782 267.115C330.475 266.407 330.326 265.793 330.436 265.738C330.546 265.691 330.884 266.226 331.191 266.934C331.498 267.642 331.647 268.256 331.537 268.311Z" fill="#263238"/>
<path d="M304.501 188.263C304.501 188.389 303.416 188.429 302.102 188.358C300.781 188.287 299.719 188.13 299.727 188.012C299.727 187.886 300.812 187.846 302.126 187.917C303.447 187.988 304.509 188.145 304.501 188.263Z" fill="#263238"/>
<path d="M303.738 174.463C303.691 174.581 302.692 174.274 301.512 173.786C300.332 173.299 299.411 172.811 299.459 172.701C299.506 172.59 300.505 172.889 301.685 173.377C302.865 173.865 303.785 174.353 303.738 174.463Z" fill="#263238"/>
<path d="M304.997 157.342C304.981 157.46 303.832 157.358 302.597 156.697C301.355 156.044 300.631 155.155 300.717 155.076C300.812 154.982 301.638 155.69 302.81 156.304C303.974 156.925 305.028 157.216 304.997 157.342Z" fill="#263238"/>
<path d="M308.166 149.348C308.056 149.404 307.474 148.546 306.868 147.429C306.263 146.304 305.854 145.352 305.964 145.289C306.074 145.234 306.656 146.091 307.262 147.208C307.867 148.326 308.276 149.286 308.166 149.348Z" fill="#263238"/>
<path d="M319.069 147.004C319.164 147.083 318.55 147.98 317.701 149.01C316.851 150.041 316.08 150.812 315.986 150.733C315.891 150.655 316.505 149.758 317.354 148.727C318.204 147.696 318.975 146.925 319.069 147.004Z" fill="#263238"/>
<path d="M321.846 158.83C321.917 158.932 321.185 159.569 320.21 160.262C319.235 160.954 318.385 161.434 318.314 161.332C318.244 161.229 318.975 160.592 319.95 159.9C320.926 159.207 321.775 158.727 321.846 158.83Z" fill="#263238"/>
<path d="M323.12 175.218C323.152 175.336 322.334 175.658 321.288 175.934C320.241 176.209 319.376 176.343 319.345 176.225C319.313 176.107 320.131 175.784 321.177 175.509C322.224 175.234 323.089 175.1 323.12 175.218Z" fill="#263238"/>
<path d="M322.365 189.105C322.365 189.231 321.343 189.278 320.092 189.208C318.841 189.145 317.834 188.987 317.834 188.869C317.834 188.743 318.857 188.696 320.108 188.767C321.359 188.83 322.365 188.987 322.365 189.105Z" fill="#263238"/>
<path d="M322.617 203.165C322.68 203.275 321.712 203.92 320.462 204.62C319.211 205.313 318.149 205.793 318.086 205.682C318.023 205.572 318.991 204.927 320.241 204.227C321.492 203.534 322.554 203.055 322.617 203.165Z" fill="#263238"/>
<path d="M303.227 209.994C303.203 210.112 302.11 209.986 300.788 209.703C299.467 209.42 298.421 209.097 298.444 208.979C298.468 208.861 299.561 208.987 300.883 209.27C302.204 209.554 303.25 209.876 303.227 209.994Z" fill="#263238"/>
<path d="M303.699 222.244C303.778 222.339 302.944 223.157 301.843 224.07C300.741 224.982 299.782 225.643 299.703 225.549C299.624 225.454 300.458 224.636 301.559 223.723C302.661 222.811 303.62 222.15 303.699 222.244Z" fill="#263238"/>
<path d="M303.982 258.815C303.903 258.909 302.825 258.138 301.575 257.099C300.324 256.061 299.372 255.133 299.451 255.038C299.529 254.944 300.607 255.715 301.858 256.753C303.109 257.792 304.06 258.72 303.982 258.815Z" fill="#263238"/>
<path d="M303.486 269.122C303.565 269.216 302.896 269.908 301.992 270.679C301.087 271.443 300.293 271.985 300.214 271.891C300.135 271.797 300.804 271.104 301.709 270.333C302.613 269.57 303.408 269.027 303.486 269.122Z" fill="#263238"/>
<path d="M321.587 246.179C321.657 246.281 320.816 247.029 319.707 247.863C318.59 248.697 317.63 249.287 317.559 249.192C317.488 249.09 318.33 248.343 319.439 247.509C320.556 246.675 321.516 246.084 321.587 246.179Z" fill="#263238"/>
<path d="M321.862 228.586C321.941 228.672 321.099 229.459 319.793 229.963C318.488 230.474 317.339 230.466 317.331 230.348C317.315 230.222 318.393 230.034 319.628 229.546C320.863 229.074 321.783 228.484 321.862 228.586Z" fill="#263238"/>
<path d="M322.121 215.738C322.074 215.856 321.193 215.604 320.147 215.195C319.1 214.778 318.298 214.345 318.337 214.235C318.385 214.117 319.266 214.369 320.312 214.778C321.358 215.195 322.16 215.628 322.113 215.738H322.121Z" fill="#263238"/>
<path d="M323.097 280.899C323.152 281.01 322.121 281.608 320.8 282.229C319.478 282.851 318.361 283.268 318.314 283.158C318.259 283.047 319.29 282.449 320.611 281.828C321.933 281.206 323.05 280.789 323.097 280.899Z" fill="#263238"/>
<path d="M303.502 199.373C303.424 199.467 302.338 198.633 301.087 197.524C299.837 196.407 298.893 195.431 298.971 195.345C299.05 195.258 300.136 196.084 301.386 197.194C302.637 198.311 303.581 199.286 303.502 199.373Z" fill="#263238"/>
<path d="M323.624 192.842C323.695 192.944 322.79 193.653 321.602 194.416C320.422 195.179 319.408 195.714 319.345 195.612C319.274 195.509 320.179 194.801 321.366 194.038C322.546 193.275 323.561 192.74 323.624 192.842Z" fill="#263238"/>
<path d="M302.983 165.399C302.967 165.525 302.165 165.509 301.189 165.368C300.214 165.226 299.443 165.014 299.459 164.896C299.474 164.778 300.277 164.786 301.252 164.927C302.228 165.069 302.999 165.281 302.983 165.399Z" fill="#263238"/>
<path d="M322.114 166.406C322.153 166.524 321.398 166.902 320.43 167.248C319.455 167.594 318.637 167.783 318.59 167.665C318.55 167.547 319.305 167.169 320.273 166.823C321.248 166.477 322.066 166.288 322.114 166.406Z" fill="#263238"/>
<path d="M312.069 196.383C312.163 196.462 311.565 197.366 310.732 198.405C309.898 199.443 309.143 200.23 309.04 200.152C308.946 200.073 309.544 199.168 310.378 198.13C311.211 197.091 311.967 196.304 312.069 196.383Z" fill="#263238"/>
<path d="M312.045 183.275C311.982 183.369 311.156 182.881 310.496 181.922C309.835 180.97 309.662 180.025 309.78 180.002C309.906 179.962 310.244 180.789 310.865 181.67C311.471 182.559 312.124 183.173 312.045 183.275Z" fill="#263238"/>
<path d="M311.793 164.644C311.872 164.746 311.171 165.415 310.495 166.375C309.803 167.327 309.402 168.208 309.276 168.169C309.166 168.137 309.402 167.13 310.133 166.115C310.857 165.092 311.73 164.549 311.793 164.644Z" fill="#263238"/>
<path d="M310.283 215.242C310.165 215.203 310.354 214.377 310.7 213.401C311.046 212.426 311.424 211.67 311.542 211.717C311.66 211.757 311.471 212.583 311.125 213.559C310.779 214.534 310.401 215.289 310.283 215.242Z" fill="#263238"/>
<path d="M307.459 242.213C307.349 242.268 306.633 241.017 305.862 239.42C305.091 237.823 304.556 236.485 304.666 236.438C304.777 236.383 305.492 237.634 306.263 239.231C307.034 240.829 307.569 242.166 307.459 242.213Z" fill="#263238"/>
<path d="M312.493 246.431C312.603 246.486 311.95 247.941 311.045 249.672C310.133 251.411 309.307 252.764 309.197 252.709C309.087 252.654 309.74 251.199 310.644 249.468C311.557 247.737 312.383 246.376 312.493 246.431Z" fill="#263238"/>
<path d="M312.257 275.18C312.147 275.235 311.431 274.047 310.66 272.521C309.889 270.994 309.354 269.712 309.464 269.657C309.574 269.602 310.29 270.79 311.061 272.316C311.832 273.842 312.367 275.125 312.257 275.18Z" fill="#263238"/>
<path d="M310.535 283.976C310.637 284.047 310.157 284.944 309.465 285.99C308.773 287.037 308.12 287.824 308.017 287.753C307.915 287.682 308.395 286.785 309.087 285.739C309.779 284.692 310.432 283.905 310.535 283.976Z" fill="#263238"/>
<g opacity="0.3">
<path d="M314.538 150.639C315.152 150.639 315.655 183.228 315.655 223.425C315.655 263.622 315.152 296.219 314.538 296.219C313.925 296.219 313.421 263.638 313.421 223.425C313.421 183.212 313.925 150.639 314.538 150.639Z" fill="black"/>
</g>
<g opacity="0.3">
<path d="M334.739 209.397C335.046 209.397 335.407 213.11 335.581 219.137C335.777 225.172 335.738 233.465 335.895 242.638C335.95 247.265 335.691 251.749 334.77 255.746C334.306 257.745 333.677 259.61 332.875 261.277C332.072 262.906 331.309 264.354 330.436 265.676C329.586 266.99 328.532 268.083 327.463 268.783C326.385 269.492 325.354 269.846 324.521 270.074C322.845 270.514 321.893 270.514 321.862 270.389C321.823 270.223 322.719 269.924 324.222 269.256C324.969 268.917 325.866 268.477 326.723 267.769C327.588 267.068 328.391 266.101 329.091 264.834C329.799 263.591 330.491 262.08 331.183 260.499C331.844 258.941 332.371 257.186 332.757 255.298C333.512 251.506 333.708 247.194 333.661 242.646C333.496 233.457 333.787 225.125 333.999 219.121C334.228 213.11 334.424 209.389 334.731 209.381L334.739 209.397Z" fill="black"/>
</g>
<path d="M342.936 293.708H283.129V304.314H342.936V293.708Z" fill="#FF725E"/>
<path d="M287.589 302.206L294.866 333.89H330.507L338.46 302.206H287.589Z" fill="#FF725E"/>
<path d="M342.896 304.322C342.896 304.44 329.406 304.535 312.769 304.535C296.132 304.535 282.641 304.44 282.641 304.322C282.641 304.204 296.132 304.11 312.769 304.11C329.406 304.11 342.896 304.204 342.896 304.322Z" fill="#263238"/>
<path d="M349.338 333.796C349.338 333.906 271.132 334 174.677 334C78.2215 334 0 333.906 0 333.796C0 333.686 78.1901 333.591 174.677 333.591C271.164 333.591 349.338 333.686 349.338 333.796Z" fill="#263238"/>
</svg>
