<svg width="83" height="61" viewBox="0 0 83 61" fill="none" xmlns="http://www.w3.org/2000/svg">
<path d="M28.2704 39.18C29.4545 40.2161 29.6025 42.1403 28.5664 43.3244C25.4581 46.8767 21.0178 48.9488 16.2814 48.9488C7.25261 48.9488 0 41.6962 0 32.6675C0 23.6387 7.25261 16.3861 16.2814 16.3861C17.7615 16.3861 19.2416 16.5341 20.7217 16.9781C22.3499 17.4222 23.2379 19.0503 22.7939 20.6785C22.3499 22.3066 20.7217 23.1947 19.0936 22.7506C18.2055 22.4546 17.1694 22.3066 16.2814 22.3066C10.5089 22.3066 5.92049 26.895 5.92049 32.6675C5.92049 38.4399 10.5089 43.0283 16.2814 43.0283C19.2416 43.0283 22.0538 41.6962 24.126 39.476C25.1621 38.2919 26.9383 38.1439 28.2704 39.18ZM66.6047 16.3861C66.0127 16.3861 65.5686 16.3861 64.9766 16.5341C61.4243 6.76529 52.0995 0.104736 41.4435 0.104736C33.7468 0.104736 26.4942 3.50902 21.757 9.57753C20.7209 10.9096 21.0169 12.6858 22.201 13.7219C23.5331 14.758 25.3093 14.4619 26.3454 13.2778C30.0457 8.68946 35.5221 6.02523 41.4426 6.02523C50.3234 6.02523 57.872 11.9457 60.0922 20.5304C60.2402 21.2705 60.8322 22.0106 61.4243 22.3066C62.1644 22.7506 62.9044 22.7506 63.6445 22.6026C64.5326 22.3066 65.5686 22.1586 66.4567 22.1586C72.2292 22.1586 76.8176 26.747 76.8176 32.5195C76.8176 38.2919 72.2292 42.8803 66.4567 42.8803C63.4965 42.8803 60.6842 41.5482 58.6121 39.328C57.576 38.1439 55.6518 37.9959 54.4677 39.032C53.2836 40.0681 53.1356 41.9922 54.1717 43.1763C57.28 46.7286 61.7203 48.6528 66.4567 48.6528C75.4855 48.6528 82.7381 41.4002 82.7381 32.3714C82.7381 23.3427 75.6335 16.3861 66.6047 16.3861ZM48.2512 46.8767L44.4029 50.725V34.1476C44.4029 32.5195 43.0708 31.1873 41.4426 31.1873C39.8145 31.1873 38.4824 32.5195 38.4824 34.1476V50.725L34.6341 46.8767C33.45 45.6926 31.6738 45.6926 30.4897 46.8767C29.3056 48.0608 29.3056 49.8369 30.4897 51.021L39.3705 59.9017C39.9625 60.4938 40.7026 60.7898 41.4426 60.7898C42.1827 60.7898 42.9227 60.4938 43.5148 59.9017L52.3955 51.021C53.5796 49.8369 53.5796 48.0608 52.3955 46.8767C51.2114 45.6926 49.4353 45.6926 48.2512 46.8767ZM54.1717 17.7174C51.5075 13.277 46.6231 10.4648 41.4426 10.4648C39.8145 10.4648 38.4824 11.7969 38.4824 13.425C38.4824 15.0531 39.8145 16.3853 41.4426 16.3853C44.5509 16.3853 47.5111 18.0134 49.1393 20.6776C49.7313 21.5657 50.6194 22.1577 51.6555 22.1577C52.2475 22.1577 52.6916 22.0097 53.1356 21.7137C54.4677 20.8256 54.9118 19.0495 54.1717 17.7174Z" fill="white"/>
</svg>
