<svg width="528" height="505" viewBox="0 0 528 505" fill="none" xmlns="http://www.w3.org/2000/svg">
<path d="M47.8484 505H173.572L184.002 476.893C187.698 466.938 195.256 458.933 204.924 454.554C214.029 450.431 226.283 442.942 238.161 429.597C261.278 403.623 273.545 375.76 273.545 375.76L195.63 375.377C195.63 375.377 202.642 331.749 163.917 273.809C159.774 267.606 157.887 260.163 158.532 252.73L162.204 210.471C162.204 210.471 188.519 181.033 172.374 144.513C172.374 144.513 156.936 123.117 150.81 130.949C150.81 130.949 104.175 242.114 99.9299 258.643C95.6845 275.172 90.0218 285.562 95.6845 337.51C97.182 351.264 97.7223 362.73 97.7038 372.163C97.6667 390.265 93.6281 408.135 85.8937 424.5L47.8515 505.006L47.8484 505Z" fill="#F7C29E"/>
<g style="mix-blend-mode:multiply" opacity="0.2">
<path d="M165.109 432.889C153.438 419.92 137.228 421.966 120.181 416.051C103.135 410.135 97.6667 367.484 97.6667 367.484V367.478C97.6914 369.088 97.7038 370.652 97.7007 372.157C97.6636 390.259 93.625 408.129 85.8906 424.494L47.8484 505H173.572L184.002 476.894C187.698 466.939 195.256 458.934 204.924 454.554C212.673 451.043 222.702 445.097 232.842 435.176C198.214 449.745 176.78 445.857 165.109 432.889Z" fill="#F7C29E"/>
</g>
<path d="M109.514 1.39075C138.417 47.043 209.657 87.7255 209.657 87.7255C209.657 87.7255 153.027 83.1235 124.924 46.4867L135.113 38.0399C135.113 38.0399 127.014 38.8249 120.228 39.6069C113.979 29.2284 109.931 16.6432 109.514 1.39075Z" fill="#5CB30B"/>
<path d="M185.354 20.2716C180.958 22.2682 174.458 25.3094 174.458 25.3094L180.723 16.3001C173.427 10.6164 165.396 6.83032 157.44 4.35161C154.213 9.05252 150.421 14.3067 150.421 14.3067L149.668 2.31176C128.339 -2.28715 109.514 1.39074 109.514 1.39074C138.417 47.043 209.657 87.7255 209.657 87.7255C209.336 54.1825 199.131 33.2401 185.354 20.2716Z" fill="#7FBF43"/>
<path d="M98.9019 65.8065C107.402 60.8058 116.029 58.1107 124.412 57.0105C126.937 59.8971 130.034 63.2876 130.034 63.2876L130.207 56.4943C162.423 54.949 189.584 75.2609 189.584 75.2609C171.148 86.4862 155.284 89.6356 142.212 88.7022C141.387 86.3286 140.217 82.7897 140.217 82.7897L138.031 88.2571C131.754 87.3639 126.193 85.5435 121.38 83.309C122.54 80.4717 123.754 77.2296 123.754 77.2296L116.884 80.9971C105.092 74.3182 98.9019 65.8034 98.9019 65.8034V65.8065Z" fill="#AD8DCE"/>
<path d="M142.215 88.7021C141.39 86.3285 140.22 82.7897 140.22 82.7897L138.034 88.2571C131.757 87.3639 126.196 85.5435 121.383 83.3089C122.544 80.4717 123.757 77.2296 123.757 77.2296L116.887 80.9971C105.096 74.3182 98.905 65.8034 98.905 65.8034C136.388 61.5166 189.588 75.2577 189.588 75.2577C171.152 86.483 155.288 89.6324 142.215 88.699V88.7021Z" fill="#9369BF"/>
<path d="M416.13 61.1149L413.413 81.6184L427.962 70.9834L472.491 48.2113L438.049 51.3669C438.049 51.3669 420.502 55.632 419.555 56.4943C418.604 57.3535 416.134 61.1149 416.134 61.1149H416.13Z" fill="#9369BF"/>
<path d="M400.878 48.7336L472.488 48.2113L416.13 61.1149L400.878 48.7336Z" fill="#AD8DCE"/>
<path d="M439.151 81.742L420.385 66.6533L472.488 48.2113L439.151 81.742Z" fill="#AD8DCE"/>
<path d="M408.748 71.7963C411.49 70.764 413.509 70.5415 413.528 70.5384L413.392 69.265C413.302 69.2743 411.187 69.5061 408.297 70.5971L408.748 71.7963Z" fill="#292929"/>
<path d="M363.62 185.981C366.581 184.479 369.372 182.859 371.91 181.166L372.62 182.232C370.039 183.954 367.205 185.601 364.197 187.125L363.62 185.984V185.981ZM379.456 175.287C381.861 173.087 384.026 170.719 385.891 168.244L386.913 169.013C385.001 171.551 382.781 173.977 380.318 176.23L379.456 175.284V175.287ZM390.834 160.097C391.461 158.78 392.038 157.408 392.548 156.017C393.125 154.444 393.637 152.797 394.07 151.124L395.308 151.446C394.866 153.158 394.341 154.846 393.749 156.459C393.224 157.887 392.631 159.296 391.989 160.647L390.834 160.097ZM395.999 132.101L397.278 132.074C397.358 135.551 397.253 138.737 396.963 141.818L395.691 141.698C395.978 138.666 396.077 135.529 395.999 132.104V132.101ZM394.181 112.915L395.447 112.732C395.981 116.478 396.364 119.538 396.651 122.363L395.379 122.492C395.095 119.686 394.715 116.642 394.184 112.915H394.181ZM392.751 103.275C392.245 99.8255 392.081 96.5556 392.267 93.5576L393.542 93.638C393.363 96.5463 393.52 99.7266 394.014 103.086L394.026 103.16L392.761 103.333L392.751 103.275ZM394.357 83.9395C395.644 80.7901 397.512 78.0425 399.908 75.7739L400.788 76.7042C398.525 78.846 396.762 81.4422 395.542 84.4216L394.36 83.9364L394.357 83.9395Z" fill="#292929"/>
<path d="M350.47 192.889C352.115 192.317 353.736 191.714 355.293 191.102L354.823 189.912C353.286 190.518 351.68 191.112 350.05 191.68L350.47 192.889Z" fill="#292929"/>
<path d="M343.841 56.8281C343.841 56.8281 370.471 38.9857 376.551 50.7426C382.63 62.4964 341.954 104.088 341.954 104.088L343.841 56.8281Z" fill="#F19C61"/>
<path d="M343.841 134.562C343.841 134.562 370.471 116.722 376.551 128.476C382.63 140.23 341.954 181.821 341.954 181.821L343.841 134.562Z" fill="#F19C61"/>
<path d="M343.841 187.523C343.841 187.523 370.471 169.684 376.551 181.438C382.63 193.192 341.954 234.783 341.954 234.783L343.841 187.523Z" fill="#F19C61"/>
<path d="M325.448 36.8377H179.256C168.369 36.8377 159.542 45.6708 159.542 56.5716V355.646C159.542 366.634 168.462 375.38 179.256 375.38H325.448C336.331 375.38 345.162 366.55 345.162 355.646V56.5685C345.162 45.5719 336.233 36.8346 325.448 36.8346V36.8377Z" fill="#292929"/>
<g style="mix-blend-mode:multiply" opacity="0.2">
<path d="M172.859 288.304C172.859 288.304 146.417 353.097 148.982 365.348C151.548 377.599 167.594 393.983 206.964 388.522C246.334 383.061 273.545 375.761 273.545 375.761C273.545 375.761 275.191 288.316 273.545 283.881C271.9 279.446 201.113 247.971 198.328 247.971C195.543 247.971 172.859 288.304 172.859 288.304Z" fill="#F7C29E"/>
</g>
<path d="M335.606 63.7296H169.098V348.482H335.606V63.7296Z" fill="white"/>
<g style="mix-blend-mode:multiply" opacity="0.3">
<path d="M295.137 229.816H150.529C145.534 229.816 141.486 233.868 141.486 238.869V298.605C141.486 303.606 145.534 307.658 150.529 307.658H264.378C268.985 314.092 277.34 325.618 278.078 325.618C278.769 325.618 277.439 314.732 276.503 307.658H295.137C300.133 307.658 304.18 303.606 304.18 298.605V238.869C304.18 233.868 300.129 229.816 295.137 229.816Z" fill="#3E82D7"/>
</g>
<g style="mix-blend-mode:multiply" opacity="0.3">
<path d="M346.897 94.4786H192.953C187.957 94.4786 183.909 98.5305 183.909 103.531V167.734C183.909 172.734 187.957 176.786 192.953 176.786H208.937C208.011 183.855 206.795 193.992 207.462 193.992C208.172 193.992 215.928 183.326 220.618 176.786H346.894C351.89 176.786 355.938 172.734 355.938 167.734V103.531C355.938 98.5305 351.89 94.4786 346.894 94.4786H346.897Z" fill="#3E82D7"/>
</g>
<path d="M218.293 51.2124H286.68C287.47 51.2124 288.112 51.8553 288.112 52.6465V53.3481C288.112 54.1393 287.47 54.7821 286.68 54.7821H218.293C217.502 54.7821 216.86 54.1393 216.86 53.3481V52.6465C216.86 51.8553 217.502 51.2124 218.293 51.2124Z" fill="white"/>
<path d="M156.229 235.973C156.229 235.973 157.233 239.709 159.505 241.551L162.204 210.471C162.204 210.471 181.563 188.815 176.885 159.611C175.283 149.613 170.315 140.412 162.719 133.727C158.381 129.91 153.617 127.36 150.811 130.952C150.811 130.952 128.879 183.227 113.729 221.412L156.229 235.976V235.973Z" fill="#F7C29E"/>
<path d="M289.165 214.323H144.558C139.562 214.323 135.514 218.374 135.514 223.375V283.112C135.514 288.112 139.562 292.164 144.558 292.164H258.407C263.013 298.599 271.368 310.124 272.106 310.124C272.798 310.124 271.467 299.239 270.532 292.164H289.165C294.161 292.164 298.209 288.112 298.209 283.112V223.375C298.209 218.374 294.161 214.323 289.165 214.323Z" fill="#4385D8"/>
<path opacity="0.3" d="M260.432 362.202C260.432 366.724 256.77 370.389 252.253 370.389C247.736 370.389 244.074 366.724 244.074 362.202C244.074 357.68 247.736 354.015 252.253 354.015C256.77 354.015 260.432 357.68 260.432 362.202Z" fill="#3E82D7"/>
<path d="M254.692 365.611H249.817C249.283 365.611 248.848 365.175 248.848 364.641V359.76C248.848 359.226 249.283 358.79 249.817 358.79H254.692C255.227 358.79 255.662 359.226 255.662 359.76V364.641C255.662 365.175 255.227 365.611 254.692 365.611ZM249.817 359.053C249.428 359.053 249.113 359.371 249.113 359.757V364.637C249.113 365.027 249.428 365.342 249.817 365.342H254.692C255.082 365.342 255.396 365.027 255.396 364.637V359.757C255.396 359.368 255.082 359.053 254.692 359.053H249.817Z" fill="#3E82D7"/>
<path d="M335.606 331.638H169.098V348.483H335.606V331.638Z" fill="#8ABBFA"/>
<path d="M335.606 63.7296H169.098V78.8399H335.606V63.7296Z" fill="#8ABBFA"/>
<path d="M154.753 161.651C160.814 158.86 163.976 143.079 165.109 135.983C160.246 131.088 154.145 126.68 150.81 130.945C150.81 130.945 145.981 142.458 139.291 158.622C143.866 161.172 150.224 163.737 154.753 161.651Z" fill="#F19C61"/>
<path d="M307.441 251.271C307.441 251.271 284.951 253.16 284.167 259.143C283.379 265.124 285.111 275.672 306.342 277.718H328.332C328.332 277.718 321.752 259.459 322.067 258.828C322.382 258.198 307.441 251.271 307.441 251.271Z" fill="#F3AA78"/>
<path d="M271.359 340.505C268.315 342.125 267.253 345.976 268.982 348.964C279.331 366.832 320.48 437.831 324.188 443.607C328.433 450.218 338.814 465.804 373.253 473.831C407.692 481.86 421.845 505 421.845 505H527.997C527.997 505 502.993 465.331 482.232 362.378C482.232 362.378 466.192 276.899 435.996 279.733C435.996 279.733 417.597 260.37 399.667 264.15C399.667 264.15 365.698 243.845 346.357 243.845L299.895 188.88C295.297 183.441 287.189 182.374 281.536 186.704C279.717 188.098 278.331 189.937 277.948 192.369C276.534 201.342 288.329 224.012 307.2 251.401C326.071 278.791 372.777 365.688 352.492 403.941C352.492 403.941 331.734 388.358 313.804 363.327C298.792 342.366 281.131 335.316 271.353 340.511L271.359 340.505Z" fill="#F7C29E"/>
<path d="M346.536 243.863C352.702 249.145 358.479 254.875 363.938 260.896C371.308 268.925 380.614 280.824 386.079 290.019C392.967 301.387 397.515 311.354 399.667 323.868L399.528 323.896C397.052 312.139 390.587 299.474 384.952 290.727C380.737 283.887 372.935 273.017 363.098 261.628C358.158 255.923 351.89 249.185 346.443 243.965L346.539 243.863H346.536Z" fill="#F19C61"/>
<path d="M399.371 264.002C404.388 266.57 408.859 270.155 412.814 274.207C416.813 278.241 420.138 282.818 423 287.809C425.794 292.764 427.937 298.083 429.376 303.563C430.596 308.699 431.383 312.182 431.51 320.311L431.368 320.323C430.901 314.754 429.885 309.234 428.308 303.878C426.715 298.695 424.476 293.125 421.765 288.505C419.051 283.631 415.744 279.088 411.99 274.961C408.439 271.07 403.792 266.867 399.3 264.126L399.371 264.002Z" fill="#F19C61"/>
<path d="M435.61 279.338C440.047 282.698 444.539 288.641 446.716 292.659C449.458 297.378 451.625 302.852 453.058 308.851C454.108 312.686 454.373 316.411 454.537 320.311L454.398 320.33C453.747 316.55 453.333 313.731 451.99 309.154C449.927 302.215 448.309 298.645 445.546 293.299C443.897 290.001 439.612 283.47 435.548 279.443L435.61 279.338Z" fill="#F19C61"/>
<path d="M292.784 362.493C293.726 357.711 288.159 350.13 283.108 344.409C279.955 340.836 274.975 339.504 270.597 340.997C268.151 342.811 267.404 346.245 268.979 348.968C271.761 353.768 276.766 362.406 282.669 372.587C287.091 370.334 291.91 366.921 292.781 362.496L292.784 362.493Z" fill="#F19C61"/>
<path d="M297.246 210.45C299.929 209.912 312.106 205.86 311.362 203.638L299.351 189.43C296.968 186.608 293.636 184.967 290.197 184.643C290.178 184.643 290.16 184.64 290.141 184.637C290.042 184.627 289.823 184.612 289.514 184.612C287.903 184.612 283.938 185.072 283.067 189.436C282.206 193.748 289.335 204.222 292.478 208.58C293.565 210.085 295.43 210.815 297.249 210.45H297.246Z" fill="#F19C61"/>
<path d="M84.072 430.741C97.3764 438.922 140.204 463.384 184.487 468.601C187.08 468.907 188.905 471.287 188.139 473.343L180.402 494.084C179.889 495.456 178.349 496.257 176.62 496.047C163.568 494.461 109.721 486.348 71.8328 457.008C70.5422 456.01 69.9988 454.496 70.4804 453.204L78.3754 432.036C79.1195 430.042 81.9076 429.409 84.072 430.741Z" fill="#292929"/>
<path d="M80.1847 450.573L80.0396 450.518C79.2615 450.227 78.8694 449.362 79.1596 448.583L81.5402 442.198C81.8304 441.419 82.6949 441.026 83.473 441.317L83.6181 441.373C84.3962 441.663 84.7883 442.528 84.4981 443.307L82.1175 449.693C81.8273 450.468 80.9628 450.864 80.1847 450.573Z" fill="#141414"/>
<path d="M88.1508 455.491L88.0056 455.435C87.2276 455.145 86.8355 454.279 87.1257 453.5L89.5062 447.115C89.7965 446.336 90.661 445.944 91.436 446.234L91.5811 446.29C92.3592 446.58 92.7513 447.446 92.461 448.225L90.0805 454.61C89.7903 455.389 88.9258 455.781 88.1477 455.494L88.1508 455.491Z" fill="#141414"/>
<path d="M99.4239 451.115L99.5714 451.17C100.347 451.459 100.742 452.326 100.453 453.102L98.0744 459.487C97.7853 460.263 96.9195 460.659 96.1442 460.37L95.9995 460.316C95.2242 460.027 94.8287 459.16 95.1178 458.384L97.4965 451.998C97.7856 451.222 98.6514 450.826 99.4268 451.116L99.4239 451.115Z" fill="#141414"/>
<path d="M104.339 464.339L104.194 464.284C103.416 463.993 103.024 463.128 103.314 462.349L105.694 455.964C105.985 455.185 106.849 454.792 107.627 455.08L107.772 455.135C108.55 455.426 108.943 456.291 108.652 457.07L106.272 463.456C105.982 464.234 105.117 464.627 104.339 464.336V464.339Z" fill="#141414"/>
<path d="M112.419 468.954L112.274 468.898C111.496 468.608 111.104 467.742 111.394 466.963L113.775 460.578C114.065 459.799 114.93 459.407 115.708 459.697L115.853 459.753C116.631 460.043 117.023 460.909 116.733 461.688L114.352 468.073C114.062 468.849 113.197 469.244 112.419 468.954Z" fill="#141414"/>
<path d="M120.851 472.613L120.706 472.557C119.928 472.267 119.536 471.402 119.826 470.623L122.207 464.237C122.497 463.459 123.362 463.066 124.137 463.356L124.282 463.412C125.06 463.703 125.452 464.568 125.162 465.347L122.781 471.732C122.491 472.511 121.626 472.904 120.848 472.616L120.851 472.613Z" fill="#141414"/>
<path d="M129.453 475.827L129.308 475.772C128.53 475.481 128.138 474.616 128.425 473.837L130.806 467.452C131.096 466.673 131.961 466.28 132.739 466.568L132.884 466.623C133.662 466.914 134.054 467.779 133.764 468.558L131.383 474.943C131.093 475.722 130.228 476.115 129.45 475.824L129.453 475.827Z" fill="#141414"/>
<path d="M141.508 469.338L141.653 469.391C142.428 469.681 142.824 470.547 142.535 471.324L140.157 477.709C139.868 478.486 139.002 478.882 138.227 478.592L138.08 478.537C137.304 478.248 136.909 477.381 137.197 476.605L139.575 470.219C139.864 469.443 140.73 469.047 141.505 469.336L141.508 469.338Z" fill="#141414"/>
<path d="M147.34 480.408L147.195 480.352C146.417 480.062 146.025 479.196 146.315 478.417L148.695 472.032C148.986 471.256 149.85 470.861 150.628 471.151L150.773 471.207C151.551 471.497 151.944 472.363 151.653 473.142L149.273 479.527C148.983 480.306 148.118 480.698 147.34 480.411V480.408Z" fill="#141414"/>
<path d="M156.223 482.868L156.078 482.812C155.3 482.522 154.908 481.656 155.198 480.878L157.578 474.492C157.869 473.713 158.733 473.321 159.508 473.611L159.653 473.667C160.431 473.958 160.824 474.823 160.533 475.602L158.153 481.987C157.863 482.766 156.998 483.158 156.22 482.868H156.223Z" fill="#141414"/>
<path d="M165.443 484.413L165.297 484.358C164.519 484.067 164.127 483.202 164.417 482.426L166.798 476.041C167.088 475.262 167.953 474.869 168.731 475.157L168.876 475.212C169.654 475.503 170.046 476.368 169.756 477.147L167.375 483.532C167.085 484.311 166.221 484.704 165.443 484.413Z" fill="#141414"/>
<path d="M174.677 485.928L174.532 485.872C173.754 485.582 173.362 484.716 173.652 483.94L176.033 477.555C176.323 476.776 177.188 476.384 177.963 476.674L178.108 476.73C178.886 477.02 179.278 477.886 178.988 478.662L176.607 485.047C176.317 485.826 175.452 486.218 174.674 485.928H174.677Z" fill="#141414"/>
<path d="M110.36 478.77L110.397 478.671C110.255 478.652 110.116 478.621 109.977 478.569L99.4977 474.653C98.4633 474.267 97.9601 473.04 98.3769 471.921L107.828 446.583C108.245 445.465 109.427 444.868 110.462 445.255L120.941 449.17C121.555 449.399 121.978 449.925 122.136 450.546C122.957 450.904 123.788 451.266 124.625 451.621C124.905 449.492 123.812 447.421 121.861 446.692L111.382 442.776C109.085 441.917 106.463 443.239 105.537 445.724L96.0859 471.062C95.1596 473.547 96.2742 476.263 98.5714 477.122L109.051 481.038C110.622 481.626 112.345 481.19 113.574 480.062C112.503 479.638 111.428 479.206 110.354 478.764L110.36 478.77Z" fill="#7FBF43"/>
<path d="M108.06 458.665L103.499 456.962C102.681 456.656 101.752 457.126 101.421 458.01C101.091 458.894 101.486 459.858 102.304 460.164L106.865 461.867L108.06 458.668V458.665Z" fill="white"/>
<g style="mix-blend-mode:multiply" opacity="0.2">
<path d="M421.848 505H528C528 505 511.608 478.989 494.348 414.438C486.774 461.969 444.987 459.227 428.403 461.867C409.31 464.902 335.189 449.433 324.805 444.559C329.424 451.615 340.373 466.166 373.256 473.831C407.695 481.86 421.848 505 421.848 505Z" fill="#F7C29E"/>
</g>
<g style="mix-blend-mode:multiply" opacity="0.2">
<path d="M312.816 260.015C333.63 293.49 370.971 370.386 352.495 403.935L364.756 416.05C364.756 416.05 395.737 381.695 346.437 305.927C334.964 288.295 323.561 273.042 312.816 260.015Z" fill="#F7C29E"/>
</g>
<path d="M189.223 253.243C189.223 265.776 179.071 275.938 166.551 275.938C154.031 275.938 143.879 265.776 143.879 253.243C143.879 240.711 154.031 230.548 166.551 230.548C179.071 230.548 189.223 240.711 189.223 253.243Z" fill="white"/>
<path d="M154.747 253.837C154.747 253.837 152.499 244.602 157.856 241.143C163.213 237.685 168.931 236.894 172.84 238.887C178.259 241.65 180.482 249.114 178.75 253.243L164.371 249.627L154.75 253.84L154.747 253.837Z" fill="black"/>
<path d="M170.139 264.679H163.482V271.333H170.139V264.679Z" fill="#F7C29E"/>
<path d="M170.139 268.666V264.676H163.482V268.069C164.915 268.839 167.039 269.281 170.139 268.666Z" fill="#F19A5E"/>
<path d="M180.637 252.767C179.942 252.424 179.136 252.486 178.404 252.857C178.654 246.292 173.297 240.769 166.551 241.004C159.805 240.772 154.444 246.292 154.698 252.857C153.969 252.486 153.16 252.427 152.468 252.767C151.135 253.426 150.721 255.305 151.542 256.971C152.363 258.637 154.111 259.452 155.442 258.797C155.627 258.705 155.791 258.59 155.942 258.454C156.705 263.881 161.237 267.952 166.551 267.875C171.868 267.949 176.397 263.881 177.16 258.454C177.308 258.59 177.475 258.705 177.66 258.797C178.994 259.456 180.738 258.637 181.56 256.971C182.381 255.305 181.967 253.423 180.633 252.767H180.637Z" fill="#F7C29E"/>
<path d="M170.908 260.525C170.614 261.842 169.111 262.874 167.264 262.933C165.418 262.988 163.852 262.049 163.482 260.754L170.908 260.528V260.525Z" fill="white"/>
<path d="M154.698 252.857C154.698 252.857 163.411 250.214 167.224 245.804C167.224 245.804 166.143 251.12 165.341 251.967C165.594 252.137 174.041 248.026 175.19 244.231C176.339 240.435 166.554 239.073 166.554 239.073C166.554 239.073 163.201 240.5 163.031 240.587C162.861 240.67 159.718 241.038 159.357 241.842C158.888 242.886 156.668 242.979 156.668 242.979L155.266 245.9L154.284 248.972L154.701 252.86L154.698 252.857Z" fill="black"/>
<path d="M147.559 240.844C149.483 241.619 151.706 241.978 154.012 241.27C159.097 239.706 161.111 240.312 161.787 240.698C162.194 240.93 162.676 241.02 163.121 240.871C163.621 240.704 164.087 240.25 163.942 239.104C163.942 239.104 164.143 234.267 160.002 231.513C154.837 233.071 150.449 236.424 147.559 240.847V240.844Z" fill="black"/>
<path d="M158.498 240.525C158.347 240.324 158.397 240.04 158.603 239.904C159.452 239.344 161.638 238.087 164.26 237.954C164.507 237.941 164.714 238.139 164.714 238.386C164.714 238.615 164.535 238.804 164.303 238.816C161.904 238.943 159.851 240.126 159.076 240.63C158.887 240.754 158.634 240.707 158.498 240.528V240.525Z" fill="#7FBF43"/>
<path d="M354.258 77.412H200.317C195.321 77.412 191.273 81.4639 191.273 86.4646V150.667C191.273 155.668 195.321 159.72 200.317 159.72H216.301C215.375 166.788 214.159 176.925 214.826 176.925C215.536 176.925 223.292 166.259 227.985 159.72H354.261C359.257 159.72 363.305 155.665 363.305 150.667V86.4646C363.305 81.4639 359.257 77.412 354.261 77.412H354.258Z" fill="#5CB30B"/>
<path d="M241.19 129.261C246.966 118.14 242.642 104.438 231.533 98.6562C220.423 92.8745 206.734 97.2027 200.958 108.323C195.182 119.444 199.506 133.146 210.616 138.928C221.726 144.71 235.414 140.382 241.19 129.261Z" fill="white"/>
<path d="M224.662 130.232H218.006V136.886H224.662V130.232Z" fill="#F7C29E"/>
<path d="M224.662 134.219V130.229H218.006V133.622C219.438 134.392 221.563 134.834 224.662 134.219Z" fill="#F19A5E"/>
<path d="M235.16 118.32C234.466 117.977 233.66 118.039 232.928 118.41C233.178 111.845 227.821 106.322 221.075 106.557C214.328 106.322 208.971 111.845 209.221 118.41C208.493 118.039 207.684 117.98 206.989 118.32C205.655 118.975 205.242 120.861 206.063 122.523C206.884 124.189 208.632 125.005 209.963 124.347C210.148 124.254 210.311 124.14 210.463 124.004C211.225 129.431 215.758 133.502 221.072 133.424C226.388 133.498 230.918 129.431 231.681 124.004C231.829 124.14 231.996 124.254 232.181 124.347C233.515 125.005 235.259 124.186 236.08 122.523C236.902 120.858 236.488 118.975 235.154 118.32H235.16Z" fill="#F7C29E"/>
<path d="M212.967 103.955C212.967 103.955 216.307 101.124 223.903 101.581C231.498 102.038 232.943 106.004 233.373 111.669L232.928 118.41C232.928 118.41 230.955 116.382 228.389 110.754C228.389 110.754 224.138 115.529 222.285 114.964C220.433 114.398 222.986 110.958 222.986 110.958C222.986 110.958 214.322 118.419 209.221 118.407C209.221 118.407 206.52 109.676 210.311 106.471C210.311 106.471 207.455 106.606 207.304 106.044C207.153 105.481 208.666 104.641 211.411 104.959C211.411 104.959 209.456 101.13 210.546 100.731C211.639 100.332 212.967 103.949 212.967 103.949V103.955Z" fill="#050505"/>
<path d="M225.431 126.078C225.138 127.394 223.634 128.43 221.788 128.485C219.942 128.541 218.376 127.601 218.006 126.306L225.431 126.081V126.078Z" fill="white"/>
<path d="M253.424 95.9127H339.916C340.951 95.9127 341.787 96.7534 341.787 97.7857V97.9804C341.787 99.0158 340.948 99.8533 339.916 99.8533H253.424C252.389 99.8533 251.552 99.0127 251.552 97.9804V97.7857C251.552 96.7503 252.392 95.9127 253.424 95.9127Z" fill="white"/>
<path d="M253.424 106.319H270.989C272.023 106.319 272.86 107.16 272.86 108.192V108.387C272.86 109.422 272.02 110.26 270.989 110.26H253.424C252.389 110.26 251.552 109.419 251.552 108.387V108.192C251.552 107.157 252.392 106.319 253.424 106.319Z" fill="white"/>
<path d="M282.777 106.319H339.916C340.951 106.319 341.787 107.16 341.787 108.192V108.387C341.787 109.422 340.948 110.26 339.916 110.26H282.777C281.743 110.26 280.906 109.419 280.906 108.387V108.192C280.906 107.157 281.746 106.319 282.777 106.319Z" fill="white"/>
<path d="M296.295 116.728H253.42C252.387 116.728 251.549 117.567 251.549 118.601V118.799C251.549 119.834 252.387 120.672 253.42 120.672H296.295C297.328 120.672 298.166 119.834 298.166 118.799V118.601C298.166 117.567 297.328 116.728 296.295 116.728Z" fill="white"/>
<path d="M306.861 116.728H339.919C340.954 116.728 341.791 117.569 341.791 118.601V118.796C341.791 119.831 340.951 120.669 339.919 120.669H306.861C305.826 120.669 304.99 119.828 304.99 118.796V118.601C304.99 117.566 305.829 116.728 306.861 116.728Z" fill="white"/>
<path d="M253.423 127.135H339.916C340.951 127.135 341.787 127.975 341.787 129.008V129.202C341.787 130.238 340.947 131.075 339.916 131.075H253.42C252.386 131.075 251.549 130.235 251.549 129.202V129.008C251.549 127.972 252.389 127.135 253.42 127.135H253.423Z" fill="white"/>
<path d="M195.516 233.689H222.146C223.18 233.689 224.017 234.529 224.017 235.562V235.756C224.017 236.792 223.177 237.629 222.146 237.629H195.516C194.481 237.629 193.645 236.789 193.645 235.756V235.562C193.645 234.526 194.484 233.689 195.516 233.689Z" fill="white"/>
<path d="M195.516 244.095H212.287C213.322 244.095 214.158 244.936 214.158 245.968V246.163C214.158 247.198 213.319 248.036 212.287 248.036H195.516C194.481 248.036 193.645 247.195 193.645 246.163V245.968C193.645 244.933 194.484 244.095 195.516 244.095Z" fill="white"/>
<path d="M219.571 244.095H241.076C242.11 244.095 242.947 244.936 242.947 245.968V246.163C242.947 247.198 242.107 248.036 241.076 248.036H219.571C218.537 248.036 217.7 247.195 217.7 246.163V245.968C217.7 244.933 218.54 244.095 219.571 244.095Z" fill="white"/>
<path d="M248.357 244.095H278.649C279.683 244.095 280.52 244.936 280.52 245.968V246.163C280.52 247.198 279.68 248.036 278.649 248.036H248.357C247.322 248.036 246.486 247.195 246.486 246.163V245.968C246.486 244.933 247.325 244.095 248.357 244.095Z" fill="white"/>
<path d="M278.652 233.689H230.924C229.891 233.689 229.053 234.527 229.053 235.562V235.759C229.053 236.794 229.891 237.632 230.924 237.632H278.652C279.685 237.632 280.523 236.794 280.523 235.759V235.562C280.523 234.527 279.685 233.689 278.652 233.689Z" fill="white"/>
<path d="M195.516 264.493H278.646C279.68 264.493 280.517 265.334 280.517 266.366V266.561C280.517 267.596 279.677 268.434 278.646 268.434H195.512C194.478 268.434 193.641 267.593 193.641 266.561V266.366C193.641 265.331 194.481 264.493 195.512 264.493H195.516Z" fill="white"/>
<path d="M195.516 254.501H236.652C237.686 254.501 238.523 255.342 238.523 256.374V256.569C238.523 257.604 237.683 258.442 236.652 258.442H195.516C194.481 258.442 193.645 257.601 193.645 256.569V256.374C193.645 255.339 194.484 254.501 195.516 254.501Z" fill="white"/>
<path d="M246.961 254.501H278.646C279.68 254.501 280.517 255.342 280.517 256.374V256.569C280.517 257.604 279.677 258.442 278.646 258.442H246.961C245.927 258.442 245.09 257.601 245.09 256.569V256.374C245.09 255.339 245.93 254.501 246.961 254.501Z" fill="white"/>
<path d="M60.7577 241.74C58.5408 239.824 56.7222 238.918 56.7068 238.909L57.2718 237.762C57.3521 237.802 59.2571 238.751 61.5944 240.772L60.7577 241.74Z" fill="#292929"/>
<path d="M62.7862 365.373C60.489 362.903 58.3987 360.378 56.5708 357.872L57.6052 357.118C59.4022 359.587 61.4616 362.069 63.7248 364.501L62.7893 365.373H62.7862ZM51.4115 349.582C49.8769 346.619 48.6326 343.571 47.7125 340.53L48.9352 340.159C49.8306 343.126 51.0471 346.096 52.5446 348.992L51.4084 349.582H51.4115ZM45.8353 330.924C45.6963 329.431 45.6284 327.905 45.6284 326.384C45.6284 324.665 45.718 322.901 45.894 321.139L47.166 321.266C46.9931 322.984 46.9067 324.706 46.9067 326.381C46.9067 327.861 46.9746 329.351 47.1074 330.804L45.8353 330.921V330.924ZM48.8982 311.861L47.6631 311.533C48.4536 308.541 49.4539 305.516 50.7291 302.28L51.9178 302.75C50.6643 305.936 49.6763 308.919 48.8982 311.861ZM55.8175 293.947L54.6689 293.388C55.9101 290.835 57.3242 288.094 59.1212 284.765L60.2451 285.371C58.4605 288.684 57.0525 291.41 55.8175 293.947ZM64.8826 276.871L63.7526 276.269L63.7896 276.204C65.4106 273.224 66.658 270.294 67.4917 267.5L68.7174 267.868C67.8591 270.746 66.5777 273.759 64.9104 276.819L64.8826 276.871ZM68.7946 258.164C68.6804 254.946 67.9178 251.899 66.5345 249.108L67.68 248.539C69.1466 251.494 69.9525 254.717 70.0729 258.12L68.7946 258.167V258.164Z" fill="#292929"/>
<path d="M73.6792 375.529C72.333 374.422 71.0177 373.297 69.7703 372.188L70.6194 371.233C71.8544 372.333 73.1543 373.446 74.4881 374.54L73.6761 375.529H73.6792Z" fill="#292929"/>
<path d="M52.3378 220.087L50.6458 240.698L38.6845 227.214L0 195.5L32.9878 205.903C32.9878 205.903 49.2286 213.8 49.9758 214.845C50.7199 215.886 52.3378 220.087 52.3378 220.087Z" fill="#5CB30B"/>
<path d="M69.8691 211.229L0 195.5L52.3378 220.087L69.8691 211.229Z" fill="#7FBF43"/>
<path d="M25.4696 235.351L47.0024 224.596L0 195.5L25.4696 235.351Z" fill="#7FBF43"/>
</svg>
