<svg width="287" height="303" viewBox="0 0 287 303" fill="none" xmlns="http://www.w3.org/2000/svg">
<path d="M60.181 69.8944C47.3993 69.8944 37.0361 59.5144 37.0361 46.7119C37.0361 33.9093 47.3993 23.5293 60.181 23.5293C72.9628 23.5293 83.3259 33.9093 83.3259 46.7119C83.3259 59.5144 72.9628 69.8944 60.181 69.8944Z" fill="#EBEBEB"/>
<path d="M54.4797 41.5488H49.6899V57.0512H54.4797V41.5488Z" fill="white"/>
<path d="M52.0608 39.519C53.6282 39.519 54.8915 38.2401 54.8915 36.6567C54.8915 35.0733 53.6214 33.7944 52.0608 33.7944C50.5003 33.7944 49.2302 35.0733 49.2302 36.6567C49.2302 38.2401 50.5003 39.519 52.0608 39.519Z" fill="white"/>
<path d="M62.1337 48.911C62.1337 46.7321 63.1336 45.4329 65.0522 45.4329C66.8154 45.4329 67.6599 46.678 67.6599 48.911V57.0445H72.4294V47.2329C72.4294 43.0781 70.0784 41.0752 66.8019 41.0752C63.5254 41.0752 62.1405 43.633 62.1405 43.633V41.5421H57.5466V57.0445H62.1405V48.911H62.1337Z" fill="white"/>
<path d="M91.2028 0.549316L94.3712 6.35511L100.168 9.52867L94.3712 12.7022L91.2028 18.508L88.0344 12.7022L82.238 9.52867L88.0344 6.35511L91.2028 0.549316Z" fill="#F5F5F5"/>
<path d="M223.377 157.8L225.755 162.151L230.099 164.533L225.755 166.914L223.377 171.265L220.999 166.914L216.655 164.533L220.999 162.151L223.377 157.8Z" fill="#EBEBEB"/>
<path d="M230.099 136.302L231.174 138.265L233.133 139.34L231.174 140.416L230.099 142.379L229.025 140.416L227.066 139.34L229.025 138.265L230.099 136.302Z" fill="#E0E0E0"/>
<path d="M68.5645 2.73535L69.6387 4.69768L71.5978 5.77358L69.6387 6.84271L68.5645 8.81181L67.4904 6.84271L65.5312 5.77358L67.4904 4.69768L68.5645 2.73535Z" fill="#E0E0E0"/>
<path d="M14.8031 185.191C17.2216 184.135 18.9173 181.605 18.897 178.648C18.8633 174.77 15.8908 171.651 12.263 171.685C8.63517 171.712 5.72348 174.885 5.75726 178.756C5.78429 181.74 7.56103 184.264 10.0268 185.252C-0.0661183 186.91 0.535135 197.912 0.535135 197.912L24.4434 197.716C24.4434 197.716 24.842 186.585 14.8031 185.198V185.191Z" fill="#E0E0E0"/>
<path d="M244.158 257.716C243.82 255.991 242.125 254.644 240.368 254.712C238.632 254.773 237.051 256.214 236.815 257.94C236.565 256.221 234.97 254.793 233.234 254.746C231.485 254.698 229.796 256.058 229.471 257.784C229.235 259.043 229.667 260.349 230.37 261.418C231.079 262.48 232.038 263.346 232.991 264.199C234.329 265.39 235.565 266.513 236.896 267.704C238.22 266.499 239.348 265.369 240.672 264.165C241.618 263.306 242.577 262.433 243.273 261.364C243.969 260.294 244.388 258.982 244.145 257.723L244.158 257.716Z" fill="#EBEBEB"/>
<path d="M259.73 115.082L262.29 114.574L266.337 105.656L265.324 100.534C265.324 100.534 269.235 99.505 270.1 106.305C270.965 113.106 271.127 111.299 271.127 111.299C271.127 111.299 279.544 109.662 280.389 110.257C281.004 110.69 282.888 119.006 283.875 123.527C284.368 125.8 283.395 128.202 281.382 129.163C281.098 129.299 280.801 129.407 280.504 129.468C278.409 129.887 267.35 130.307 267.35 130.307L262.925 131.186L259.737 115.089L259.73 115.082Z" fill="#E0E0E0"/>
<path d="M252.116 115.136L257.169 132.377L261.561 131.505L258.156 114.304L252.116 115.136Z" fill="#E0E0E0"/>
<path d="M233.889 108.315C220.256 114.953 203.833 109.269 197.199 95.6143C190.572 81.9592 196.246 65.5094 209.879 58.8646C223.512 52.2265 239.935 57.9105 246.569 71.5656C253.197 85.2207 247.522 101.67 233.889 108.315Z" fill="#E8505B"/>
<path d="M215.101 89.7407C215.561 89.7136 215.838 89.3888 215.743 88.9084C215.676 88.5768 215.5 87.7377 215.426 87.3859C215.331 86.9054 215.216 86.7836 214.73 86.5671C213.662 86.0934 212.723 85.2679 212.014 83.7995C209.947 79.5365 211.278 74.1706 216.385 71.6805C220.904 69.4745 224.735 71.0376 226.532 74.7322C228.896 79.5974 228.734 84.7469 225.546 86.3032C223.782 87.1626 221.756 86.3438 221.31 84.3476C220.783 81.9658 220.641 79.1779 219.891 77.6351C219.222 76.2547 217.918 75.463 216.392 76.2073C214.588 77.087 214.047 79.6583 215.263 82.1552C216.034 83.7454 217.094 84.5642 217.094 84.5642C217.094 84.5642 219.047 93.2864 219.391 94.8089C220.073 97.8471 222.242 100.926 222.451 101.244C222.58 101.433 222.857 101.352 222.897 101.149C222.958 100.852 223.816 97.1502 223.255 94.1458C223.1 93.2932 222.188 88.9354 222.188 88.9354C223.316 89.7677 225.505 89.9166 227.322 89.0302C232.734 86.3912 234.01 79.6583 230.795 73.0473C228.363 68.0468 221.87 65.4484 215.446 68.5813C207.447 72.4789 206.204 80.1929 208.528 84.9837C209.94 87.8866 212.284 89.9301 215.108 89.7474L215.101 89.7407Z" fill="white"/>
<path d="M261.304 185.868C251.535 182.133 246.644 171.171 250.38 161.386C254.109 151.602 265.053 146.702 274.822 150.444C284.591 154.18 289.482 165.142 285.746 174.926C282.017 184.711 271.072 189.61 261.304 185.868Z" fill="#E8505B"/>
<path fill-rule="evenodd" clip-rule="evenodd" d="M277.943 171.374C279.767 166.204 277.126 160.486 271.944 158.503C266.824 156.548 261.122 158.964 258.974 163.917C258.919 164.052 258.859 164.187 258.805 164.33C258.122 166.123 257.98 167.984 258.305 169.743L254.65 174.162L260.568 174.5C261.649 175.772 263.054 176.801 264.723 177.437C269.985 179.453 275.863 176.841 277.856 171.61C277.889 171.529 277.916 171.448 277.943 171.367V171.374ZM265.297 175.928C263.669 175.305 262.345 174.243 261.392 172.923L257.94 172.727L260.068 170.156C259.609 168.478 259.656 166.644 260.325 164.905C260.426 164.648 260.534 164.39 260.662 164.147C262.595 160.27 267.222 158.422 271.37 160.012C275.572 161.623 277.795 166.184 276.552 170.406C276.491 170.616 276.423 170.826 276.342 171.035C274.667 175.427 269.715 177.619 265.297 175.928Z" fill="white"/>
<path fill-rule="evenodd" clip-rule="evenodd" d="M271.971 171.556C271.782 171.353 270.85 170.345 270.66 170.19C270.478 170.027 270.336 169.932 270.093 170.102C269.85 170.271 269.201 170.623 269.005 170.724C268.809 170.826 268.668 170.792 268.478 170.589C268.289 170.386 267.627 169.851 267.039 168.721C266.58 167.848 266.398 166.908 266.35 166.623C266.303 166.339 266.472 166.258 266.634 166.19C266.783 166.123 266.972 166.008 267.141 165.92C267.188 165.893 267.229 165.866 267.269 165.839C267.357 165.771 267.425 165.71 267.519 165.615C267.661 165.487 267.668 165.338 267.654 165.202C267.641 165.067 267.607 163.741 267.587 163.2C267.573 162.665 267.343 162.665 267.208 162.611C267.073 162.557 266.925 162.476 266.769 162.421C266.614 162.361 266.337 162.32 266.033 162.476C265.729 162.624 264.911 162.956 264.479 164.1C264.378 164.37 264.324 164.654 264.297 164.939C264.222 165.845 264.472 166.718 264.52 166.867C264.58 167.063 265.155 170.054 267.168 171.901C269.195 173.735 269.309 173.424 269.755 173.553C270.194 173.681 271.35 173.525 271.748 173.052C272.153 172.585 272.329 172.125 272.309 172.003C272.289 171.888 272.154 171.766 271.964 171.563L271.971 171.556Z" fill="white"/>
<path d="M15.1407 98.2264C7.16903 98.2264 0.703857 91.7507 0.703857 83.766C0.703857 75.7814 7.16903 69.3057 15.1407 69.3057C23.1124 69.3057 29.5776 75.7814 29.5776 83.766C29.5776 91.7507 23.1124 98.2264 15.1407 98.2264Z" fill="#E8505B"/>
<path d="M7.44596 88.611C8.84439 89.511 10.4995 90.032 12.283 90.032C18.1402 90.032 21.4505 85.072 21.2545 80.6263C21.8693 80.1797 22.403 79.6249 22.8286 78.9888C22.2611 79.2392 21.6531 79.4083 21.0181 79.4895C21.6666 79.0971 22.1666 78.4813 22.403 77.7437C21.795 78.1091 21.1194 78.3663 20.3966 78.5084C19.8223 77.8926 18.9981 77.5137 18.0929 77.5137C16.0594 77.5137 14.5597 79.4151 15.0191 81.3977C12.3979 81.2692 10.0672 80.0106 8.51336 78.0956C7.68917 79.5166 8.08775 81.3774 9.49293 82.318C8.97275 82.3045 8.48634 82.1624 8.06073 81.9255C8.02695 83.3871 9.07408 84.7608 10.5941 85.0653C10.1482 85.1871 9.66182 85.2141 9.16866 85.1194C9.56724 86.378 10.736 87.2915 12.1141 87.3118C10.79 88.3539 9.11461 88.8208 7.43921 88.6178L7.44596 88.611Z" fill="white"/>
<path d="M41.0827 260.207C27.7267 263.394 14.3167 255.132 11.1348 241.754C7.9529 228.376 16.2016 214.944 29.5575 211.757C42.9135 208.57 56.3235 216.832 59.5054 230.21C62.6873 243.588 54.4386 257.019 41.0827 260.207Z" fill="#455A64"/>
<path d="M32.7327 225.087C36.2726 224.242 36.6982 224.154 38.1102 223.89C39.414 223.639 40.1707 223.687 40.6841 223.761C41.3597 223.856 41.8731 224.039 42.4473 224.39C43.0216 224.742 43.4134 225.121 43.8052 225.683C44.0957 226.109 44.4808 226.759 44.8456 228.038C45.2442 229.425 45.359 229.838 46.1967 233.383C47.0412 236.929 47.129 237.355 47.3992 238.77C47.6492 240.076 47.6019 240.833 47.5276 241.348C47.433 242.024 47.2506 242.539 46.8993 243.114C46.548 243.689 46.1697 244.081 45.609 244.474C45.1834 244.765 44.5348 245.151 43.258 245.516C41.8731 245.915 41.461 246.023 37.921 246.869C34.3811 247.715 33.9555 247.803 32.5435 248.074C31.2397 248.324 30.483 248.277 29.9696 248.202C29.294 248.108 28.7806 247.925 28.2064 247.573C27.6321 247.221 27.2403 246.842 26.8485 246.281C26.558 245.854 26.1729 245.205 25.8081 243.926C25.4095 242.539 25.2947 242.126 24.457 238.573C23.6125 235.028 23.5247 234.601 23.2545 233.187C23.0045 231.874 23.0518 231.123 23.1261 230.609C23.2207 229.932 23.4031 229.418 23.7544 228.843C24.1057 228.268 24.484 227.875 25.0447 227.483C25.4703 227.192 26.1189 226.806 27.3957 226.441C28.7806 226.042 29.1927 225.926 32.7327 225.087ZM32.1652 222.692C28.5644 223.551 28.1186 223.673 26.7134 224.079C25.315 224.478 24.4097 224.939 23.6395 225.466C22.8491 226.014 22.2141 226.644 21.6534 227.557C21.0927 228.471 20.8157 229.323 20.6806 230.277C20.5522 231.198 20.559 232.219 20.8292 233.647C21.0994 235.082 21.194 235.535 22.052 239.142C22.9099 242.748 23.0315 243.195 23.4369 244.602C23.8355 246.003 24.2881 246.91 24.8218 247.681C25.369 248.473 25.9973 249.109 26.9093 249.671C27.8213 250.232 28.6725 250.51 29.6251 250.645C30.5438 250.774 31.5639 250.767 32.9894 250.496C34.4216 250.226 34.8742 250.131 38.475 249.271C42.0758 248.412 42.5216 248.29 43.9268 247.884C45.3252 247.485 46.2305 247.025 47.0006 246.497C47.7911 245.949 48.4261 245.32 48.9868 244.406C49.5475 243.493 49.8245 242.64 49.9596 241.686C50.088 240.766 50.0812 239.744 49.811 238.316C49.5408 236.882 49.4462 236.428 48.5882 232.822C47.7303 229.215 47.6086 228.768 47.2033 227.361C46.8047 225.96 46.3453 225.054 45.8184 224.282C45.2712 223.49 44.6429 222.854 43.7309 222.293C42.8189 221.731 41.9677 221.454 41.0151 221.318C40.0963 221.19 39.0762 221.197 37.6508 221.467C36.2186 221.738 35.766 221.833 32.1652 222.692Z" fill="white"/>
<path d="M33.6993 229.161C29.9363 230.061 27.6124 233.837 28.5109 237.606C29.4094 241.375 33.1791 243.696 36.942 242.803C40.7049 241.903 43.0221 238.127 42.1303 234.358C41.2318 230.589 37.4622 228.261 33.6993 229.161ZM36.3745 240.407C33.9357 240.989 31.4834 239.48 30.9024 237.037C30.3214 234.595 31.8279 232.138 34.2667 231.557C36.7055 230.975 39.1578 232.484 39.7388 234.926C40.3198 237.369 38.8133 239.825 36.3745 240.407Z" fill="white"/>
<path d="M42.3056 226.82C42.515 227.7 41.9746 228.586 41.0963 228.796C40.2181 229.005 39.3331 228.464 39.1237 227.584C38.9142 226.705 39.4547 225.818 40.3329 225.609C41.2112 225.399 42.0962 225.94 42.3056 226.82Z" fill="white"/>
<path d="M229.41 238.289C223.006 238.289 217.817 233.092 217.817 226.678C217.817 220.263 223.006 215.066 229.41 215.066C235.814 215.066 241.003 220.263 241.003 226.678C241.003 233.092 235.814 238.289 229.41 238.289Z" fill="#455A64"/>
<path d="M227.647 233.694H230.47V226.616H232.436L232.646 224.248H230.464V222.895C230.464 222.333 230.579 222.116 231.112 222.116H232.639V219.653H230.687C228.586 219.653 227.64 220.58 227.64 222.353V224.241H226.174V226.643H227.64V233.694H227.647Z" fill="white"/>
<path d="M189.87 302.45L96.7158 302.396C85.5149 302.396 76.4353 293.288 76.4353 282.069L76.4826 48.1528C76.4826 36.9269 85.5757 27.8258 96.7834 27.8325L189.937 27.8867C201.138 27.8867 210.218 36.9946 210.218 48.2137L210.17 282.13C210.17 293.356 201.077 302.457 189.87 302.45Z" fill="#263238"/>
<path d="M189.836 36.1625L171.778 36.1489C169.359 36.1489 167.393 38.206 167.393 40.7367V44.0185C167.393 46.556 165.427 48.6063 163.009 48.6063L127.805 48.586C125.386 48.586 123.421 46.529 123.421 43.9915V40.7097C123.421 38.1722 121.461 36.1151 119.036 36.1151H112.686L96.8776 36.1016C89.0275 36.1016 82.6569 42.469 82.6569 50.3318L82.6096 278.646C82.6096 286.508 88.9667 292.876 96.81 292.883L189.775 292.937C197.625 292.937 203.989 286.569 203.995 278.706L204.043 50.386C204.043 42.5299 197.686 36.1557 189.842 36.1489L189.836 36.1625Z" fill="white"/>
<path d="M191.201 54.7099C191.201 54.7708 188.85 54.8384 185.958 54.8655C183.06 54.8926 180.709 54.8655 180.709 54.7978C180.709 54.7369 183.06 54.6693 185.951 54.6422C188.85 54.6151 191.201 54.6422 191.201 54.7099Z" fill="#263238"/>
<path d="M191.221 57.3959C191.221 57.4568 188.87 57.5245 185.978 57.5515C183.08 57.5786 180.729 57.5515 180.729 57.4839C180.729 57.423 183.073 57.3553 185.972 57.3282C188.87 57.3012 191.221 57.3282 191.221 57.3959Z" fill="#263238"/>
<path d="M191.241 60.0893C191.241 60.1502 188.89 60.2178 185.998 60.2449C183.1 60.272 180.749 60.2449 180.749 60.1772C180.749 60.1163 183.093 60.0487 185.992 60.0216C188.89 59.9945 191.241 60.0216 191.241 60.0893Z" fill="#263238"/>
<path d="M92.4191 62.7078C92.4191 62.7078 92.5204 62.6942 92.696 62.6875C92.9122 62.6807 93.1622 62.6739 93.4594 62.6604C94.1823 62.6401 95.1213 62.6198 96.2833 62.5927L96.2022 62.6739C96.1955 62.0446 96.182 61.3612 96.1685 60.6236C96.1685 60.2447 96.1347 59.8861 96.1685 59.4462C96.2428 59.0064 96.6346 58.6207 97.1142 58.5733C97.5669 58.5666 97.9722 58.5463 98.4654 58.5666C98.9721 58.6275 99.4044 59.1214 99.3909 59.656C99.4044 60.6101 99.4112 61.6116 99.4247 62.6469L99.2963 62.5183C100.438 62.5048 101.634 62.498 102.857 62.4845L102.721 62.6198C102.708 61.1853 102.694 59.6966 102.681 58.1741C102.681 57.7952 102.681 57.4162 102.674 57.0441C102.674 56.6922 102.458 56.4621 102.174 56.1982C101.647 55.6772 101.127 55.1629 100.614 54.6622C100.107 54.1615 99.6003 53.6607 99.1139 53.1803C98.8707 52.9367 98.6275 52.6999 98.3843 52.463C98.1344 52.2194 97.9384 51.9691 97.6479 51.9149C97.3642 51.8405 97.0602 51.9014 96.8305 52.0706C96.6143 52.2533 96.3846 52.5104 96.1685 52.7202C95.7293 53.16 95.3037 53.5931 94.8916 54.0126C94.0877 54.8517 93.25 55.6163 92.642 56.3336C92.3853 56.7328 92.4799 57.22 92.4596 57.6666C92.4596 58.1064 92.4596 58.526 92.4596 58.9252C92.4596 59.6966 92.4528 60.3733 92.4461 60.9484C92.4461 61.4627 92.4326 61.8958 92.4326 62.2409C92.4326 62.5386 92.4191 62.701 92.4123 62.7078C92.4055 62.7145 92.3988 62.5657 92.3853 62.2815C92.3785 61.9364 92.365 61.5168 92.3515 61.0093C92.338 60.4274 92.3245 59.744 92.3042 58.9658C92.2975 58.5598 92.2907 58.1335 92.2772 57.6869C92.2772 57.4568 92.2704 57.2268 92.2637 56.9832C92.2637 56.7328 92.3245 56.4689 92.4596 56.2388C93.1216 55.4336 93.9053 54.7163 94.716 53.8502C95.1281 53.4307 95.5469 52.9976 95.986 52.551C96.2157 52.3277 96.3981 52.1044 96.6751 51.8676C96.9589 51.651 97.3507 51.5698 97.7087 51.6646C98.0871 51.7458 98.337 52.057 98.5667 52.2803C98.8099 52.5172 99.0531 52.754 99.2963 52.9976C99.7895 53.478 100.289 53.972 100.803 54.4795C101.316 54.9802 101.836 55.4945 102.363 56.0155C102.492 56.1509 102.64 56.2591 102.762 56.4486C102.877 56.6245 102.944 56.8343 102.951 57.0508C102.951 57.4298 102.951 57.8087 102.965 58.1876C102.978 59.7101 102.985 61.1988 102.998 62.6333V62.7687H102.863C101.634 62.7754 100.445 62.7822 99.3031 62.789H99.1747V62.6604C99.1747 61.6251 99.1612 60.6236 99.1612 59.6695C99.1747 59.2365 98.8437 58.8575 98.4383 58.8034C98.0263 58.7831 97.5466 58.7966 97.148 58.8034C96.763 58.8372 96.4454 59.1417 96.3779 59.4936C96.3441 59.8522 96.3711 60.2718 96.3644 60.6304C96.3644 61.368 96.3644 62.0514 96.3644 62.6807V62.7619H96.2833C95.1078 62.7551 94.1485 62.7484 93.4121 62.7416C93.1216 62.7416 92.8784 62.7348 92.6623 62.7281C92.4934 62.7281 92.4123 62.7213 92.4191 62.7145V62.7078Z" fill="#263238"/>
<path d="M153.868 241.117C153.868 241.117 153.524 241.164 152.896 241.185C152.2 241.198 151.308 241.218 150.234 241.239C147.984 241.272 144.883 241.293 141.452 241.293C138.02 241.293 134.919 241.272 132.669 241.239C131.595 241.218 130.703 241.198 130.007 241.185C129.379 241.164 129.035 241.137 129.035 241.117C129.035 241.097 129.379 241.069 130.007 241.049C130.703 241.036 131.595 241.015 132.669 240.995C134.919 240.961 138.02 240.941 141.452 240.941C144.883 240.941 147.984 240.961 150.234 240.995C151.308 241.015 152.2 241.036 152.896 241.049C153.524 241.069 153.868 241.097 153.868 241.117Z" fill="#455A64"/>
<path d="M192.909 247.241C192.909 247.336 178.608 247.417 160.969 247.417C143.33 247.417 129.028 247.336 129.028 247.241C129.028 247.146 143.33 247.065 160.969 247.065C178.608 247.065 192.909 247.146 192.909 247.241Z" fill="#455A64"/>
<path d="M172.946 252.999C172.946 253.094 163.117 253.175 150.99 253.175C138.864 253.175 129.028 253.094 129.028 252.999C129.028 252.904 138.857 252.823 150.99 252.823C163.124 252.823 172.946 252.904 172.946 252.999Z" fill="#455A64"/>
<path d="M194.173 264.205L192.187 262.208L190.295 264.096V258.392H194.179V264.198L194.173 264.205ZM192.18 261.965L192.241 262.026L193.99 263.785V258.575H190.477V263.684L192.187 261.972L192.18 261.965Z" fill="#263238"/>
<path d="M141.323 263.46L140.62 263.149C140.283 263.332 139.985 263.426 139.715 263.426C138.641 263.433 137.763 262.567 137.756 261.491C137.749 260.415 138.614 259.536 139.688 259.529C140.762 259.522 141.64 260.388 141.647 261.464C141.647 261.945 141.478 262.405 141.161 262.763L141.323 263.467V263.46ZM139.688 259.657C138.688 259.664 137.884 260.483 137.891 261.484C137.898 262.486 138.715 263.291 139.715 263.284C139.972 263.284 140.255 263.19 140.587 263.007L140.614 262.993L141.127 263.223L141.012 262.716L141.032 262.689C141.343 262.351 141.512 261.911 141.505 261.457C141.499 260.456 140.681 259.651 139.681 259.657H139.688Z" fill="#263238"/>
<path d="M145.823 263.163L145.019 261.201L143.512 259.827L147.16 259.8L145.816 263.163H145.823ZM143.857 259.955L145.14 261.133L145.823 262.804L146.971 259.928L143.857 259.955Z" fill="#263238"/>
<path d="M147.083 259.815L145.089 261.114L145.163 261.227L147.156 259.928L147.083 259.815Z" fill="#263238"/>
<path d="M135.574 260.233C135.473 259.712 134.953 259.306 134.419 259.326C133.892 259.347 133.412 259.787 133.345 260.308C133.264 259.787 132.784 259.353 132.257 259.34C131.723 259.326 131.217 259.746 131.122 260.267C131.055 260.646 131.183 261.045 131.399 261.37C131.615 261.695 131.906 261.952 132.196 262.209C132.602 262.568 132.98 262.906 133.385 263.265C133.784 262.899 134.128 262.554 134.527 262.189C134.811 261.925 135.101 261.661 135.311 261.336C135.52 261.011 135.648 260.612 135.567 260.233H135.574Z" fill="#E8505B"/>
<path d="M198.24 269.253C198.24 269.253 198.233 269.036 198.226 268.617C198.226 268.19 198.219 267.575 198.213 266.763C198.213 265.132 198.199 262.73 198.186 259.617C198.172 253.398 198.152 244.351 198.125 233.004L198.24 233.119C172.244 233.132 133.446 233.153 90.203 233.18H90.1962L90.3719 233.004C90.3719 245.603 90.3719 257.824 90.3719 269.253L90.203 269.084C121.306 269.117 148.288 269.144 167.508 269.165C177.128 269.185 184.796 269.199 190.079 269.212C192.713 269.219 194.747 269.232 196.132 269.232C196.821 269.232 197.341 269.239 197.699 269.246C198.05 269.246 198.24 269.259 198.24 269.259C198.24 269.259 198.071 269.266 197.719 269.273C197.361 269.273 196.848 269.273 196.172 269.287C194.794 269.287 192.774 269.3 190.153 269.307C184.884 269.32 177.223 269.334 167.623 269.354C148.376 269.374 121.347 269.402 90.1962 269.435H90.0273V269.266C90.0273 257.837 90.0273 245.617 90.0273 233.017V232.841H90.2097C133.453 232.868 172.251 232.889 198.246 232.902H198.361V233.017C198.334 244.399 198.314 253.466 198.3 259.705C198.287 262.804 198.28 265.199 198.273 266.823C198.273 267.622 198.267 268.238 198.26 268.657C198.26 269.07 198.246 269.273 198.246 269.273L198.24 269.253Z" fill="#263238"/>
<path d="M94.7052 239.079L94.5674 263.046L124.494 263.219L124.632 239.252L94.7052 239.079Z" fill="#EBEBEB"/>
<path d="M124.616 239.229C124.616 239.229 124.562 239.229 124.468 239.236C124.36 239.236 124.218 239.236 124.042 239.236C123.65 239.236 123.11 239.236 122.407 239.242C120.968 239.242 118.894 239.242 116.273 239.249C111.01 239.236 103.552 239.222 94.6887 239.209L94.844 239.053C94.8103 246.185 94.7697 254.366 94.7292 263.014C94.763 263.054 94.3982 262.682 94.5603 262.838H94.5671H94.5806H94.6144H94.6819H94.8103H95.067H95.5872L96.6208 262.845C97.3099 262.845 97.9922 262.851 98.6678 262.858C100.026 262.865 101.37 262.872 102.701 262.885C105.356 262.905 107.95 262.919 110.463 262.933C115.489 262.966 120.205 263 124.481 263.034L124.333 263.183C124.407 255.99 124.468 250.015 124.508 245.826C124.535 243.742 124.555 242.098 124.576 240.961C124.589 240.413 124.596 239.98 124.603 239.676C124.609 239.385 124.623 239.222 124.623 239.222C124.623 239.222 124.63 239.358 124.637 239.642C124.637 239.946 124.637 240.366 124.643 240.9C124.643 242.03 124.643 243.661 124.657 245.732C124.657 249.947 124.643 255.949 124.637 263.183V263.332H124.488C120.212 263.311 115.496 263.298 110.47 263.271C107.957 263.257 105.363 263.244 102.708 263.23C101.377 263.224 100.032 263.217 98.6745 263.21C97.9922 263.21 97.3099 263.203 96.6275 263.196H95.5939L95.0737 263.19H94.817H94.6887H94.6211H94.5873H94.5738H94.5671C94.7224 263.345 94.3441 262.973 94.3847 263.007C94.4387 254.352 94.4927 246.178 94.54 239.046V238.891H94.6954C103.599 238.972 111.091 239.046 116.381 239.094C118.989 239.127 121.049 239.155 122.481 239.168C123.171 239.182 123.704 239.188 124.083 239.195C124.251 239.195 124.387 239.202 124.488 239.209C124.576 239.209 124.623 239.215 124.616 239.215V239.229Z" fill="#263238"/>
<path d="M95.723 240.594L95.6025 261.543L123.429 261.704L123.549 240.755L95.723 240.594Z" fill="#E0E0E0"/>
<path d="M95.5942 261.525L105.39 248.561L111.362 256.741L115.469 252.411L123.421 261.681L95.5942 261.525Z" fill="#F5F5F5"/>
<path d="M113.969 247.011C113.963 248.222 112.976 249.196 111.767 249.19C110.558 249.183 109.585 248.195 109.592 246.984C109.599 245.772 110.585 244.798 111.794 244.805C113.003 244.811 113.976 245.799 113.969 247.011Z" fill="#F5F5F5"/>
<path d="M145.154 83.7721C145.154 83.7721 145.046 83.7992 144.836 83.806C144.586 83.8127 144.282 83.8263 143.918 83.8398C143.066 83.8533 141.925 83.8736 140.546 83.8939C137.702 83.9278 133.771 83.9481 129.427 83.9481C125.083 83.9481 121.151 83.9278 118.307 83.8939C116.929 83.8736 115.787 83.8533 114.936 83.8398C114.571 83.8263 114.267 83.8127 114.017 83.806C113.808 83.7924 113.699 83.7857 113.699 83.7721C113.699 83.7586 113.808 83.7451 114.017 83.7383C114.267 83.7315 114.571 83.718 114.936 83.7045C115.787 83.6909 116.929 83.6706 118.307 83.6503C121.151 83.6165 125.083 83.5962 129.427 83.5962C133.771 83.5962 137.702 83.6165 140.546 83.6503C141.925 83.6706 143.066 83.6909 143.918 83.7045C144.282 83.718 144.586 83.7315 144.836 83.7383C145.046 83.7518 145.154 83.7586 145.154 83.7721Z" fill="#263238"/>
<path d="M189.37 216.25L186.418 213.286L183.607 216.094L183.621 207.609H189.377L189.363 216.25H189.37ZM186.424 212.921L186.519 213.015L189.113 215.627L189.127 207.886H183.891L183.877 215.472L186.424 212.927V212.921Z" fill="#263238"/>
<path d="M114.476 215.356L113.098 214.741C112.429 215.099 111.848 215.282 111.315 215.282C109.2 215.296 107.471 213.59 107.457 211.479C107.437 209.361 109.146 207.629 111.254 207.615C113.362 207.595 115.098 209.307 115.111 211.418C115.118 212.359 114.78 213.266 114.159 213.976L114.476 215.356ZM111.254 207.879C109.288 207.893 107.7 209.51 107.714 211.479C107.727 213.448 109.342 215.038 111.308 215.025C111.815 215.025 112.375 214.842 113.024 214.484L113.078 214.45L114.091 214.903L113.862 213.902L113.909 213.854C114.517 213.184 114.848 212.325 114.841 211.425C114.828 209.456 113.213 207.866 111.247 207.879H111.254Z" fill="#263238"/>
<path d="M123.34 214.761L121.759 210.897L118.793 208.191L125.981 208.13L123.34 214.754V214.761ZM119.469 208.448L121.995 210.769L123.34 214.057L125.596 208.401L119.469 208.448Z" fill="#263238"/>
<path d="M125.849 208.133L121.93 210.687L122.074 210.908L125.993 208.354L125.849 208.133Z" fill="#263238"/>
<path d="M103.167 209.003C102.965 207.974 101.945 207.176 100.897 207.216C99.8638 207.257 98.918 208.123 98.7829 209.152C98.6275 208.123 97.675 207.277 96.6346 207.25C95.5875 207.223 94.5876 208.042 94.3985 209.077C94.2634 209.828 94.5201 210.606 94.9457 211.242C95.3713 211.879 95.9455 212.393 96.5198 212.894C97.3237 213.604 98.0601 214.267 98.864 214.978C99.6544 214.254 100.323 213.577 101.114 212.86C101.674 212.345 102.249 211.824 102.661 211.182C103.073 210.539 103.323 209.754 103.174 209.009L103.167 209.003Z" fill="#E8505B"/>
<path d="M102.512 88.6578C105.206 88.6578 107.39 86.4704 107.39 83.7722C107.39 81.074 105.206 78.8867 102.512 78.8867C99.8185 78.8867 97.6348 81.074 97.6348 83.7722C97.6348 86.4704 99.8185 88.6578 102.512 88.6578Z" fill="#EBEBEB"/>
<path d="M187.525 188.236C187.525 188.331 167.082 188.412 141.87 188.412C116.658 188.412 96.2087 188.331 96.2087 188.236C96.2087 188.141 116.645 188.06 141.87 188.06C167.096 188.06 187.525 188.141 187.525 188.236Z" fill="#455A64"/>
<path d="M187.525 180.617C187.525 180.712 167.082 180.793 141.87 180.793C116.658 180.793 96.2087 180.712 96.2087 180.617C96.2087 180.522 116.645 180.441 141.87 180.441C167.096 180.441 187.525 180.522 187.525 180.617Z" fill="#455A64"/>
<path d="M145.917 195.95C145.917 196.045 134.79 196.126 121.07 196.126C107.349 196.126 96.2156 196.045 96.2156 195.95C96.2156 195.855 107.342 195.774 121.07 195.774C134.797 195.774 145.917 195.855 145.917 195.95Z" fill="#455A64"/>
<path d="M139.783 278.929C139.783 280.018 138.905 280.898 137.838 280.891C136.764 280.891 135.899 279.998 135.906 278.909C135.906 277.819 136.784 276.94 137.851 276.946C138.925 276.946 139.79 277.84 139.783 278.929Z" fill="#263238"/>
<path d="M145.796 278.956C145.796 280.045 144.918 280.925 143.85 280.918C142.776 280.918 141.911 280.025 141.918 278.936C141.918 277.846 142.796 276.966 143.864 276.973C144.938 276.973 145.803 277.866 145.796 278.956Z" fill="#263238"/>
<path d="M151.808 278.989C151.808 280.079 150.93 280.959 149.863 280.952C148.789 280.952 147.924 280.059 147.931 278.969C147.931 277.88 148.809 277 149.876 277.007C150.95 277.007 151.815 277.9 151.808 278.989Z" fill="#263238"/>
<path d="M198.889 93.4351H90.8452V159.613H198.889V93.4351Z" fill="#E0E0E0"/>
<path d="M100.817 159.627L131.778 118.12L150.971 144.077L163.982 130.192L189.491 159.6L100.817 159.627Z" fill="#F5F5F5"/>
<path d="M159.104 113.031C159.104 116.895 155.983 120.028 152.126 120.028C148.268 120.028 145.14 116.902 145.14 113.038C145.14 109.174 148.261 106.042 152.119 106.042C155.976 106.042 159.104 109.168 159.104 113.031Z" fill="#F5F5F5"/>
<path d="M198.598 221.122C198.598 219.708 198.53 159.918 198.436 71.4167L198.598 71.5791C166.015 71.5791 129.291 71.5926 90.5678 71.5926H90.5543L90.73 71.4167C90.7164 127.404 90.7097 179.216 90.6962 221.122L90.5543 220.98C156.071 221.068 197.415 221.122 198.598 221.122C197.422 221.122 156.077 221.176 90.5543 221.264H90.4124V221.122C90.4057 179.216 90.3922 127.404 90.3787 71.4167V71.2407H90.5543H90.5678C129.291 71.2407 166.015 71.2543 198.598 71.2543H198.76V71.4167C198.726 115.711 198.699 153.158 198.679 179.527C198.658 192.695 198.645 203.103 198.638 210.214C198.631 213.76 198.625 216.494 198.618 218.334C198.618 219.248 198.611 219.945 198.611 220.418C198.611 220.885 198.604 221.115 198.604 221.115L198.598 221.122Z" fill="#263238"/>
<path d="M147.829 239.69L150.22 231.644C150.639 229.898 151.193 227.841 151.936 225.493C152.605 223.382 154.328 221.162 155.895 219.565C158.334 217.082 159.496 217.062 161.137 215.742C161.286 215.648 161.455 215.512 161.597 215.431C161.935 215.248 162.185 215.005 162.394 214.741C163.806 213.212 162.448 210.843 159.577 211.067C157.415 211.236 153.895 211.858 148.16 217.779C148.086 217.867 148.011 217.941 147.944 218.036C144.937 221.954 142.113 210.776 141.6 206.614C141.269 203.914 138.357 202.256 135.716 203.231L121.759 209.767C120.603 209.361 119.239 209.429 117.685 209.903C115.631 210.661 114.49 212.779 115.023 214.836L120.685 237.47L104.059 292.882H139.898L147.829 239.676V239.69Z" fill="#FFBE9D"/>
<path d="M175.359 188.798L164.279 210.539L158.74 208.996L130.893 231.685C128.522 233.613 125.049 233.309 123.056 230.988L112.457 218.646C112.457 218.646 133.831 209.423 137.784 201.79C141.736 194.157 137.169 192.425 137.169 192.425L147.228 180.976L175.352 188.798H175.359Z" fill="#E8505B"/>
<path d="M160.989 144.381C160.989 144.381 144.775 140.788 121.955 118.81C99.1341 96.832 88.4129 67.6407 85.6228 67.7828C82.8327 67.9249 70.632 62.2544 47.4398 112.795C24.2408 163.335 33.3812 175.075 37.9954 174.98C42.6095 174.885 73.9558 166.136 93.5269 168.362C113.105 170.589 138.27 180.813 138.27 180.813L160.996 144.381H160.989Z" fill="#E8505B"/>
<path d="M195.442 171.929L189.91 182.464L187.43 187.181C184.032 193.656 176.169 196.329 169.535 193.271L134.777 181.138L155.017 134.854L189.741 153.388C196.409 156.947 198.949 165.23 195.436 171.922L195.442 171.929Z" fill="#E8505B"/>
<g opacity="0.4">
<path d="M195.442 171.929L189.91 182.464L187.43 187.181C184.032 193.656 176.169 196.329 169.535 193.271L134.777 181.138L155.017 134.854L189.741 153.388C196.409 156.947 198.949 165.23 195.436 171.922L195.442 171.929Z" fill="black"/>
</g>
<path d="M49.311 113.715C36.9684 141.093 31.8273 165.494 37.8331 168.207C43.8389 170.927 58.7149 150.932 71.0575 123.554C83.4001 96.1761 88.5411 71.7756 82.5354 69.0622C76.5296 66.342 61.6536 86.3374 49.311 113.715Z" fill="#E8505B"/>
<g opacity="0.5">
<path d="M49.311 113.715C36.9684 141.093 31.8273 165.494 37.8331 168.207C43.8389 170.927 58.7149 150.932 71.0575 123.554C83.4001 96.1761 88.5411 71.7756 82.5354 69.0622C76.5296 66.342 61.6536 86.3374 49.311 113.715Z" fill="black"/>
</g>
<path d="M198.422 187.154L189.004 184.19L194.835 173.086L201.901 177.484L198.422 187.154Z" fill="#E8505B"/>
<g opacity="0.6">
<path d="M194.835 173.086L189.004 184.19L190.937 184.799L195.679 173.614L194.835 173.086Z" fill="black"/>
</g>
<path d="M188.343 175.643C188.208 175.948 183.506 174.121 177.845 171.556C172.177 168.992 167.704 166.671 167.839 166.359C167.975 166.055 172.676 167.882 178.338 170.446C183.999 173.011 188.478 175.332 188.343 175.636V175.643Z" fill="#E8505B"/>
<path d="M191.241 169.033C191.092 169.337 186.836 167.537 181.736 165.02C176.635 162.503 172.616 160.223 172.764 159.918C172.913 159.62 177.162 161.413 182.269 163.931C187.37 166.448 191.383 168.728 191.241 169.026V169.033Z" fill="#E8505B"/>
<path d="M184.688 182.579C184.64 182.742 183.519 182.485 181.735 181.93C180.844 181.652 179.79 181.307 178.614 180.901C177.452 180.482 176.25 179.866 174.953 179.284C169.798 176.889 165.866 174.541 165.995 174.263C166.15 173.932 170.352 175.813 175.459 178.181C176.743 178.763 177.925 179.406 179.047 179.873C180.168 180.326 181.181 180.752 182.019 181.124C183.701 181.876 184.728 182.424 184.681 182.579H184.688Z" fill="#E8505B"/>
<path d="M74.476 107.625C74.476 107.625 60.3837 98.8691 52.6687 117.944C44.9605 137.019 59.7892 140.152 59.7892 140.152C65.8558 130.726 70.7874 119.927 74.476 107.625Z" fill="#E8505B"/>
<g opacity="0.5">
<path d="M89.4667 84.8955C89.5478 84.9091 89.3519 86.2083 88.9128 88.5428C88.4669 90.8705 87.8386 94.2538 86.9334 98.4086C86.3389 100.452 85.6836 102.685 84.9877 105.08C84.6364 106.278 84.2716 107.523 83.8933 108.795C83.7041 109.431 83.515 110.081 83.3191 110.737C83.1097 111.387 82.8327 112.03 82.5895 112.686C81.5761 115.312 80.5087 118.066 79.4075 120.914C79.1306 121.625 78.8536 122.349 78.5699 123.073C78.2929 123.804 77.9078 124.487 77.5768 125.205C76.8877 126.626 76.1919 128.074 75.4825 129.528C74.7732 130.99 74.0706 132.431 73.3815 133.852C73.0234 134.556 72.7194 135.287 72.3209 135.95C71.9223 136.62 71.5372 137.283 71.1454 137.946C69.5916 140.578 68.0851 143.123 66.6529 145.545C66.288 146.147 65.957 146.756 65.572 147.325C65.1734 147.886 64.7883 148.441 64.4032 148.983C63.6331 150.072 62.8832 151.128 62.1603 152.149C60.7079 154.179 59.3567 156.081 58.1205 157.813C55.4249 161.081 53.1686 163.666 51.6148 165.453C50.0542 167.239 49.1557 168.193 49.0949 168.146C49.0273 168.092 49.8042 167.029 51.2499 165.155C52.7565 163.247 54.8642 160.56 57.4584 157.272C58.6474 155.519 59.9512 153.611 61.3497 151.561C62.0522 150.539 62.7751 149.477 63.525 148.387C63.8965 147.846 64.2816 147.291 64.6667 146.729C65.0383 146.161 65.3625 145.545 65.7138 144.95C67.119 142.534 68.5917 139.996 70.1118 137.371C70.4968 136.715 70.8819 136.051 71.267 135.382C71.6656 134.718 71.9561 133.994 72.3141 133.291C72.9964 131.876 73.6923 130.442 74.3948 128.994C75.0974 127.546 75.7933 126.111 76.4823 124.704C76.8134 123.993 77.1984 123.31 77.4754 122.593C77.7592 121.875 78.0361 121.158 78.3199 120.454C79.4413 117.633 80.5155 114.906 81.5491 112.307C81.799 111.658 82.0828 111.022 82.299 110.379C82.5016 109.729 82.6976 109.086 82.8935 108.457C83.2853 107.192 83.6704 105.967 84.0419 104.783C84.7851 102.414 85.4809 100.208 86.1159 98.1853C87.0955 94.1185 87.8927 90.8028 88.4601 88.4413C89.0344 86.1406 89.3924 84.8752 89.4735 84.8888L89.4667 84.8955Z" fill="black"/>
</g>
<g opacity="0.4">
<path d="M115.841 217.13C117.124 219.464 118.442 221.839 120.34 223.707C122.245 225.574 124.853 226.901 127.508 226.63C130.156 226.359 132.669 224.16 132.696 221.487C133.966 222.448 135.919 221.927 136.973 220.73C138.027 219.532 138.371 217.874 138.493 216.284C140.222 217.306 142.627 216.494 143.776 214.849C144.931 213.205 144.998 210.992 144.444 209.057C143.884 207.129 142.769 205.417 141.668 203.732C142.999 203.84 144.411 203.935 145.6 203.326C146.789 202.723 147.593 201.147 146.897 200.003C146.491 199.333 145.708 199.002 144.958 198.765C142.87 198.109 141.411 197.588 139.236 197.838C138.729 197.838 140.107 203.576 126.481 211.412C118.435 216.04 115.827 217.109 115.827 217.109L115.841 217.13Z" fill="black"/>
</g>
<path d="M146.525 225.412C146.518 225.473 145.606 225.304 144.14 225.338C142.681 225.372 140.634 225.69 138.614 226.664C136.594 227.632 135.067 229.026 134.121 230.149C133.169 231.272 132.737 232.091 132.683 232.057C132.662 232.044 132.75 231.834 132.946 231.462C133.142 231.096 133.466 230.582 133.926 229.987C134.831 228.802 136.378 227.341 138.459 226.339C140.533 225.345 142.64 225.054 144.133 225.081C144.883 225.094 145.485 225.162 145.897 225.236C146.309 225.311 146.532 225.379 146.525 225.399V225.412Z" fill="#EB996E"/>
<path d="M116.726 213.496C118.921 215.608 120.421 217.942 122.725 220.067C123.772 221.034 125.393 222.861 126.799 223.105C128.204 223.349 129.102 223.159 129.656 221.846C130.109 220.784 129.298 219.329 128.744 218.456C127.278 216.149 125.873 214.349 124.779 212.556C124.265 211.717 124.927 211.541 125.17 211.933C126.224 213.029 127.805 213.983 128.751 215.174C130.048 216.812 130.284 218.977 133.669 218.287C134.115 218.199 134.568 218.044 134.926 217.766C136.202 216.785 136.256 215.086 135.716 213.726C135.297 212.657 134.554 211.751 133.831 210.864C135.277 212.495 136.851 214.214 139.141 214.403C140.472 214.511 141.816 213.889 142.357 212.664C143.032 211.121 142.06 209.626 141.087 208.421C139.357 206.283 137.425 204.307 135.324 202.528C134.541 201.864 133.547 201.492 132.521 201.485C131.332 201.479 129.845 201.702 129.116 202.737C127.785 204.612 128.197 206.276 128.197 206.276C128.197 206.276 125.218 204.767 122.826 206.344C120.435 207.927 119.84 210.641 119.84 210.641L116.726 213.496Z" fill="#FFBE9D"/>
<path d="M132.568 200.829C131.649 199.902 131.433 198.203 132.149 196.796C132.656 195.801 133.291 194.834 133.939 194.617C136.77 193.663 149.139 195.801 149.031 198.555C148.917 201.377 148.018 202.622 141.303 201.648C140.121 201.478 138.27 201.242 138.27 201.242L136.648 203.678L132.575 200.822L132.568 200.829Z" fill="#FFBE9D"/>
<path d="M134.784 212.346C134.682 212.407 133.743 210.485 131.825 208.76C129.92 207.014 127.92 206.263 127.967 206.161C127.981 206.121 128.501 206.256 129.278 206.621C130.055 206.987 131.081 207.616 132.061 208.503C133.034 209.389 133.763 210.35 134.196 211.094C134.635 211.832 134.817 212.339 134.784 212.353V212.346Z" fill="#EB996E"/>
<path d="M136.864 203.894C136.804 203.955 135.986 203.285 134.871 202.602C134.317 202.263 133.804 201.972 133.419 201.803C133.034 201.62 132.784 201.573 132.784 201.519C132.784 201.472 133.074 201.438 133.507 201.566C133.939 201.688 134.486 201.952 135.061 202.304C136.202 203.001 136.952 203.82 136.864 203.894Z" fill="#EB996E"/>
<path d="M138.938 201.336C138.932 201.411 137.851 201.445 136.554 201.066C135.912 200.87 135.365 200.558 135.027 200.267C134.689 199.976 134.547 199.733 134.581 199.706C134.649 199.645 135.412 200.376 136.655 200.727C137.885 201.086 138.952 201.215 138.932 201.33L138.938 201.336Z" fill="#EB996E"/>
<path d="M126.92 215.75C126.88 215.777 126.44 215.222 125.792 214.281C125.13 213.368 124.285 212.001 122.907 210.993C121.529 209.984 119.908 209.748 118.82 209.91C117.712 210.066 117.131 210.526 117.097 210.458C117.084 210.445 117.212 210.316 117.489 210.147C117.766 209.971 118.205 209.781 118.78 209.666C119.915 209.43 121.651 209.646 123.117 210.708C124.576 211.778 125.393 213.199 126.008 214.146C126.603 215.12 126.967 215.723 126.927 215.75H126.92Z" fill="#EB996E"/>
<path d="M136.385 243.154C136.398 243.249 134.128 243.574 131.331 243.885C128.528 244.19 126.244 244.359 126.238 244.264C126.224 244.169 128.487 243.844 131.291 243.533C134.094 243.229 136.371 243.059 136.385 243.154Z" fill="#EB996E"/>
<path d="M242.806 18.1152L243.57 19.5092L244.961 20.2738L243.57 21.0384L242.806 22.4324L242.043 21.0384L240.651 20.2738L242.043 19.5092L242.806 18.1152Z" fill="#E8505B"/>
<path d="M258.75 52.7402L259.513 54.1342L260.912 54.8988L259.513 55.6634L258.75 57.0574L257.987 55.6634L256.595 54.8988L257.987 54.1342L258.75 52.7402Z" fill="#E8505B"/>
<path d="M3.16311 145.119L3.9265 146.513L5.31817 147.277L3.9265 148.042L3.16311 149.436L2.39972 148.042L1.00806 147.277L2.39972 146.513L3.16311 145.119Z" fill="#E8505B"/>
<path d="M221.884 26.7222L223.647 29.9431L226.863 31.7092L223.647 33.4753L221.884 36.6962L220.121 33.4753L216.905 31.7092L220.121 29.9431L221.884 26.7222Z" fill="#E8505B"/>
<path d="M17.458 123.167L19.2145 126.388L22.4302 128.148L19.2145 129.907L17.458 133.128L15.7015 129.907L12.4858 128.148L15.7015 126.388L17.458 123.167Z" fill="#E8505B"/>
<path d="M263.087 199.949L264.85 203.17L268.059 204.929L264.85 206.688L263.087 209.902L261.331 206.688L258.122 204.929L261.331 203.17L263.087 199.949Z" fill="#E8505B"/>
</svg>
