<svg width="64" height="64" viewBox="0 0 64 64" fill="none" xmlns="http://www.w3.org/2000/svg">
<path d="M57.7149 12.9143C56.9149 11.8857 55.5435 11.6571 54.5149 12.4571C53.4864 13.2571 53.2578 14.6286 54.0578 15.6571C55.2007 17.2571 56.2292 18.8571 57.0292 20.5714H47.3149C46.6292 15.6571 45.4864 11.0857 44.1149 7.31428C45.7149 8.11428 47.2007 9.02857 48.5721 10.0571C49.6007 10.8571 50.9721 10.6286 51.7721 9.6C52.5721 8.57143 52.3435 7.2 51.3149 6.4C45.6007 2.17143 38.9721 0 32 0C14.4 0 0 14.4 0 32C0 49.6 14.4 64 32 64C49.6 64 64 49.6 64 32C64 25.0286 61.8286 18.4007 57.7143 12.9149L57.7149 12.9143ZM58.5149 25.1429C59.0864 27.3143 59.4292 29.6 59.4292 32C59.4292 34.4 59.0864 36.6857 58.5149 38.8571H47.6578C47.8864 36.5714 47.8864 34.2857 47.8864 32C47.8864 29.7143 47.7721 27.4286 47.6578 25.1429H58.5149ZM4.57208 32C4.57208 29.6 4.91494 27.3143 5.48637 25.1429H11.8864C12.5721 27.0857 14.1721 28.6857 16.1149 29.3714C16.1149 30.2857 16.0007 31.2 16.0007 32C16.0007 34.2857 16.1149 36.5714 16.2292 38.8571H5.48637C4.91494 36.6857 4.57208 34.4 4.57208 32ZM18.2864 20.5714C19.5435 20.5714 20.5721 21.6 20.5721 22.8571C20.5721 24.1143 19.5435 25.1429 18.2864 25.1429C17.0292 25.1429 16.0007 24.1143 16.0007 22.8571C16.0007 21.6 17.0292 20.5714 18.2864 20.5714ZM20.5721 32C20.5721 31.0857 20.5721 30.1714 20.6864 29.2571C22.6292 28.5714 24.1149 27.0857 24.8007 25.1429H43.2013C43.4299 27.3143 43.5442 29.7143 43.5442 32C43.5442 34.2857 43.4299 36.6857 43.3156 38.8571H20.9156C20.687 36.5714 20.5727 34.2857 20.5727 32H20.5721ZM37.9435 5.25714C40.1149 9.14286 41.7149 14.5143 42.6292 20.5714H24.6857C24.2286 19.0857 23.2 17.9429 21.9429 17.1429C22.8571 12.4571 24.3429 8.34286 25.9429 5.25714C28 4.8 29.9429 4.57143 32 4.57143C34.0571 4.57143 36 4.8 37.9429 5.25714H37.9435ZM20 7.31428C18.9714 9.94286 18.1714 12.8 17.4857 16C14.8571 16.3429 12.6857 18.0571 11.7714 20.5714H6.97143C9.71428 14.8571 14.2857 10.0571 20 7.31428ZM7.08571 43.4286H16.8C17.4857 48.3429 18.6286 52.9143 20 56.6857C14.2857 53.9429 9.71428 49.1429 7.08571 43.4286ZM26.0571 58.7429C23.8857 54.8571 22.2857 49.4857 21.3714 43.4286H42.6286C41.7143 49.6 40.1143 54.9714 37.9429 58.7429C36 59.2 34.0571 59.4286 32 59.4286C29.9429 59.4286 28 59.2 26.0571 58.7429ZM44.0007 56.6857C45.4864 52.9143 46.6292 48.3429 47.2007 43.4286H56.9149C54.2864 49.1429 49.7149 53.9429 44.0007 56.6857Z" fill="white"/>
</svg>
